<svg width="64" height="18" viewBox="0 0 64 18" fill="none" xmlns="http://www.w3.org/2000/svg">
<rect x="18.2755" y="5.74994" width="27.5023" height="1.5" rx="0.5" fill="#D3D4DA"/>
<rect x="18.2755" y="10.7499" width="27.5023" height="1.5" rx="0.5" fill="#D3D4DA"/>
<rect x="18.2755" y="15.7499" width="27.5023" height="1.5" rx="0.5" fill="#D3D4DA"/>
<rect x="18.2755" y="0.749939" width="27.5023" height="1.5" rx="0.5" fill="#D3D4DA"/>
<rect x="0.862061" y="5.74994" width="12.0801" height="1.5" rx="0.5" fill="#D3D4DA"/>
<rect x="0.862061" y="0.749939" width="12.0801" height="1.5" rx="0.5" fill="#D3D4DA"/>
<rect x="0.862061" y="10.7499" width="12.0801" height="1.5" rx="0.5" fill="#D3D4DA"/>
<rect x="0.862061" y="15.7499" width="12.0801" height="1.5" rx="0.5" fill="#D3D4DA"/>
<rect x="51.0575" y="5.74994" width="12.0801" height="1.5" rx="0.5" fill="#D3D4DA"/>
<rect x="51.0575" y="0.749939" width="12.0801" height="1.5" rx="0.5" fill="#D3D4DA"/>
<rect x="51.0575" y="10.7499" width="12.0801" height="1.5" rx="0.5" fill="#D3D4DA"/>
<rect x="51.0575" y="15.7499" width="12.0801" height="1.5" rx="0.5" fill="#D3D4DA"/>
</svg>
