<svg width="21" height="23" viewBox="0 0 21 23" fill="none" xmlns="http://www.w3.org/2000/svg">
<path d="M0.954 18V17.208C1.35 17.184 1.632 17.1 1.8 16.956C1.98 16.812 2.094 16.596 2.142 16.308C2.19 16.02 2.214 15.654 2.214 15.21V7.722C2.214 7.458 2.22 7.206 2.232 6.966C2.244 6.714 2.256 6.498 2.268 6.318C2.064 6.33 1.842 6.342 1.602 6.354C1.362 6.366 1.146 6.378 0.954 6.39V5.4H5.382V6.192C4.998 6.204 4.716 6.288 4.536 6.444C4.356 6.588 4.242 6.804 4.194 7.092C4.146 7.368 4.122 7.734 4.122 8.19V11.124H10.08V7.722C10.08 7.458 10.086 7.206 10.098 6.966C10.11 6.714 10.122 6.498 10.134 6.318C9.93 6.33 9.708 6.342 9.468 6.354C9.228 6.366 9.012 6.378 8.82 6.39V5.4H13.248V6.192C12.864 6.204 12.582 6.288 12.402 6.444C12.222 6.588 12.108 6.804 12.06 7.092C12.012 7.368 11.988 7.734 11.988 8.19V15.588C11.988 15.912 11.982 16.206 11.97 16.47C11.97 16.722 11.958 16.926 11.934 17.082C12.138 17.058 12.36 17.046 12.6 17.046C12.84 17.034 13.056 17.022 13.248 17.01V18H8.82V17.208C9.216 17.184 9.498 17.1 9.666 16.956C9.846 16.812 9.96 16.596 10.008 16.308C10.056 16.02 10.08 15.654 10.08 15.21V12.06L4.122 12.114V15.588C4.122 15.912 4.116 16.206 4.104 16.47C4.104 16.722 4.092 16.926 4.068 17.082C4.272 17.058 4.494 17.046 4.734 17.046C4.986 17.034 5.202 17.022 5.382 17.01V18H0.954Z" fill="black"/>
<path d="M17.048 20.192C16.464 20.192 15.98 20.104 15.596 19.928C15.22 19.752 14.94 19.536 14.756 19.28C14.58 19.016 14.492 18.76 14.492 18.512C14.492 18.312 14.548 18.14 14.66 17.996C14.772 17.852 14.928 17.776 15.128 17.768C15.296 17.76 15.424 17.792 15.512 17.864C15.608 17.936 15.672 18.02 15.704 18.116C15.744 18.212 15.764 18.304 15.764 18.392C15.764 18.472 15.752 18.556 15.728 18.644C15.704 18.724 15.668 18.808 15.62 18.896C15.7 19.128 15.868 19.3 16.124 19.412C16.38 19.516 16.656 19.568 16.952 19.568C17.496 19.568 17.924 19.412 18.236 19.1C18.548 18.788 18.704 18.36 18.704 17.816C18.704 17.496 18.648 17.184 18.536 16.88C18.432 16.576 18.236 16.328 17.948 16.136C17.66 15.944 17.244 15.856 16.7 15.872C16.636 15.872 16.556 15.876 16.46 15.884C16.364 15.884 16.276 15.888 16.196 15.896V15.248C16.276 15.248 16.352 15.248 16.424 15.248C16.496 15.248 16.568 15.248 16.64 15.248C17.04 15.248 17.36 15.164 17.6 14.996C17.848 14.828 18.028 14.62 18.14 14.372C18.252 14.116 18.308 13.864 18.308 13.616C18.316 13.304 18.276 13.028 18.188 12.788C18.108 12.54 17.972 12.348 17.78 12.212C17.588 12.068 17.324 11.996 16.988 11.996C16.676 11.996 16.404 12.076 16.172 12.236C15.948 12.396 15.804 12.564 15.74 12.74C15.812 12.828 15.86 12.92 15.884 13.016C15.916 13.104 15.932 13.188 15.932 13.268C15.932 13.34 15.908 13.428 15.86 13.532C15.82 13.628 15.752 13.708 15.656 13.772C15.568 13.836 15.444 13.868 15.284 13.868C15.092 13.868 14.944 13.8 14.84 13.664C14.744 13.528 14.696 13.364 14.696 13.172C14.696 12.94 14.784 12.688 14.96 12.416C15.136 12.144 15.408 11.908 15.776 11.708C16.144 11.508 16.608 11.408 17.168 11.408C17.616 11.408 18.028 11.476 18.404 11.612C18.788 11.748 19.092 11.972 19.316 12.284C19.548 12.588 19.664 12.996 19.664 13.508C19.664 13.74 19.604 13.984 19.484 14.24C19.364 14.496 19.164 14.732 18.884 14.948C18.612 15.164 18.236 15.34 17.756 15.476C18.516 15.572 19.1 15.828 19.508 16.244C19.924 16.652 20.132 17.148 20.132 17.732C20.132 18.276 19.992 18.732 19.712 19.1C19.432 19.46 19.056 19.732 18.584 19.916C18.12 20.1 17.608 20.192 17.048 20.192Z" fill="black"/>
</svg>
