<svg width="25" height="25" viewBox="0 0 25 25" fill="none" xmlns="http://www.w3.org/2000/svg">
<path d="M3.125 8.75C2.08947 8.75 1.25 9.58947 1.25 10.625V21.875C1.25 22.9105 2.08947 23.75 3.125 23.75H14.387C15.4225 23.75 16.262 22.9105 16.262 21.875V10.625C16.262 9.58947 15.4225 8.75 14.387 8.75H3.125ZM8.75 7.5H14.387C16.1129 7.5 17.512 8.89911 17.512 10.625V16.25H18.125C18.4702 16.25 18.75 16.5298 18.75 16.875C18.75 17.2202 18.4702 17.5 18.125 17.5H17.512V21.875C17.512 23.6009 16.1129 25 14.387 25H3.125C1.39911 25 0 23.6009 0 21.875V10.625C0 8.89911 1.39911 7.5 3.125 7.5H7.5V6.875C7.5 6.52982 7.77982 6.25 8.125 6.25C8.47018 6.25 8.75 6.52982 8.75 6.875V7.5ZM10.625 0C10.9702 0 11.25 0.279822 11.25 0.625C11.25 0.970178 10.9702 1.25 10.625 1.25C9.58947 1.25 8.75 2.08947 8.75 3.125C8.75 3.47018 8.47018 3.75 8.125 3.75C7.77982 3.75 7.5 3.47018 7.5 3.125C7.5 1.39911 8.89911 0 10.625 0ZM21.875 1.25C21.5298 1.25 21.25 0.970178 21.25 0.625C21.25 0.279822 21.5298 0 21.875 0C23.6009 0 25 1.39911 25 3.125C25 3.47018 24.7202 3.75 24.375 3.75C24.0298 3.75 23.75 3.47018 23.75 3.125C23.75 2.08947 22.9105 1.25 21.875 1.25ZM23.75 6.875C23.75 6.52982 24.0298 6.25 24.375 6.25C24.7202 6.25 25 6.52982 25 6.875V10.625C25 10.9702 24.7202 11.25 24.375 11.25C24.0298 11.25 23.75 10.9702 23.75 10.625V6.875ZM23.75 14.375C23.75 14.0298 24.0298 13.75 24.375 13.75C24.7202 13.75 25 14.0298 25 14.375C25 16.1009 23.6009 17.5 21.875 17.5C21.5298 17.5 21.25 17.2202 21.25 16.875C21.25 16.5298 21.5298 16.25 21.875 16.25C22.9105 16.25 23.75 15.4105 23.75 14.375ZM18.125 0C18.4702 0 18.75 0.279822 18.75 0.625C18.75 0.970178 18.4702 1.25 18.125 1.25H14.375C14.0298 1.25 13.75 0.970178 13.75 0.625C13.75 0.279822 14.0298 0 14.375 0H18.125Z" fill="black"/>
</svg>
