<svg width="21" height="23" viewBox="0 0 21 23" fill="none" xmlns="http://www.w3.org/2000/svg">
<path d="M0.954 18V17.208C1.35 17.184 1.632 17.1 1.8 16.956C1.98 16.812 2.094 16.596 2.142 16.308C2.19 16.02 2.214 15.654 2.214 15.21V7.722C2.214 7.458 2.22 7.206 2.232 6.966C2.244 6.714 2.256 6.498 2.268 6.318C2.064 6.33 1.842 6.342 1.602 6.354C1.362 6.366 1.146 6.378 0.954 6.39V5.4H5.382V6.192C4.998 6.204 4.716 6.288 4.536 6.444C4.356 6.588 4.242 6.804 4.194 7.092C4.146 7.368 4.122 7.734 4.122 8.19V11.124H10.08V7.722C10.08 7.458 10.086 7.206 10.098 6.966C10.11 6.714 10.122 6.498 10.134 6.318C9.93 6.33 9.708 6.342 9.468 6.354C9.228 6.366 9.012 6.378 8.82 6.39V5.4H13.248V6.192C12.864 6.204 12.582 6.288 12.402 6.444C12.222 6.588 12.108 6.804 12.06 7.092C12.012 7.368 11.988 7.734 11.988 8.19V15.588C11.988 15.912 11.982 16.206 11.97 16.47C11.97 16.722 11.958 16.926 11.934 17.082C12.138 17.058 12.36 17.046 12.6 17.046C12.84 17.034 13.056 17.022 13.248 17.01V18H8.82V17.208C9.216 17.184 9.498 17.1 9.666 16.956C9.846 16.812 9.96 16.596 10.008 16.308C10.056 16.02 10.08 15.654 10.08 15.21V12.06L4.122 12.114V15.588C4.122 15.912 4.116 16.206 4.104 16.47C4.104 16.722 4.092 16.926 4.068 17.082C4.272 17.058 4.494 17.046 4.734 17.046C4.986 17.034 5.202 17.022 5.382 17.01V18H0.954Z" fill="black"/>
<path d="M17.036 20.192C16.516 20.192 16.076 20.108 15.716 19.94C15.356 19.764 15.076 19.552 14.876 19.304C14.684 19.048 14.588 18.8 14.588 18.56C14.588 18.36 14.644 18.188 14.756 18.044C14.868 17.9 15.024 17.824 15.224 17.816C15.392 17.808 15.52 17.84 15.608 17.912C15.704 17.976 15.768 18.056 15.8 18.152C15.84 18.248 15.86 18.34 15.86 18.428C15.86 18.5 15.848 18.58 15.824 18.668C15.808 18.748 15.776 18.828 15.728 18.908C15.768 19.06 15.86 19.192 16.004 19.304C16.148 19.408 16.316 19.484 16.508 19.532C16.7 19.58 16.876 19.6 17.036 19.592C17.404 19.584 17.7 19.488 17.924 19.304C18.148 19.112 18.312 18.872 18.416 18.584C18.528 18.296 18.584 17.992 18.584 17.672C18.584 17.464 18.568 17.232 18.536 16.976C18.504 16.712 18.432 16.464 18.32 16.232C18.208 15.992 18.036 15.796 17.804 15.644C17.572 15.484 17.26 15.404 16.868 15.404C16.74 15.404 16.584 15.42 16.4 15.452C16.216 15.484 16.028 15.532 15.836 15.596C15.652 15.66 15.484 15.74 15.332 15.836L14.936 15.5L14.9 11.6H18.008C18.408 11.6 18.692 11.544 18.86 11.432C19.028 11.32 19.112 11.116 19.112 10.82H19.58L19.508 12.524L15.572 12.608V15.08C15.764 15 16.008 14.928 16.304 14.864C16.6 14.792 16.904 14.756 17.216 14.756C17.712 14.756 18.136 14.832 18.488 14.984C18.848 15.136 19.14 15.34 19.364 15.596C19.596 15.852 19.764 16.14 19.868 16.46C19.98 16.78 20.036 17.108 20.036 17.444C20.036 18.044 19.892 18.552 19.604 18.968C19.324 19.376 18.956 19.684 18.5 19.892C18.044 20.092 17.556 20.192 17.036 20.192Z" fill="black"/>
</svg>
