<svg width="34" height="22" viewBox="0 0 34 22" fill="none" xmlns="http://www.w3.org/2000/svg">
<path d="M0.916 21V19.74C1.476 19.74 1.90533 19.5907 2.204 19.292C2.50267 18.9933 2.75467 18.592 2.96 18.088C3.16533 17.5653 3.38933 16.9867 3.632 16.352L9.288 0.867999H10.408L16.54 16.576C16.6893 16.9307 16.8573 17.416 17.044 18.032C17.2307 18.6293 17.3147 19.1427 17.296 19.572C17.6133 19.5347 17.9213 19.516 18.22 19.516C18.5373 19.4973 18.836 19.4787 19.116 19.46V21H12.312V19.768C12.9653 19.7493 13.3947 19.6093 13.6 19.348C13.824 19.068 13.908 18.732 13.852 18.34C13.8147 17.948 13.7213 17.556 13.572 17.164L12.732 14.896L5.872 15.064L5.06 17.5C4.948 17.8733 4.82667 18.228 4.696 18.564C4.56533 18.9 4.43467 19.2267 4.304 19.544C4.64 19.5067 4.99467 19.488 5.368 19.488C5.76 19.4693 6.10533 19.4507 6.404 19.432V21H0.916ZM6.376 13.552H12.256L10.492 8.82C10.268 8.204 10.0533 7.59733 9.848 7C9.64267 6.384 9.456 5.796 9.288 5.236H9.26C9.11067 5.70267 8.94267 6.216 8.756 6.776C8.56933 7.336 8.35467 7.94267 8.112 8.596L6.376 13.552ZM28.8937 21C28.8564 20.7013 28.8284 20.44 28.8097 20.216C28.791 19.992 28.763 19.7587 28.7257 19.516C28.091 20.1507 27.4097 20.636 26.6817 20.972C25.9537 21.2893 25.1977 21.448 24.4137 21.448C23.0697 21.448 22.0524 21.1213 21.3617 20.468C20.6897 19.796 20.3537 18.9653 20.3537 17.976C20.3537 17.1173 20.6057 16.3707 21.1097 15.736C21.6137 15.1013 22.2764 14.588 23.0977 14.196C23.919 13.7853 24.815 13.4867 25.7857 13.3C26.7564 13.0947 27.7084 12.992 28.6417 12.992V11.34C28.6417 10.7427 28.5857 10.192 28.4737 9.688C28.3617 9.16533 28.1284 8.74533 27.7737 8.428C27.4377 8.092 26.9057 7.924 26.1777 7.924C25.6924 7.90533 25.207 7.99867 24.7217 8.204C24.2364 8.39067 23.863 8.708 23.6017 9.156C23.751 9.30533 23.8444 9.48267 23.8817 9.688C23.9377 9.87467 23.9657 10.052 23.9657 10.22C23.9657 10.4813 23.8537 10.78 23.6297 11.116C23.4057 11.4333 23.023 11.5827 22.4817 11.564C22.0337 11.564 21.6884 11.4147 21.4457 11.116C21.2217 10.7987 21.1097 10.4347 21.1097 10.024C21.1097 9.352 21.3524 8.75467 21.8377 8.232C22.3417 7.70933 23.023 7.29867 23.8817 7C24.7404 6.70133 25.7017 6.552 26.7657 6.552C28.371 6.552 29.5657 6.972 30.3497 7.812C31.1524 8.652 31.5537 9.97733 31.5537 11.788C31.5537 12.46 31.5537 13.104 31.5537 13.72C31.5537 14.336 31.5444 14.952 31.5257 15.568C31.5257 16.184 31.5257 16.8373 31.5257 17.528C31.5257 17.808 31.5164 18.1253 31.4977 18.48C31.479 18.8347 31.451 19.208 31.4137 19.6C31.731 19.5813 32.0577 19.5627 32.3937 19.544C32.7297 19.5253 33.047 19.516 33.3457 19.516V21H28.8937ZM28.6417 14.28C28.0444 14.3173 27.4284 14.4013 26.7937 14.532C26.1777 14.6627 25.6177 14.8587 25.1137 15.12C24.6097 15.3813 24.199 15.7173 23.8817 16.128C23.583 16.5387 23.4337 17.0333 23.4337 17.612C23.471 18.2467 23.6764 18.7133 24.0497 19.012C24.4417 19.3107 24.899 19.46 25.4217 19.46C26.075 19.46 26.6537 19.3387 27.1577 19.096C27.6617 18.8347 28.1564 18.48 28.6417 18.032C28.623 17.8267 28.6137 17.6213 28.6137 17.416C28.6137 17.192 28.6137 16.9587 28.6137 16.716C28.6137 16.548 28.6137 16.24 28.6137 15.792C28.6324 15.3253 28.6417 14.8213 28.6417 14.28Z" fill="black"/>
</svg>
