<svg width="121" height="55" viewBox="0 0 121 55" fill="none" xmlns="http://www.w3.org/2000/svg">
<path d="M27.8846 8.08585H7.83927V20.1001H27.3017V27.192H7.83927V43.9019H27.8846V50.9938H1.29394C0.741659 50.9938 0.293945 50.5461 0.293945 49.9938V1.9939C0.293945 1.44161 0.741661 0.993896 1.29395 0.993896H27.8846V8.08585Z" fill="#1F2028"/>
<path d="M39.9741 43.9017L60.0194 43.9017L60.0194 31.8875L40.557 31.8875L40.557 24.7955L60.0194 24.7955L60.0194 8.0857L29.5555 8.0857L29.5555 0.993741L66.5647 0.993741C67.117 0.993741 67.5647 1.44146 67.5647 1.99374L67.5647 49.9937C67.5647 50.5459 67.117 50.9937 66.5647 50.9937L39.9741 50.9936L39.9741 43.9017Z" fill="#1F2028"/>
<path d="M38.9082 43.9017L28.96 43.9017L28.96 50.9937L38.9082 50.9937L38.9082 43.9017Z" fill="#FF5E0E"/>
<path d="M73.9454 51.1414C73.5704 51.1414 73.2484 51.0088 72.9795 50.7437C72.7143 50.4747 72.5817 50.1527 72.5817 49.7777C72.5817 49.4065 72.7143 49.0883 72.9795 48.8232C73.2484 48.558 73.5704 48.4255 73.9454 48.4255C74.309 48.4255 74.6272 48.558 74.8999 48.8232C75.1727 49.0883 75.309 49.4065 75.309 49.7777C75.309 50.0277 75.2446 50.2569 75.1158 50.4652C74.9908 50.6698 74.8261 50.8346 74.6215 50.9596C74.417 51.0808 74.1916 51.1414 73.9454 51.1414Z" fill="#FF5E0E"/>
<path d="M76.5417 50.9937V39.3573H81.2008C82.0568 39.3573 82.7709 39.4842 83.3428 39.738C83.9148 39.9918 84.3447 40.344 84.6326 40.7948C84.9205 41.2418 85.0644 41.7569 85.0644 42.3402C85.0644 42.7948 84.9735 43.1944 84.7917 43.5391C84.6099 43.88 84.3599 44.1603 84.0417 44.38C83.7273 44.5959 83.3674 44.7493 82.9621 44.8402V44.9539C83.4053 44.9728 83.8201 45.0978 84.2065 45.3289C84.5966 45.5599 84.9129 45.8838 85.1553 46.3005C85.3977 46.7133 85.519 47.2058 85.519 47.7777C85.519 48.3952 85.3655 48.9463 85.0587 49.4312C84.7557 49.9122 84.3068 50.2929 83.7121 50.5732C83.1174 50.8535 82.3845 50.9937 81.5133 50.9937H76.5417ZM79.0019 48.9823H81.0076C81.6932 48.9823 82.1932 48.8516 82.5076 48.5902C82.822 48.3251 82.9792 47.9728 82.9792 47.5334C82.9792 47.2115 82.9015 46.9274 82.7462 46.6812C82.5909 46.4349 82.3693 46.2418 82.0815 46.1016C81.7974 45.9615 81.4584 45.8914 81.0644 45.8914H79.0019V48.9823ZM79.0019 44.2266H80.8258C81.1629 44.2266 81.4621 44.1679 81.7235 44.0505C81.9887 43.9293 82.197 43.7588 82.3485 43.5391C82.5038 43.3194 82.5815 43.0562 82.5815 42.7493C82.5815 42.3289 82.4318 41.9899 82.1326 41.7323C81.8371 41.4747 81.4167 41.3459 80.8712 41.3459H79.0019V44.2266ZM87.7687 54.2664C87.4619 54.2664 87.174 54.2418 86.905 54.1925C86.6399 54.1471 86.4202 54.0883 86.2459 54.0164L86.7914 52.2096C87.0755 52.2967 87.3312 52.344 87.5584 52.3516C87.7895 52.3592 87.9884 52.3062 88.155 52.1925C88.3255 52.0789 88.4637 51.8857 88.5698 51.613L88.7119 51.2437L85.5812 42.2664H88.1266L89.9334 48.6755H90.0244L91.8482 42.2664H94.4107L91.0187 51.9368C90.8558 52.4065 90.6342 52.8156 90.3539 53.1641C90.0774 53.5164 89.727 53.7872 89.3028 53.9766C88.8785 54.1698 88.3672 54.2664 87.7687 54.2664ZM97.7979 50.9937V39.3573H102.389C103.271 39.3573 104.023 39.5258 104.645 39.863C105.266 40.1963 105.739 40.6603 106.065 41.255C106.395 41.8459 106.559 42.5277 106.559 43.3005C106.559 44.0732 106.393 44.755 106.059 45.3459C105.726 45.9368 105.243 46.3971 104.61 46.7266C103.982 47.0562 103.22 47.2209 102.326 47.2209H99.4002V45.2493H101.929C102.402 45.2493 102.792 45.1679 103.099 45.005C103.41 44.8383 103.641 44.6092 103.792 44.3175C103.948 44.0221 104.025 43.683 104.025 43.3005C104.025 42.9141 103.948 42.577 103.792 42.2891C103.641 41.9974 103.41 41.7721 103.099 41.613C102.788 41.4501 102.395 41.3687 101.917 41.3687H100.258V50.9937H97.7979ZM112.908 47.2777V42.2664H115.329V50.9937H113.005V49.4084H112.914C112.717 49.9198 112.39 50.3308 111.931 50.6414C111.477 50.952 110.922 51.1073 110.266 51.1073C109.683 51.1073 109.17 50.9747 108.727 50.7096C108.283 50.4444 107.937 50.0675 107.687 49.5789C107.441 49.0902 107.316 48.505 107.312 47.8232V42.2664H109.732V47.3914C109.736 47.9065 109.874 48.3137 110.147 48.613C110.42 48.9122 110.785 49.0618 111.244 49.0618C111.535 49.0618 111.808 48.9955 112.062 48.863C112.316 48.7266 112.52 48.5258 112.675 48.2607C112.835 47.9955 112.912 47.6679 112.908 47.2777ZM118.885 39.3573V50.9937H116.465V39.3573H118.885Z" fill="black"/>
</svg>
