<svg width="31" height="24" viewBox="0 0 31 24" fill="none" xmlns="http://www.w3.org/2000/svg">
<path d="M12.6581 3.92285H3.47478V9.42689H12.391V12.6759H3.47478V20.3311H12.6581V23.5801H1.01807C0.465782 23.5801 0.0180664 23.1324 0.0180664 22.5801V1.67383C0.0180664 1.12154 0.465782 0.673828 1.01807 0.673828H12.6581V3.92285Z" fill="#FAFAFA"/>
<path d="M18.1967 20.3311L27.38 20.3311L27.38 14.827L18.4637 14.827L18.4637 11.578L27.38 11.578L27.38 3.92278L13.4236 3.92278L13.4236 0.673763L29.8367 0.673763C30.389 0.673763 30.8367 1.12148 30.8367 1.67376L30.8367 22.5801C30.8367 23.1324 30.389 23.5801 29.8367 23.5801L18.1967 23.5801L18.1967 20.3311Z" fill="#FAFAFA"/>
<path d="M17.7083 20.3311L13.1507 20.3311L13.1507 23.5801L17.7083 23.5801L17.7083 20.3311Z" fill="#FF5E0E"/>
</svg>
