<svg width="16" height="16" viewBox="0 0 16 16" fill="none" xmlns="http://www.w3.org/2000/svg">
<path d="M6.56228 3.65904H1.79462V6.5713H6.42364V8.2904H1.79462V12.3409H6.00473V14.06H1C0.447716 14.06 0 13.6123 0 13.06V2.93994C0 2.38766 0.447715 1.93994 1 1.93994H6.56228V3.65904Z" fill="white"/>
<path d="M9.9997 12.3408L14.2054 12.3408L14.2054 9.42858L9.57636 9.42857L9.57636 7.70948L14.2054 7.70948L14.2054 3.659L6.98497 3.659L6.98497 1.9399L15 1.9399C15.5523 1.9399 16 2.38762 16 2.9399L16 13.0599C16 13.6122 15.5523 14.0599 15 14.0599L9.9997 14.0599L9.9997 13.2004L9.9997 12.3408Z" fill="white"/>
<path d="M9.57446 12.3408L6.42816 12.3408L6.42816 14.0599L9.57446 14.0599L9.57446 12.3408Z" fill="#FF5E0E"/>
</svg>
