<svg width="197" height="197" viewBox="0 0 197 197" fill="none" xmlns="http://www.w3.org/2000/svg">
<rect x="0.418701" y="0.190369" width="196" height="196" rx="98" fill="#1F2028"/>
<path d="M176.756 99.9917C176.756 107.06 174.768 112.465 173.632 114.96C171.644 119.256 169.088 122.998 165.821 126.047C160.709 130.897 155.029 134.085 149.065 135.194C146.935 135.61 144.805 135.887 142.533 135.887C140.119 135.887 137.563 135.61 135.149 135.055C134.013 134.778 133.019 134.501 132.025 134.224C125.777 132.283 120.239 128.264 116.546 123.136C113.564 118.84 111.86 113.712 111.718 108.307V108.169L112.428 108.307L120.239 109.416L121.091 109.554C121.375 111.495 122.085 113.158 122.937 114.821C123.221 115.514 123.647 116.068 124.073 116.761C125.351 118.563 126.913 120.087 128.759 121.473C129.895 122.305 131.031 122.859 132.167 123.414C133.161 123.829 134.297 124.245 135.433 124.522C137.137 124.938 138.983 125.215 140.829 125.215C141.397 125.215 141.965 125.215 142.533 125.215C144.947 125.077 147.219 124.522 149.491 123.552C150.059 123.275 150.627 122.998 151.195 122.721C153.183 121.612 155.029 120.365 156.591 118.84C157.727 117.731 158.721 116.484 159.573 115.098C160.709 113.296 161.703 111.356 162.413 109.139C162.697 108.307 162.839 107.614 163.123 106.783C163.691 104.427 163.975 101.932 163.833 99.5759C163.833 99.0215 163.833 98.4672 163.691 97.7742C163.549 95.8339 163.123 94.0323 162.413 92.2306C161.703 90.2903 160.851 88.4886 159.715 86.8255C158.437 85.0238 157.017 83.3608 155.455 81.9748C154.461 81.1433 153.467 80.3117 152.615 79.7574C151.337 78.9258 150.059 78.2329 148.639 77.5399C146.793 76.7084 144.805 76.0154 142.675 75.4611C142.533 75.4611 142.391 75.3225 142.107 75.3225H141.965C139.835 74.9067 137.563 74.6295 135.291 74.6295C135.149 74.6295 135.007 74.6295 134.865 74.6295C132.593 74.6295 130.179 74.9067 127.907 75.4611C127.765 75.4611 127.481 75.5997 127.339 75.5997C125.351 76.154 123.221 76.9856 121.375 77.9557C119.529 78.9258 117.682 80.1732 115.978 81.5591C114.274 82.945 112.57 84.6081 111.15 86.5483C110.298 87.6571 109.588 88.7658 108.878 89.8745C108.594 90.4289 108.168 91.1219 107.884 91.8148L107.032 91.6762L93.826 89.7359L93.116 89.5974V89.4588C96.382 81.1433 100.5 75.4611 107.316 70.056C114.842 64.0966 122.653 61.8791 126.629 61.1862C129.185 60.7704 131.883 60.4932 134.581 60.4932V61.1862V60.4932C139.977 60.4932 145.373 61.4634 150.343 63.4036C158.721 66.5912 164.117 71.7191 166.531 74.3523C169.514 77.6785 171.928 81.4205 173.632 85.4396C175.052 88.9044 175.904 92.5078 176.33 96.1111C176.614 97.6356 176.756 98.883 176.756 99.9917Z" fill="#FF5E0E"/>
<path d="M102.541 106.707C102.541 106.846 102.541 106.986 102.401 106.986V107.126C101.701 109.22 100.861 111.174 99.881 112.989C98.761 115.223 97.361 117.318 95.8209 119.133C94.7009 120.668 93.3009 122.065 91.9009 123.461C90.2208 124.997 88.4008 126.532 86.1607 128.068C85.1807 128.766 84.0607 129.464 83.0806 130.023C81.8206 130.721 80.4206 131.559 79.0206 132.117C77.3405 132.815 75.8005 133.513 74.2605 133.932C72.5804 134.491 70.9004 134.909 69.3604 135.189C66.8403 135.608 64.3203 135.887 61.6602 135.887H61.5202C59.1402 135.887 56.7601 135.747 54.3801 135.328C53.12 135.049 51.72 134.77 50.46 134.491C48.92 134.072 47.5199 133.653 46.1199 133.094C43.8798 132.257 41.7798 131.14 39.6798 130.023C37.8597 128.906 36.0397 127.649 34.3597 126.253C32.6796 124.857 31.2796 123.461 29.8795 122.065C28.1995 120.25 26.7995 118.155 25.5395 116.061C24.4194 114.106 23.2994 112.012 22.4594 109.778C21.6194 107.684 21.0594 105.59 20.6393 103.635C20.2193 101.401 20.0793 99.0277 20.0793 96.6542C20.0793 96.375 20.0793 96.2354 20.0793 95.9561C20.0793 94.6996 20.2194 93.5826 20.3594 92.3261C20.6394 89.9526 21.0594 87.7187 21.7594 85.4848C22.4594 83.1113 23.4394 80.7378 24.6995 78.6435C25.1195 77.9454 25.5395 77.2473 25.9595 76.5493C26.2395 75.9908 26.6595 75.5719 27.0795 75.0135C27.7795 74.0361 28.6195 73.0588 29.3195 72.2211C30.5796 70.6853 32.1196 69.2891 33.7997 67.893C34.7797 67.0553 35.8997 66.2176 37.0197 65.5195C38.2797 64.6818 39.6798 63.9837 41.0798 63.2856C43.1798 62.3083 45.4199 61.6102 47.6599 61.1913C47.7999 61.1913 47.9399 61.1913 48.0799 61.0517H48.2199C50.18 60.6328 52.14 60.4932 53.9601 60.4932H54.24C55.9201 60.4932 57.6001 60.6328 59.2802 60.9121C61.6602 61.3309 64.0403 62.029 66.4203 62.8667C67.9603 63.4252 69.5004 64.2629 70.7604 64.961C72.8605 66.2176 74.8205 67.7533 76.5005 69.4288C77.4806 70.4061 78.3206 71.3834 79.0206 72.3607C80.1406 73.8965 81.1206 75.5719 81.9606 77.2473C82.5207 78.5039 82.9407 79.6208 83.3607 80.8774C84.0607 83.1113 84.3407 85.4848 84.4807 88.1375V88.2771L83.7807 88.1375L75.9405 87.0206L75.1005 86.881C74.9605 86.1829 74.8205 85.6244 74.6805 84.9263C73.2804 80.1793 70.3404 77.387 69.3604 76.4096C68.1004 75.1531 65.1603 72.9192 60.9602 71.8023C59.2802 71.3834 57.4601 71.1042 55.6401 71.1042C51.02 71.1042 46.5399 72.64 42.7598 75.4323C42.3398 75.7116 41.9198 75.9908 41.6398 76.27C37.5797 79.6208 34.4996 84.9263 33.3796 90.9299C32.5396 95.1184 32.8196 99.5862 34.0796 103.635C36.3197 110.616 40.9398 114.386 42.4798 115.642C47.3799 119.831 54.2401 122.204 61.1002 122.204H61.2402C63.9002 122.204 66.5603 121.785 69.0804 121.227C75.2405 119.551 80.9806 115.642 84.9007 110.616C86.1607 108.941 87.2808 107.126 88.2608 104.892L89.1008 105.031L102.121 106.986L102.541 106.707Z" fill="#FF5E0E"/>
<path d="M80.1578 103.322L80.0172 103.602C79.7357 104.163 79.3135 104.584 78.8914 105.145C77.3435 107.109 75.6549 108.932 73.6848 110.334L73.5441 110.474C71.574 111.877 69.3224 112.999 66.9302 113.7C65.6637 114.121 64.2565 114.401 62.8493 114.541C62.4272 114.541 62.005 114.682 61.5829 114.682C61.1607 114.682 60.7386 114.682 60.1757 114.682C58.6278 114.682 56.9391 114.541 55.3912 114.121C53.8433 113.7 52.1546 113.139 50.7474 112.438C49.1995 111.736 47.7923 110.755 46.5259 109.773C44.9779 108.511 43.5708 107.109 42.445 105.706C41.0378 103.743 39.912 101.639 39.3491 99.3953C39.2084 98.6941 38.927 97.9929 38.927 97.2917V97.0112L39.7713 97.1514L45.5408 97.9929L46.3851 98.1331C46.6666 98.6941 46.948 99.3953 47.2295 99.9562C48.9181 102.901 51.1696 104.444 52.4361 105.145C54.9691 106.548 57.502 106.828 59.0499 106.828C60.0349 106.828 60.7385 106.688 61.1607 106.688C64.9601 106.127 67.3524 104.304 68.4781 103.462C69.1817 102.901 69.7446 102.34 70.4482 101.779L71.2925 101.92L79.4543 103.182L80.1578 103.322Z" fill="#FF5E0E"/>
<path d="M157.912 99.3674L157.064 99.2261L151.134 98.3779L150.287 98.2365C150.145 97.6711 149.863 97.247 149.581 96.6815C148.592 94.8438 147.18 93.2888 145.768 92.1579C145.486 92.0166 145.345 91.8752 145.062 91.5925C143.227 90.4616 141.109 89.7548 138.991 89.472C138.708 89.472 138.426 89.472 138.143 89.472C138.002 89.472 137.861 89.472 137.72 89.472C135.743 89.472 133.907 89.8961 132.072 90.6029C130.095 91.4511 128.259 92.7234 126.565 94.4197L126.424 94.5611L125.576 94.4197L117.528 93.1475L116.681 93.0061L116.822 92.7234C117.951 90.8857 119.363 89.1893 120.917 87.7757C123.035 85.7966 125.576 84.2416 128.118 83.2521C130.801 82.2625 133.625 81.6971 136.449 81.6971C137.578 81.6971 138.567 81.8384 139.697 81.9798C146.333 82.9693 152.405 87.0689 155.652 92.7234C156.782 94.7025 157.629 96.9643 157.912 99.2261V99.3674Z" fill="#FF5E0E"/>
</svg>
