<svg width="126" height="143" viewBox="0 0 126 143" fill="none" xmlns="http://www.w3.org/2000/svg">
<g clip-path="url(#clip0_2293_14119)">
<path d="M60.7022 75.9598L12.8601 101.149L11.8767 102.696V103.942C11.8767 104.564 12.2354 105.127 12.8601 105.488L75.9125 141.893C76.3675 142.155 76.9504 142.299 77.554 142.299C78.1575 142.299 78.7404 142.155 79.1954 141.893L125.97 114.888V113.642L60.7022 75.9598Z" fill="#2E3039"/>
<path d="M77.554 141.054C76.9504 141.054 76.3675 140.909 75.9125 140.647L12.8601 104.242C12.2354 103.882 11.8767 103.318 11.8767 102.696C11.8767 102.074 12.2354 101.511 12.8601 101.149L58.5971 74.7437L125.97 113.643L79.1954 140.647C78.7404 140.909 78.1575 141.054 77.554 141.054Z" fill="#FF5E0E"/>
<path d="M58.5965 71.0889L13.379 97.1949L12.9143 97.8436V102.696C12.9143 102.93 13.0693 103.165 13.379 103.344L76.4317 139.748C77.0511 140.107 78.0567 140.107 78.6768 139.748L123.895 113.643V108.789L58.5965 71.0889Z" fill="#D3D4DA"/>
<path d="M123.897 108.791L123.332 109.118L115.974 113.365L114.605 114.158L78.6792 134.896C78.0567 135.254 77.0507 135.254 76.4335 134.896L13.3772 98.4898C12.7603 98.1315 12.7603 97.5508 13.3772 97.1928L13.979 96.8455L58.5965 71.0885L123.338 108.465L123.472 108.548L123.897 108.791Z" fill="#F0F0F0"/>
<path d="M77.5537 135.166V140.018C77.1492 140.018 76.7397 139.93 76.4339 139.748L13.3772 103.342C13.0715 103.166 12.9158 102.933 12.9158 102.694V97.8411C12.9158 98.0745 13.0711 98.3083 13.3772 98.4898L76.4339 134.896C76.7397 135.077 77.1492 135.166 77.5537 135.166Z" fill="#D3D4DA"/>
<path d="M123.897 108.143L115.756 112.842L114.48 113.578L78.6792 134.248C78.0566 134.606 77.0506 134.606 76.4335 134.248L19.9679 101.647C19.4599 101.368 18.9881 101.093 18.547 100.828C16.2497 99.4285 14.8657 98.1783 13.9789 96.8455C13.9424 96.7886 13.9059 96.7367 13.8694 96.6794C13.7971 96.5709 13.7505 96.4567 13.7294 96.3421C13.6263 95.8449 13.9578 95.368 14.5181 95.2016C15.6121 94.8751 17.2661 94.294 18.7754 93.428C18.7958 93.418 18.8116 93.4076 18.8323 93.3972L58.5957 70.4405L123.897 108.143Z" fill="white"/>
<path opacity="0.1" d="M115.47 107.574C114.893 107.909 114.893 108.454 115.469 108.789C116.045 109.125 116.984 109.125 117.565 108.789C118.147 108.454 118.147 107.909 117.565 107.573C116.984 107.238 116.045 107.238 115.47 107.574Z" fill="black"/>
<path d="M122.207 103.642C121.409 103.181 120.408 103.253 119.385 103.839C117.805 104.757 116.436 106.8 115.839 108.942C116.078 109.02 116.347 109.051 116.612 109.035C117.162 107.127 118.375 105.328 119.775 104.513C120.231 104.254 120.667 104.119 121.061 104.119C121.336 104.119 121.59 104.186 121.818 104.316C122.492 104.705 122.881 105.653 122.881 106.913C122.881 107.121 122.871 107.329 122.845 107.536L123.582 107.961C123.633 107.609 123.66 107.256 123.66 106.914C123.659 105.369 123.13 104.176 122.207 103.642Z" fill="#2E3039"/>
<path d="M123.509 108.366C123.504 108.423 123.487 108.485 123.472 108.548L123.337 108.465L123.509 108.366Z" fill="#2E3039"/>
<path opacity="0.1" d="M109.151 103.925C108.576 104.26 108.576 104.805 109.151 105.14C109.727 105.477 110.666 105.476 111.248 105.14C111.83 104.804 111.83 104.26 111.248 103.924C110.666 103.588 109.727 103.588 109.151 103.925Z" fill="black"/>
<path d="M115.889 99.9927C115.09 99.5312 114.089 99.6035 113.067 100.19C111.487 101.107 110.117 103.151 109.521 105.292C109.759 105.37 110.029 105.401 110.294 105.386C110.843 103.477 112.057 101.678 113.457 100.864C113.913 100.605 114.349 100.47 114.743 100.47C115.017 100.47 115.272 100.538 115.5 100.667C116.174 101.055 116.563 102.005 116.563 103.264C116.563 103.472 116.553 103.68 116.527 103.887L117.263 104.313C117.315 103.96 117.341 103.607 117.341 103.265C117.341 101.719 116.812 100.527 115.889 99.9927Z" fill="#2E3039"/>
<path opacity="0.1" d="M102.831 100.275C102.255 100.611 102.255 101.155 102.831 101.491C103.407 101.827 104.346 101.827 104.928 101.491C105.51 101.155 105.51 100.611 104.928 100.275C104.346 99.9397 103.407 99.9397 102.831 100.275Z" fill="black"/>
<path d="M109.569 96.3435C108.77 95.8821 107.769 95.9551 106.748 96.5404C105.166 97.4583 103.797 99.5018 103.201 101.643C103.439 101.721 103.71 101.752 103.973 101.737C104.523 99.8283 105.736 98.029 107.136 97.2145C107.593 96.9557 108.029 96.8207 108.423 96.8207C108.698 96.8207 108.952 96.8884 109.18 97.0176C109.854 97.4068 110.244 98.3558 110.244 99.6157C110.244 99.8233 110.233 100.031 110.207 100.238L110.943 100.664C110.995 100.311 111.021 99.9583 111.021 99.6157C111.02 98.0705 110.491 96.8777 109.569 96.3435Z" fill="#2E3039"/>
<path opacity="0.1" d="M96.5124 96.6274C95.936 96.9636 95.936 97.5081 96.5124 97.8443C97.0884 98.1801 98.0267 98.1801 98.6088 97.8443C99.1906 97.5081 99.1906 96.964 98.6092 96.6274C98.0267 96.292 97.0884 96.292 96.5124 96.6274Z" fill="black"/>
<path d="M103.249 92.6963C102.451 92.2348 101.45 92.3078 100.429 92.8935C98.8472 93.8111 97.4783 95.8542 96.8818 97.9961C97.1203 98.0734 97.3895 98.1049 97.654 98.0895C98.2039 96.1807 99.4172 94.3817 100.817 93.5673C101.274 93.3085 101.709 93.1735 102.104 93.1735C102.379 93.1735 102.633 93.2412 102.861 93.3704C103.535 93.7592 103.924 94.7082 103.924 95.9684C103.924 96.1757 103.914 96.3833 103.888 96.5906L104.625 97.0155C104.676 96.6629 104.702 96.3106 104.702 95.9684C104.701 94.4229 104.172 93.2304 103.249 92.6963Z" fill="#2E3039"/>
<path opacity="0.1" d="M90.1929 92.9795C89.6169 93.3153 89.6165 93.8594 90.1929 94.1956C90.7689 94.5314 91.7076 94.5314 92.289 94.1956C92.8707 93.8594 92.8707 93.3149 92.2893 92.9795C91.7076 92.6436 90.7693 92.6436 90.1929 92.9795Z" fill="black"/>
<path d="M96.9304 89.0479C96.1317 88.5861 95.131 88.6587 94.1093 89.2448C92.5277 90.1631 91.1587 92.2058 90.5623 94.3474C90.8007 94.425 91.0706 94.4562 91.3352 94.4408C91.8847 92.5323 93.098 90.733 94.4981 89.9189C94.9546 89.6597 95.3899 89.5244 95.7837 89.5244C96.0586 89.5244 96.3132 89.592 96.5412 89.722C97.2153 90.1104 97.6045 91.0599 97.6045 92.32C97.6045 92.5269 97.5941 92.7349 97.568 92.9422L98.3044 93.3675C98.3563 93.0149 98.3821 92.6623 98.3821 92.32C98.3824 90.7745 97.8533 89.5817 96.9304 89.0479Z" fill="#2E3039"/>
<path opacity="0.1" d="M83.8725 89.3307C83.2961 89.6662 83.2961 90.2107 83.8725 90.5465C84.4481 90.8826 85.3872 90.8823 85.9686 90.5465C86.55 90.2103 86.55 89.6661 85.9689 89.33C85.3872 88.9945 84.4481 88.9945 83.8725 89.3307Z" fill="black"/>
<path d="M90.61 85.3988C89.8113 84.9377 88.8107 85.0104 87.789 85.5964C86.2074 86.5143 84.8384 88.5571 84.2419 90.699C84.4804 90.7767 84.7503 90.8078 85.0149 90.7924C85.5648 88.8843 86.7777 87.0846 88.1774 86.2709C88.6339 86.0117 89.0699 85.8764 89.4641 85.8764C89.7387 85.8764 89.9925 85.944 90.2205 86.0736C90.8947 86.462 91.2834 87.4115 91.2834 88.6716C91.2834 88.8786 91.2731 89.0865 91.2473 89.2942L91.9837 89.7195C92.0349 89.3665 92.061 89.0142 92.061 88.6716C92.0617 87.1258 91.5333 85.9326 90.61 85.3988Z" fill="#2E3039"/>
<path opacity="0.1" d="M77.5536 85.6819C76.9779 86.0181 76.9779 86.5626 77.5536 86.898C78.13 87.2339 79.0683 87.2339 79.6504 86.898C80.2318 86.5622 80.2318 86.0177 79.6504 85.6819C79.0683 85.3468 78.1296 85.3468 77.5536 85.6819Z" fill="black"/>
<path d="M84.2911 81.7507C83.4927 81.2893 82.4921 81.3616 81.47 81.9476C79.8884 82.8659 78.5198 84.909 77.9233 87.0506C78.1621 87.1283 78.431 87.1594 78.6959 87.1436C79.2458 85.2352 80.459 83.4358 81.8592 82.6217C82.3156 82.3622 82.7513 82.2276 83.1451 82.2276C83.4201 82.2276 83.6742 82.2949 83.9023 82.4245C84.5764 82.8136 84.9656 83.7623 84.9656 85.0229C84.9656 85.2301 84.9555 85.4371 84.9298 85.6451L85.6658 86.0704C85.7177 85.7181 85.7439 85.3647 85.7439 85.0232C85.7435 83.4774 85.214 82.2852 84.2911 81.7507Z" fill="#2E3039"/>
<path opacity="0.1" d="M71.2336 82.0339C70.6572 82.3697 70.6572 82.9142 71.2332 83.25C71.8096 83.5858 72.7487 83.5855 73.33 83.25C73.9114 82.9142 73.9114 82.3697 73.33 82.0332C72.7483 81.6977 71.8093 81.6977 71.2336 82.0339Z" fill="black"/>
<path d="M77.9713 78.1024C77.1726 77.6409 76.172 77.7132 75.1502 78.2993C73.5686 79.2172 72.1992 81.2603 71.6035 83.4022C71.8419 83.4795 72.1115 83.511 72.3757 83.4956C72.9256 81.5875 74.1389 79.7878 75.539 78.9734C75.9955 78.7142 76.4308 78.5796 76.825 78.5796C77.0995 78.5796 77.3541 78.6472 77.5821 78.7765C78.2562 79.1653 78.6454 80.1147 78.6454 81.3745C78.6454 81.5818 78.635 81.7894 78.6092 81.9967L79.346 82.422C79.3975 82.0694 79.4233 81.7167 79.4233 81.3741C79.423 79.829 78.8942 78.6365 77.9713 78.1024Z" fill="#2E3039"/>
<path opacity="0.1" d="M64.9152 78.3845C64.3389 78.7203 64.3389 79.2648 64.9149 79.6006C65.4909 79.9364 66.4299 79.9364 67.0113 79.6006C67.5927 79.2644 67.5934 78.7199 67.0113 78.3845C66.4299 78.0487 65.4913 78.0487 64.9152 78.3845Z" fill="black"/>
<path d="M71.6525 74.4533C70.8542 73.9919 69.8532 74.0642 68.8322 74.6502C67.2502 75.5685 65.8812 77.6109 65.2852 79.7528C65.5232 79.8305 65.7928 79.8616 66.0574 79.8455C66.6069 77.9377 67.8205 76.1377 69.2203 75.3236C69.6767 75.0644 70.1121 74.9302 70.5062 74.9302C70.7815 74.9302 71.0354 74.9971 71.263 75.1267C71.9372 75.5155 72.3263 76.4649 72.3263 77.7247C72.3263 77.9324 72.3163 78.1396 72.2901 78.3469L73.0265 78.7722C73.0785 78.4196 73.1042 78.067 73.1042 77.7247C73.1046 76.1799 72.5755 74.9871 71.6525 74.4533Z" fill="#2E3039"/>
<path opacity="0.1" d="M58.5944 74.7368C58.0183 75.0726 58.0183 75.6175 58.5944 75.9526C59.1707 76.2888 60.1094 76.2884 60.6912 75.9526C61.2729 75.6168 61.2729 75.0726 60.6912 74.7365C60.1094 74.401 59.1707 74.401 58.5944 74.7368Z" fill="black"/>
<path d="M65.3323 70.8049C64.5336 70.3431 63.533 70.4158 62.5117 71.0018C60.9304 71.9197 59.5614 73.9628 58.9646 76.1044C59.2034 76.1824 59.4722 76.2132 59.7372 76.1978C60.2863 74.2893 61.5003 72.49 62.9005 71.6759C63.3569 71.4164 63.7926 71.2818 64.1867 71.2818C64.4613 71.2818 64.7155 71.3491 64.9443 71.4787C65.618 71.8678 66.0068 72.8169 66.0068 74.077C66.0068 74.2847 65.9964 74.4916 65.9703 74.6989L66.7067 75.1245C66.7583 74.7719 66.7844 74.4193 66.7844 74.077C66.7844 72.5315 66.2553 71.339 65.3323 70.8049Z" fill="#2E3039"/>
<path d="M77.1158 131.907C76.8223 131.907 76.5151 131.835 76.2709 131.694L72.4382 129.48C72.17 129.326 72.0161 129.107 72.0161 128.879C72.0161 128.677 72.1321 128.499 72.343 128.378L108.613 107.445C109.012 107.214 109.679 107.239 110.131 107.5L113.964 109.713C114.232 109.867 114.386 110.086 114.386 110.314C114.386 110.516 114.27 110.694 114.059 110.815L77.7896 131.748C77.6059 131.855 77.3653 131.907 77.1158 131.907ZM109.283 107.678C109.103 107.678 108.932 107.713 108.808 107.784L72.5384 128.717C72.4897 128.745 72.4078 128.804 72.4078 128.879C72.4078 128.943 72.4672 129.045 72.6337 129.141L76.4668 131.355C76.7983 131.545 77.3134 131.57 77.5934 131.409L113.863 110.476C113.912 110.448 113.993 110.389 113.993 110.314C113.993 110.25 113.934 110.148 113.768 110.052L109.935 107.839C109.751 107.733 109.509 107.678 109.283 107.678Z" fill="#D3D4DA"/>
<path d="M111.888 108.629L74.395 130.276L74.5908 130.616L112.083 108.969L111.888 108.629Z" fill="#D3D4DA"/>
<path d="M68.9633 127.2C68.6698 127.2 68.363 127.128 68.1188 126.987L18.2251 98.1805C17.9569 98.0258 17.803 97.8067 17.803 97.579C17.803 97.3771 17.919 97.1992 18.1298 97.0778L54.3992 76.1448C54.7983 75.9139 55.4653 75.9383 55.9175 76.1996L105.811 105.006C106.079 105.16 106.233 105.38 106.233 105.607C106.233 105.809 106.117 105.987 105.906 106.108L69.6371 127.042C69.4534 127.148 69.2132 127.2 68.9633 127.2ZM55.0697 76.3779C54.8893 76.3779 54.7189 76.4126 54.595 76.4842L18.3253 97.4172C18.2763 97.4455 18.1946 97.5042 18.1946 97.5794C18.1946 97.6431 18.2541 97.7455 18.4205 97.8414L68.3143 126.648C68.6458 126.839 69.1613 126.865 69.4409 126.703L105.711 105.77C105.759 105.741 105.841 105.683 105.841 105.608C105.841 105.544 105.782 105.442 105.615 105.345L55.7216 76.5394C55.5376 76.433 55.296 76.3779 55.0697 76.3779Z" fill="#D3D4DA"/>
<path d="M103.738 103.915L66.2454 125.562L66.4412 125.902L103.934 104.254L103.738 103.915Z" fill="#D3D4DA"/>
<path d="M101.169 102.433L63.6765 124.08L63.8723 124.419L101.365 102.772L101.169 102.433Z" fill="#D3D4DA"/>
<path d="M98.6157 100.957L61.1184 122.604L61.3142 122.943L98.8115 101.296L98.6157 100.957Z" fill="#D3D4DA"/>
<path d="M96.032 99.4664L58.5391 121.114L58.7349 121.453L96.2278 99.8056L96.032 99.4664Z" fill="#D3D4DA"/>
<path d="M93.4677 97.996L55.9705 119.639L56.1663 119.978L93.6635 98.3352L93.4677 97.996Z" fill="#D3D4DA"/>
<path d="M90.8943 96.5002L53.4014 118.147L53.5972 118.487L91.0901 96.8394L90.8943 96.5002Z" fill="#D3D4DA"/>
<path d="M88.3225 95.0238L50.8298 116.671L51.0257 117.01L88.5183 95.363L88.3225 95.0238Z" fill="#D3D4DA"/>
<path d="M85.7564 93.534L48.2634 115.181L48.4593 115.52L85.9522 93.8732L85.7564 93.534Z" fill="#D3D4DA"/>
<path d="M83.1882 92.0512L45.6953 113.698L45.8911 114.038L83.3841 92.3903L83.1882 92.0512Z" fill="#D3D4DA"/>
<path d="M80.6164 90.5744L43.1238 112.221L43.3196 112.561L80.8122 90.9135L80.6164 90.5744Z" fill="#D3D4DA"/>
<path d="M78.0538 89.0969L40.5569 110.74L40.7527 111.079L78.2496 89.4362L78.0538 89.0969Z" fill="#D3D4DA"/>
<path d="M75.4814 87.6019L37.9885 109.249L38.1844 109.588L75.6773 87.9411L75.4814 87.6019Z" fill="#D3D4DA"/>
<path d="M72.9124 86.1189L35.4194 107.766L35.6153 108.105L73.1082 86.4581L72.9124 86.1189Z" fill="#D3D4DA"/>
<path d="M70.341 84.6414L32.8484 106.288L33.0442 106.628L70.5368 84.9806L70.341 84.6414Z" fill="#D3D4DA"/>
<path d="M67.7751 83.1526L30.2822 104.8L30.4781 105.139L67.971 83.4917L67.7751 83.1526Z" fill="#D3D4DA"/>
<path d="M65.2065 81.6698L27.7136 103.317L27.9094 103.656L65.4024 82.009L65.2065 81.6698Z" fill="#D3D4DA"/>
<path d="M62.6375 80.1868L25.1445 101.834L25.3404 102.173L62.8333 80.526L62.6375 80.1868Z" fill="#D3D4DA"/>
<path d="M60.0714 78.7144L22.5745 100.357L22.7702 100.696L60.2672 79.0536L60.0714 78.7144Z" fill="#D3D4DA"/>
<path d="M57.5 77.2205L20.0071 98.8677L20.2029 99.2069L57.6958 77.5597L57.5 77.2205Z" fill="#D3D4DA"/>
<path d="M104.523 106.878C104.489 106.878 104.456 106.869 104.425 106.851L53.1139 77.2264C53.0201 77.1727 52.9879 77.0527 53.0423 76.9589C53.096 76.8651 53.216 76.8333 53.3098 76.8873L104.621 106.512C104.715 106.566 104.747 106.686 104.693 106.78C104.657 106.842 104.591 106.878 104.523 106.878Z" fill="#FF5E0E"/>
<path d="M79.7132 67.4172C78.3277 66.4373 78.4537 65.0676 79.9949 64.3577C81.5361 63.6478 83.9086 63.8662 85.2944 64.846C86.6798 65.8259 86.5538 67.1956 85.0126 67.9055C83.4714 68.6154 81.0986 68.3967 79.7132 67.4172Z" fill="#2E3039"/>
<path d="M85.9806 67.1658L85.3727 67.11C85.2628 66.8146 85.029 66.5236 84.6646 66.2658C83.5376 65.4693 81.6084 65.2913 80.355 65.8688C79.9494 66.0557 79.6662 66.2991 79.5044 66.5694L78.8972 66.5136L79.4926 67.6821L79.4947 67.6824C79.6225 67.9187 79.8312 68.1489 80.1259 68.3573C81.2525 69.1538 83.1821 69.3317 84.4355 68.7543C84.763 68.6032 85.0101 68.4153 85.179 68.2062H85.1812L85.9806 67.1658Z" fill="#2E3039"/>
<path d="M78.5354 66.3135C76.4905 64.8596 76.6824 62.8348 78.9639 61.7905C81.2454 60.7466 84.7528 61.0788 86.798 62.5326C88.8429 63.9865 88.651 66.0113 86.3695 67.0556C84.088 68.0999 80.5803 67.7673 78.5354 66.3135Z" fill="#606370"/>
<path d="M78.4591 65.567C76.3383 64.0591 76.537 61.9587 78.9038 60.8758C81.2702 59.7932 84.9078 60.1376 87.0289 61.6458C89.1497 63.1537 88.951 65.2541 86.5843 66.3367C84.2179 67.4197 80.5803 67.0749 78.4591 65.567Z" fill="#444651"/>
<path d="M78.4339 64.7404C76.2594 63.1942 76.4631 61.0409 78.8896 59.9307C81.3161 58.8205 85.0458 59.1739 87.2203 60.7201C89.3951 62.2663 89.191 64.4197 86.7645 65.5298C84.3387 66.64 80.6087 66.2866 78.4339 64.7404Z" fill="#606370"/>
<path d="M78.4086 63.9138C76.1804 62.3296 76.3891 60.1229 78.8754 58.9856C81.3617 57.8478 85.1834 58.2101 87.4119 59.7943C89.6401 61.3784 89.431 63.5851 86.9451 64.7225C84.4584 65.8602 80.6368 65.4979 78.4086 63.9138Z" fill="#444651"/>
<path d="M78.3834 63.0871C76.1015 61.4647 76.3156 59.205 78.8617 58.0401C81.4078 56.8751 85.3214 57.246 87.6037 58.8685C89.8856 60.4909 89.6715 62.7506 87.1254 63.9156C84.5793 65.0801 80.6653 64.7096 78.3834 63.0871Z" fill="#606370"/>
<path d="M78.3579 62.2605C76.0223 60.5998 76.2414 58.2871 78.8473 57.0946C81.4531 55.9021 85.4591 56.2819 87.7947 57.9424C90.1303 59.6028 89.9112 61.9158 87.3054 63.1083C84.6995 64.3004 80.6935 63.921 78.3579 62.2605Z" fill="#444651"/>
<path d="M90.0054 57.4587C90.0963 56.4813 89.5421 55.4428 88.3206 54.5746C85.8762 52.8369 81.684 52.4395 78.9572 53.6871C77.5935 54.3111 76.855 55.228 76.763 56.206C76.7272 56.5851 76.5854 58.0769 76.5496 58.4571C76.4576 59.4352 77.0125 60.4741 78.2358 61.3426C80.6824 63.0793 84.8745 63.4767 87.5993 62.2297C88.9629 61.6057 89.7011 60.6882 89.792 59.7094C89.8271 59.331 89.9699 57.8396 90.0054 57.4587Z" fill="#FF5E0E"/>
<path d="M87.6688 11.6315C76.6714 10.5893 66.912 18.6601 65.8699 29.6571C64.372 45.4646 77.1658 49.3249 76.5623 55.6966C76.466 56.7115 77.0405 57.7902 78.3086 58.6916C80.8446 60.4949 85.1943 60.9069 88.024 59.6121C89.4388 58.9648 90.2056 58.0132 90.3019 56.9983H90.3023C90.9059 50.627 104.197 49.2383 105.695 33.4304C106.737 22.4334 98.6662 12.6736 87.6688 11.6315Z" fill="#FF5E0E"/>
<path opacity="0.9" d="M87.6688 11.6315C76.6714 10.5893 66.912 18.6601 65.8699 29.6571C64.372 45.4646 77.1658 49.3249 76.5623 55.6966C76.466 56.7115 77.0405 57.7902 78.3086 58.6916C80.8446 60.4949 85.1943 60.9069 88.024 59.6121C89.4388 58.9648 90.2056 58.0132 90.3019 56.9983H90.3023C90.9059 50.627 104.197 49.2383 105.695 33.4304C106.737 22.4334 98.6662 12.6736 87.6688 11.6315Z" fill="white"/>
<path d="M79.1437 58.343C77.0229 56.8351 77.2216 54.7347 79.5883 53.6517C81.9547 52.5691 85.5924 52.9135 87.7135 54.4218C89.8343 55.9297 89.6352 58.0301 87.2689 59.1127C84.9025 60.1956 81.2649 59.8509 79.1437 58.343Z" fill="#FF5E0E"/>
<path opacity="0.55" d="M79.1437 58.343C77.0229 56.8351 77.2216 54.7347 79.5883 53.6517C81.9547 52.5691 85.5924 52.9135 87.7135 54.4218C89.8343 55.9297 89.6352 58.0301 87.2689 59.1127C84.9025 60.1956 81.2649 59.8509 79.1437 58.343Z" fill="white"/>
<path opacity="0.25" d="M88.3086 58.4629C88.0297 58.7042 87.6828 58.925 87.2694 59.1137C84.9019 60.1952 81.2639 59.8505 79.1442 58.344C78.7733 58.0809 78.4744 57.7988 78.2456 57.5095C78.5248 57.2661 78.8714 57.0473 79.2849 56.8587C81.6523 55.7746 85.2903 56.1194 87.4097 57.6284C87.7806 57.8915 88.0824 58.1715 88.3086 58.4629Z" fill="#FF5E0E"/>
<path d="M88.3086 58.4629C88.0297 58.7042 87.6828 58.925 87.2694 59.1137C84.9019 60.1952 81.2639 59.8505 79.1442 58.344C78.7733 58.0809 78.4744 57.7988 78.2456 57.5095C78.5248 57.2661 78.8714 57.0473 79.2849 56.8587C81.6523 55.7746 85.2903 56.1194 87.4097 57.6284C87.7806 57.8915 88.0824 58.1715 88.3086 58.4629Z" fill="#FF5E0E"/>
<path opacity="0.35" d="M88.3086 58.4629C88.0297 58.7042 87.6828 58.925 87.2694 59.1137C84.9019 60.1952 81.2639 59.8505 79.1442 58.344C78.7733 58.0809 78.4744 57.7988 78.2456 57.5095C78.5248 57.2661 78.8714 57.0473 79.2849 56.8587C81.6523 55.7746 85.2903 56.1194 87.4097 57.6284C87.7806 57.8915 88.0824 58.1715 88.3086 58.4629Z" fill="white"/>
<path opacity="0.35" d="M102.33 23.5869C101.27 21.5799 99.4652 19.8504 97.0387 20.6298C96.7885 20.7103 96.5418 20.8253 96.3012 20.9796C95.4503 21.5252 95.025 22.5924 95.0762 23.6016C95.1757 25.5544 96.9159 26.9306 97.8485 28.5301C98.8681 30.28 99.5805 32.21 99.9296 34.2052C100.034 34.8005 100.149 35.7821 100.397 36.3328C100.788 37.198 101.759 37.4196 102.317 37.1876C103.129 36.8493 103.621 35.9189 103.801 35.1714C104.874 30.7261 104.272 27.2685 102.33 23.5869ZM101.308 38.3991C100.56 38.2531 99.8526 38.785 99.5916 39.3779C99.3328 39.9661 99.3732 40.6033 99.6306 41.1811C99.9113 41.8116 100.747 42.0482 101.34 41.745C101.951 41.4328 102.395 40.7974 102.45 40.1104C102.509 39.3797 102.11 38.5556 101.308 38.3991Z" fill="white"/>
<path d="M85.5648 58.5893L85.3339 58.5674C86.0055 51.4805 86.8389 47.0789 88.1213 43.849C88.4947 42.9092 88.9028 42.1163 89.3274 41.4547C87.7583 40.8024 86.129 39.5562 85.1287 38.411C83.9312 39.3478 82.0968 40.2661 80.4336 40.6119C80.7264 41.3412 80.9781 42.1968 81.1686 43.1903C81.8215 46.6034 81.8137 51.0834 81.1421 58.1701L80.9115 58.1482C81.581 51.0842 81.5896 46.6242 80.9409 43.2336C80.75 42.2362 80.4934 41.3816 80.1962 40.6574C79.9664 40.6982 79.7401 40.7269 79.5207 40.7426C77.1697 40.9098 75.883 40.114 75.4635 39.3135C75.1706 38.7543 75.2451 38.1321 75.6675 37.6062C76.0423 37.1397 76.6424 36.9682 77.309 37.134C78.2999 37.3806 79.4802 38.3734 80.3434 40.3946C81.9834 40.0656 83.8016 39.1595 84.9805 38.2359C84.7353 37.9388 84.5359 37.6509 84.3948 37.3849C83.4655 35.6347 83.6649 34.2163 84.1614 33.472C84.5137 32.9443 85.0622 32.6747 85.6672 32.732C86.2718 32.7893 86.7601 33.1573 87.0068 33.7416C87.3548 34.5653 87.2843 35.9963 86.0427 37.541C85.8541 37.7759 85.6042 38.0211 85.3077 38.2667C86.2919 39.3951 87.9075 40.6263 89.457 41.2578C90.6845 39.4345 92.0303 38.6813 93.0499 38.625C93.7376 38.5875 94.2928 38.8685 94.5731 39.3969C94.8893 39.9926 94.8456 40.618 94.4529 41.1121C93.8904 41.8195 92.4781 42.3597 90.1995 41.754C89.9868 41.6974 89.7702 41.6265 89.5518 41.5435C89.124 42.199 88.7116 42.9901 88.3368 43.9338C87.0634 47.1429 86.2343 51.5256 85.5648 58.5893ZM89.6843 41.3469C89.8783 41.4185 90.0702 41.4805 90.2592 41.5306C92.4312 42.1077 93.7548 41.6186 94.2717 40.9685C94.6093 40.5436 94.6437 40.0241 94.3687 39.5061C94.1328 39.0607 93.6556 38.8241 93.0627 38.857C92.1506 38.9071 90.8686 39.6203 89.6843 41.3469ZM76.9803 37.3119C76.5163 37.2679 76.1132 37.4218 75.8483 37.7515C75.4806 38.2087 75.4173 38.7253 75.669 39.2061C76.0538 39.9414 77.2653 40.6707 79.5046 40.5117C79.6997 40.4977 79.9002 40.473 80.1039 40.4394C79.2647 38.5212 78.1395 37.58 77.2531 37.3595C77.1604 37.3359 77.0691 37.3201 76.9803 37.3119ZM85.6453 32.9633C85.1205 32.9135 84.6623 33.1401 84.3544 33.6012C83.7769 34.4662 83.8736 35.9089 84.6 37.2768C84.7353 37.5317 84.9258 37.8074 85.1595 38.092C85.4427 37.8561 85.6819 37.6212 85.8623 37.3964C86.8328 36.1892 87.1983 34.7905 86.7938 33.8325C86.5776 33.322 86.1698 33.013 85.6453 32.9633Z" fill="#606370"/>
<path d="M87.5506 7.17475C87.2187 7.15148 86.9685 6.864 86.9917 6.53178L87.4095 0.560338C87.4328 0.228472 87.7203 -0.0217701 88.0525 0.00149994C88.3843 0.0247699 88.6346 0.312244 88.6113 0.644468L88.1935 6.61591C88.1703 6.94777 87.8828 7.19802 87.5506 7.17475Z" fill="#F0F0F0"/>
<path d="M99.9366 11.4843C99.8342 11.4772 99.7329 11.4442 99.6423 11.383C99.3666 11.1969 99.2936 10.8224 99.4798 10.5467L102.827 5.5845C103.014 5.30884 103.389 5.23652 103.663 5.42197C103.939 5.60848 104.012 5.98259 103.826 6.25825L100.479 11.2205C100.353 11.4052 100.144 11.499 99.9366 11.4843Z" fill="#F0F0F0"/>
<path d="M108.509 21.4103C108.301 21.3956 108.107 21.2739 108.009 21.0734C107.863 20.7745 107.987 20.414 108.286 20.2679L113.667 17.6441C113.966 17.4988 114.326 17.6226 114.472 17.9216C114.618 18.2205 114.494 18.581 114.195 18.7271L108.814 21.3508C108.716 21.3988 108.611 21.4174 108.509 21.4103Z" fill="#F0F0F0"/>
<path d="M116.94 34.7092L110.969 34.2914C110.637 34.2682 110.387 33.9807 110.41 33.6485C110.433 33.3166 110.721 33.0664 111.053 33.0896L117.024 33.5074C117.356 33.5307 117.606 33.8182 117.583 34.1504C117.56 34.4826 117.272 34.7325 116.94 34.7092Z" fill="#F0F0F0"/>
<path d="M111.621 50.0245C111.519 50.0173 111.417 49.9844 111.327 49.9232L106.364 46.5759C106.089 46.3897 106.016 46.0152 106.202 45.7396C106.389 45.4639 106.764 45.3916 107.038 45.5771L112 48.9244C112.276 49.1105 112.349 49.485 112.163 49.7606C112.038 49.9457 111.828 50.0392 111.621 50.0245Z" fill="#F0F0F0"/>
<path d="M57.5144 46.0987C57.3071 46.0844 57.1127 45.9623 57.0146 45.7618C56.8689 45.4629 56.9931 45.1024 57.2921 44.9563L62.6725 42.3325C62.971 42.1872 63.3319 42.311 63.478 42.61C63.6237 42.9089 63.4994 43.2694 63.2005 43.4155L57.8201 46.0396C57.7217 46.0872 57.6168 46.1058 57.5144 46.0987Z" fill="#F0F0F0"/>
<path d="M60.4339 30.593L54.4624 30.1752C54.1306 30.1519 53.8803 29.8644 53.9036 29.5322C53.9269 29.2003 54.2143 28.9501 54.5466 28.9734L60.5176 29.3911C60.8495 29.4144 61.0998 29.7019 61.0765 30.0341C61.0532 30.366 60.7657 30.6162 60.4339 30.593Z" fill="#F0F0F0"/>
<path d="M64.7431 18.2065C64.6407 18.1993 64.5394 18.1664 64.4488 18.1052L59.4865 14.7579C59.2109 14.5717 59.1379 14.1973 59.324 13.9216C59.5105 13.6459 59.8857 13.5736 60.1603 13.7591L65.1225 17.1064C65.3982 17.2925 65.4709 17.667 65.2851 17.9426C65.1601 18.1274 64.9503 18.2212 64.7431 18.2065Z" fill="#F0F0F0"/>
<path d="M74.6698 9.63527C74.4625 9.62095 74.2681 9.49888 74.17 9.2984L71.5459 3.91801C71.4002 3.61908 71.5244 3.25858 71.8233 3.11251C72.1223 2.96752 72.4828 3.09103 72.6288 3.38996L75.2526 8.77035C75.3983 9.06928 75.2741 9.42978 74.9752 9.57585C74.8767 9.62418 74.7718 9.64243 74.6698 9.63527Z" fill="#F0F0F0"/>
<path d="M12.0392 117.882C12.3005 116.771 11.1957 116.068 10.6745 115.429C9.86862 114.439 9.61873 112.138 9.62768 110.962C9.63878 109.496 9.46228 108.45 10.3752 107.125C11.4556 105.556 12.9596 103.718 17.9927 99.2208L11.7929 92.993C10.4951 95.0272 7.22371 102.154 7.22371 102.154L7.00748 102.595C6.39208 103.332 5.99434 103.833 5.05316 104.465C5.0485 104.468 4.71377 104.638 4.70912 104.641C4.11806 105.044 2.61518 105.473 2.64095 106.877C2.66673 108.283 3.21518 108.63 3.85028 109.78C4.25517 110.514 4.55088 110.886 4.5806 112.289C4.60458 113.42 4.55661 114.681 4.5448 115.693C4.53477 116.544 5.32201 117.782 6.96094 118.336C9.34844 119.142 11.7818 118.976 12.0392 117.882Z" fill="#FFBDA7"/>
<path d="M1.79107 106.917C1.37723 107.43 0.288906 109.169 0 109.999L1.6468 112.305L3.02868 109.978C3.02868 109.978 2.02843 108.524 1.79107 106.917Z" fill="#2E3039"/>
<path d="M1.64648 112.305L3.90689 112.15C3.90689 112.15 4.10201 111.382 3.68386 110.755C3.26572 110.128 3.02836 109.978 3.02836 109.978L1.64648 112.305Z" fill="black"/>
<path d="M2.24472 106.396C2.24472 106.396 1.91393 106.639 1.80796 106.866C1.70163 107.096 1.82371 108.541 2.29341 109.242C2.76346 109.943 3.52886 110.685 3.71789 111.683C3.90691 112.68 3.51025 114.981 3.90799 116.374C4.30573 117.767 5.65037 119.361 8.58239 119.736C10.6781 120.005 11.4689 119.608 12.1696 119.171C12.423 118.267 12.3983 118.031 11.2531 117.268C10.1078 116.505 2.24472 106.396 2.24472 106.396Z" fill="#2E3039"/>
<path d="M6.14828 102.715C5.20853 103.833 4.87165 104.263 4.00673 104.764C2.96029 105.371 2.74334 105.616 2.24465 106.396C2.03343 107.604 2.27687 108.104 3.38667 109.648C4.14599 110.705 4.39551 111.4 4.37403 112.853C4.34825 114.611 3.74932 116.214 5.8916 118.014C7.56023 119.415 11.2097 119.508 12.2006 118.534C13.048 116.135 10.7912 116.261 10.2796 113.718C9.99606 112.31 9.97279 110.185 10.4142 108.778C10.5664 108.292 10.8961 107.372 11.1535 106.935C11.5043 106.339 11.8169 105.903 11.534 105.589L10.9995 106.243C10.469 106.36 9.18412 106.082 8.33817 105.402C6.29614 103.759 7.00748 102.595 7.00748 102.595L7.22371 102.153C7.01643 101.905 6.68134 102.081 6.14828 102.715Z" fill="#444651"/>
<path d="M28.8387 46.7022C29.3538 50.1669 31.0239 54.5134 31.9515 62.7177C32.8214 70.4118 33.2074 74.4247 32.6567 78.2506C32.4606 79.6139 31.7582 81.2109 30.4178 83.2286C26.2192 89.5491 17.9555 99.4958 17.9555 99.4958C17.9555 99.4958 16.0813 99.465 13.8116 97.6574C11.6185 95.9107 11.5222 93.3256 11.5222 93.3256C11.5222 93.3256 11.7427 91.8825 15.2078 86.0586C18.6729 80.2346 19.1154 73.9331 19.1154 73.9331L16.8575 49.2243C22.2364 49.7015 26.3309 48.717 28.8387 46.7022Z" fill="#2E3039"/>
<path d="M13.8116 97.6571C11.6185 95.9104 11.5222 93.3253 11.5222 93.3253C11.5222 93.3253 11.7427 91.8822 15.2078 86.0582C18.6729 80.2343 19.115 73.9328 19.115 73.9328L17.3866 55.0171C21.596 54.3674 27.4693 54.4204 27.4693 54.4204C27.5803 57.1268 26.9807 60.4791 23.0813 62.4961C23.0813 62.4961 23.8005 75.8012 23.8915 79.6937C23.9609 82.6633 23.0956 90.2236 22.6811 93.6446C20.0584 96.9636 17.9555 99.4951 17.9555 99.4951C17.9555 99.4951 16.0813 99.4646 13.8116 97.6571Z" fill="black"/>
<path d="M20.9413 111.889L20.9671 111.291L21.5542 99.1439L13.0059 101.278L14.9058 111.017L14.9702 111.524C14.9702 111.524 15.0611 113.999 18.8796 114.14C20.8353 114.213 20.9413 111.889 20.9413 111.889Z" fill="#FFBDA7"/>
<path d="M16.3223 122.967L19.2894 121.867L19.3857 119.049L16.3659 120.187L16.3223 122.967Z" fill="black"/>
<path d="M13.4365 116.646C13.3147 117.683 14.1668 121.662 14.1668 121.662L16.3223 122.967L16.366 120.187C16.366 120.187 16.9656 120.698 17.5979 122.168C18.1957 123.558 19.017 124.893 20.4264 125.595C21.8359 126.298 24.2731 126.586 26.3427 126.316C27.8159 126.123 28.7223 125.494 28.9672 125.12C29.0807 124.947 29.0542 124.533 29.0542 124.533L13.4365 116.646Z" fill="#2E3039"/>
<path d="M20.9669 111.291C21.374 111.26 21.3424 111.648 21.8429 113.978C22.2174 115.721 23.0344 118.725 26.2048 120.705C27.5104 121.52 29.318 122.037 29.0538 124.533C28.1484 125.745 24.9908 126.065 23.0991 125.731C19.2796 125.058 18.7108 123.55 17.7567 121.304C16.9917 119.503 16.3183 119.311 15.298 118.59C14.6239 118.113 13.7049 117.425 13.4364 116.646C13.3884 114.935 14.0342 113.818 14.2655 112.953C14.4828 112.142 14.3582 111.143 14.9052 111.017L14.9697 111.524C14.9697 111.524 15.4809 112.896 18.1383 112.948C20.7958 113 20.9408 111.89 20.9408 111.89L20.9669 111.291Z" fill="#444651"/>
<path d="M28.8387 46.7022C28.8387 46.7022 29.5225 51.1769 28.0644 55.2563C26.7978 58.7997 24.3659 60.7963 21.8055 61.6279C21.8055 61.6279 22.655 77.5418 22.8834 79.7563C23.1118 81.9709 22.5798 89.9976 22.099 95.2817C21.6179 100.565 21.4736 102.374 21.4736 102.374C21.4736 102.374 20.3452 103.565 17.1837 103.626C14.0225 103.686 13.0198 102.382 13.0198 102.382C13.0198 102.382 11.0221 96.2755 10.938 91.4826C10.8897 88.735 11.4933 87.3706 10.9699 84.6484C10.4465 81.9262 6.5858 69.8022 5.93281 64.0548C5.27982 58.3071 6.25859 53.2568 10.3495 47.3742C14.7493 50.2435 24.8338 49.5218 28.8387 46.7022Z" fill="#2E3039"/>
<path d="M12.152 48.261C9.93558 51.3183 6.74294 57.6237 9.00872 66.655C9.65312 69.2229 10.2957 71.7014 10.9176 74.0982C12.3732 79.7113 13.5231 84.1447 13.6785 85.837C13.7644 86.7732 13.6595 87.6624 13.5385 88.6917C13.3484 90.3052 13.1118 92.3136 13.5378 95.406C13.9355 98.2968 14.5112 101.335 14.9275 103.391C14.794 103.357 14.668 103.321 14.5506 103.282C14.1364 101.226 13.5804 98.2685 13.1927 95.4518C12.7616 92.3182 13.0008 90.2873 13.193 88.6552C13.3119 87.6442 13.415 86.7703 13.3323 85.8689C13.1794 84.2027 12.0324 79.7807 10.5807 74.1823C9.95885 71.7848 9.31552 69.3056 8.67112 66.7366C6.38887 57.6398 9.57257 51.2617 11.8212 48.1321C11.9296 48.1754 12.0399 48.2191 12.152 48.261Z" fill="black"/>
<path d="M42.9794 43.502C44.2825 44.3104 45.3257 44.2223 46.36 44.4625C47.6724 44.7672 48.7081 45.412 50.4888 46.2339C50.7938 46.3746 51.0971 46.5192 51.4003 46.6646C51.5474 46.7351 51.6924 46.8117 51.846 46.8622C51.992 46.9102 52.1138 46.956 52.1077 47.1504C52.1034 47.2875 52.0225 47.4114 51.9262 47.5095C51.6076 47.8349 51.121 47.9444 50.666 47.9215C50.211 47.899 49.771 47.7615 49.3264 47.6616C48.9856 47.585 49.147 47.9491 49.2487 48.1095C49.7474 48.8974 52.2502 49.5107 53.0693 49.9206C53.4405 50.1064 53.932 50.1043 54.0029 50.5951C54.0266 50.759 54.0194 50.9295 54.0745 51.0852C54.1329 51.2499 54.2553 51.3827 54.3545 51.5266C54.5023 51.741 54.6033 51.9992 54.579 52.2587C54.5546 52.5179 54.3828 52.7724 54.1315 52.8412C53.9328 52.8956 53.7087 52.834 53.5221 52.9217C53.4348 52.9625 53.365 53.0327 53.2848 53.086C52.9261 53.3255 52.4517 53.2006 52.0207 53.1838C51.648 53.1695 51.2993 53.289 50.9317 53.2933C50.5371 53.298 50.1594 53.3087 49.7664 53.2497C48.9877 53.1322 47.8632 52.8351 47.1329 52.5487C46.0679 52.1309 44.9677 51.2774 44.1576 50.4594C43.6861 49.9833 43.2998 49.4155 41.692 48.7174C40.0839 48.0193 33.8833 45.6203 31.6952 44.0448C30.9019 43.4734 30.5042 42.8587 27.9731 40.2557C24.2141 36.39 23.0366 34.7876 23.0366 34.7876L20.3237 25.7739C23.4476 25.8702 24.8045 25.6081 27.1533 28.1438C30.4415 31.693 35.3801 37.7994 35.3801 37.7994C35.3801 37.7994 41.8743 42.8168 42.9794 43.502Z" fill="#FFBDA7"/>
<path d="M48.2757 47.8707C47.0721 48.731 45.1654 48.2566 44.3735 47.7923C44.3735 47.7923 45.4171 48.7671 46.4288 48.7668C47.5375 48.7664 47.9489 48.3805 48.2757 47.8707Z" fill="#F0997A"/>
<path d="M58.8977 96.7964L70.3512 108.627C70.6841 108.971 71.2637 108.697 71.209 108.221L69.3055 91.769L58.8977 96.7964Z" fill="#FFA8A7"/>
<path d="M71.2088 108.221C71.264 108.697 70.6844 108.971 70.3511 108.627L68.115 106.317C69.1528 106.373 70.1348 105.843 70.6589 104.946L70.8014 104.702L71.2088 108.221Z" fill="#606370"/>
<path d="M36.7899 23.0033L37.4408 24.3812L38.2334 26.0409L69.3063 91.7669C68.7944 93.5501 67.4576 94.9609 65.8746 95.9082C63.4684 97.3592 60.4849 97.7483 58.9046 96.7921L27.8503 31.1013L26.3474 27.9229C27.4347 29.9274 37.8528 25.0281 36.7899 23.0033Z" fill="#606370"/>
<path d="M39.2876 28.2408L40.7375 31.32C41.1875 32.1989 39.5557 33.6685 37.4546 34.9022C34.6679 36.5479 30.8635 37.3698 30.2649 36.2063L29.192 33.9384L28.8225 33.1207C29.4207 34.2839 33.227 33.4641 36.0137 31.8187C38.0256 30.6341 39.6101 29.2228 39.3244 28.3407L39.3205 28.3314C39.318 28.2996 39.3058 28.2716 39.2876 28.2408Z" fill="#D3D4DA"/>
<path d="M39.6423 29.0123C40.6913 31.0508 30.2251 35.9335 29.1762 33.8947L27.7148 30.817C28.7638 32.8554 39.2285 27.9734 38.1795 25.9349L39.6423 29.0123Z" fill="#FF5E0E"/>
<path d="M36.7898 23.0033L38.2333 26.0413C39.2779 28.0353 29.2185 32.8318 27.8502 31.102C27.8223 31.0751 27.7997 31.035 27.7775 30.9949L26.3477 27.9236C27.4345 29.9274 37.8527 25.0281 36.7898 23.0033Z" fill="#D3D4DA"/>
<path opacity="0.1" d="M27.8503 31.102L26.3474 27.9236C26.8386 28.829 29.298 28.5204 31.7045 27.4948L64.3924 96.6639L70.3513 108.627L58.8978 96.7964L58.905 96.7928H58.9046L27.8503 31.102Z" fill="black"/>
<path d="M20.1218 14.7653C20.1021 14.7317 20.0777 14.7013 20.0613 14.6658C19.433 13.3276 21.2634 11.1442 24.1496 9.78879C27.0319 8.43555 29.8762 8.42015 30.5102 9.75227C30.5113 9.7537 30.5127 9.75442 30.5134 9.75585L36.7913 23.0036C37.2445 23.8707 35.6375 25.3339 33.56 26.5697C30.7791 28.224 26.9681 29.0714 26.3484 27.9226C26.3406 27.9222 26.3406 27.9222 26.3363 27.9129L20.2059 14.9712C20.178 14.9114 20.1547 14.8538 20.1296 14.7926C20.1264 14.7832 20.125 14.7743 20.1218 14.7653Z" fill="#F28F8F"/>
<path opacity="0.1" d="M23.5377 10.0988L31.7065 27.4955C29.3162 28.4918 26.8381 28.8294 26.3487 27.9226C26.3408 27.9222 26.3408 27.9222 26.3365 27.9129L20.2062 14.9712C20.1782 14.9114 20.155 14.8538 20.1299 14.7926C20.1267 14.7836 20.1253 14.7743 20.122 14.7653C20.1023 14.7317 20.078 14.7013 20.0615 14.6658C19.4787 13.425 21.0113 11.4589 23.5377 10.0988Z" fill="black"/>
<path d="M20.0613 14.6658C20.6895 16.004 23.5389 15.9901 26.4254 14.6347C29.312 13.2793 31.1424 11.0959 30.5141 9.75766C29.8858 8.41945 27.0365 8.43342 24.15 9.7888C21.2634 11.1438 19.433 13.3276 20.0613 14.6658Z" fill="#FFA8A7"/>
<path d="M6.15381 39.7345C6.15381 39.7345 7.83963 38.9215 8.29715 35.2559C8.50479 33.5926 7.92949 31.4231 7.22351 28.9186L12.0096 26.8357C12.0096 26.8357 13.5909 26.399 17.0839 25.7596L20.3242 25.7735C20.3242 25.7735 26.1588 28.2369 28.5295 31.3465C29.8244 33.0449 31.1648 36.6632 28.8886 39.4141C29.0658 41.8775 29.0987 46.8973 29.0987 46.8973C29.0987 46.8973 27.7598 49.3239 21.3244 50.0581C12.0952 51.1114 9.52295 47.7483 9.52295 47.7483C9.34216 45.1059 7.12649 42.2738 6.15381 39.7345Z" fill="#FF5E0E"/>
<path opacity="0.2" d="M6.15381 39.7345C6.15381 39.7345 7.83963 38.9215 8.29715 35.2559C8.50479 33.5926 7.92949 31.4231 7.22351 28.9186L12.0096 26.8357C12.0096 26.8357 13.5909 26.399 17.0839 25.7596L20.3242 25.7735C20.3242 25.7735 26.1588 28.2369 28.5295 31.3465C29.8244 33.0449 31.1648 36.6632 28.8886 39.4141C29.0658 41.8775 29.0987 46.8973 29.0987 46.8973C29.0987 46.8973 27.7598 49.3239 21.3244 50.0581C12.0952 51.1114 9.52295 47.7483 9.52295 47.7483C9.34216 45.1059 7.12649 42.2738 6.15381 39.7345Z" fill="white"/>
<path d="M22.0359 40.2715C22.0359 40.2715 20.7037 42.5269 17.1312 42.4424C13.5591 42.3579 12.4966 39.8229 12.4966 39.8229C12.4966 39.8229 12.7722 43.24 17.0407 43.3255C21.244 43.41 22.0359 40.2715 22.0359 40.2715Z" fill="#FF5E0E"/>
<path d="M8.98693 8.43629C9.46092 7.83557 10.2263 7.3741 10.9695 7.19152C11.7124 7.00894 12.1685 7.0179 12.8766 6.72792C13.5504 6.45226 14.1303 5.98328 14.8008 5.70046C16.279 5.07718 18.0615 5.46489 19.3324 6.44402C19.8938 6.87649 20.4197 7.43711 21.1203 7.54237C21.4664 7.59428 21.8184 7.52625 22.1685 7.52697C23.2765 7.52948 24.2993 8.24548 24.8861 9.18523C25.3468 9.92271 25.5698 10.7815 25.659 11.64C25.7481 12.4964 25.4503 13.2944 25.5025 14.1464C25.5408 14.7704 25.9304 15.3213 26.3123 15.7928C26.8264 16.4279 27.2489 16.9155 27.5013 17.721C27.6956 18.3414 27.8159 19.0037 27.6888 19.6413C27.5618 20.2789 27.1493 20.8875 26.5386 21.1102C26.7688 20.5055 26.67 19.787 26.2851 19.2669C26.4276 19.8393 26.2669 20.4572 25.9533 20.957C25.6393 21.4568 25.1843 21.852 24.7067 22.1982C23.627 22.9808 22.3246 23.5553 20.9735 23.5568C19.5587 23.5586 18.1234 23.0753 16.7201 23.444C16.3306 23.5464 15.9618 23.7132 15.5859 23.8571C14.9419 24.1034 14.2728 24.2832 13.5922 24.3931C12.9392 24.4987 12.2777 24.4511 11.6329 24.5434C10.5782 24.6945 9.46915 24.4475 8.59921 23.8253C7.5023 23.0409 6.72508 21.4535 6.76482 20.1057C6.57293 20.3248 6.42186 20.6713 6.33057 21.1657C5.70765 20.4218 5.47351 19.3693 5.72232 18.4317C5.91851 17.6924 6.39214 17.0269 6.44835 16.264C6.49704 15.6042 6.22531 14.9651 6.15335 14.3075C5.98545 12.7738 7.06446 11.199 8.55518 10.8016C8.34109 9.76626 8.68442 8.81935 8.98693 8.43629Z" fill="#2E3039"/>
<path d="M9.00413 16.7297C9.90701 16.3502 10.6921 16.6653 11.2133 17.6079C11.6666 18.4277 12.5544 18.1037 12.2984 16.8128C14.2879 14.7886 11.857 13.6205 13.4884 11.673C14.5059 10.4583 16.7717 10.6981 17.6989 11.4059C18.0716 10.6462 19.1556 9.96244 20.2206 10.2968C21.1811 10.5982 21.8019 11.1442 22.301 12.4437C22.8208 13.797 22.3393 14.0719 22.6024 15.031C22.7044 15.4022 23.1047 16.1283 23.1523 17.0827C23.3785 21.6114 22.476 22.786 21.5019 23.5639C20.8321 24.0988 19.9643 24.3984 18.4732 24.4632L18.6114 26.4365C18.6114 26.4365 20.5464 28.5817 20.8675 31.7159C16.5547 30.6126 14.314 29.1559 11.7915 27.2567L11.3608 20.6903C11.1675 21.2137 10.1336 21.8151 9.04637 20.9853C7.67094 19.9345 7.41103 17.3992 9.00413 16.7297Z" fill="#FFBDA7"/>
<path d="M21.8242 14.4965L20.3528 13.9534C20.4885 13.5381 20.9281 13.3233 21.3344 13.4733C21.7408 13.6233 21.9598 14.0816 21.8242 14.4965Z" fill="#2E3039"/>
<path d="M16.0757 14.1295L14.7261 14.9279C14.4898 14.5606 14.6004 14.0841 14.9731 13.8635C15.3458 13.643 15.8395 13.7622 16.0757 14.1295Z" fill="#2E3039"/>
<path d="M16.8762 19.5246L19.07 20.2044C18.9035 20.8223 18.2151 21.1642 17.5277 20.9233C16.9292 20.7139 16.7097 20.1421 16.8762 19.5246Z" fill="#B16668"/>
<path d="M18.1586 20.9817C18.082 20.3734 17.5618 19.908 16.9357 19.9231C16.8977 19.9238 16.8619 19.9328 16.8247 19.937C16.8326 20.3842 17.066 20.7619 17.5275 20.9233C17.7441 20.9992 17.9585 21.0118 18.1586 20.9817Z" fill="#F28F8F"/>
<path d="M18.2141 14.8774L18.692 18.9249L20.9088 18.0897L18.2141 14.8774Z" fill="#F0997A"/>
<path d="M15.9025 16.7512C16.2653 16.7512 16.5595 16.4571 16.5595 16.0942C16.5595 15.7314 16.2653 15.4373 15.9025 15.4373C15.5397 15.4373 15.2456 15.7314 15.2456 16.0942C15.2456 16.4571 15.5397 16.7512 15.9025 16.7512Z" fill="#2E3039"/>
<path d="M21.0065 16.4644C21.3694 16.4644 21.6635 16.1703 21.6635 15.8075C21.6635 15.4447 21.3694 15.1506 21.0065 15.1506C20.6437 15.1506 20.3496 15.4447 20.3496 15.8075C20.3496 16.1703 20.6437 16.4644 21.0065 16.4644Z" fill="#2E3039"/>
<path d="M18.473 24.4629C17.0159 24.4239 14.5457 24.4242 13.2966 22.8315C13.2966 22.8315 13.4831 23.7974 14.9893 24.5051C16.0479 25.0028 18.5148 25.147 18.5148 25.147L18.473 24.4629Z" fill="#F0997A"/>
<path d="M39.8699 46.6714C39.7421 46.9209 39.4367 47.0144 39.3304 47.2639C39.2827 47.3853 39.3099 47.5213 39.3157 47.6577C39.3372 48.0232 39.1832 48.3905 38.9194 48.6347C38.8327 48.7163 38.7389 48.7797 38.6806 48.872C38.6187 48.9716 38.5961 49.0861 38.5735 49.2003C38.4504 49.704 38.1239 50.1411 37.7373 50.4881C37.5711 50.633 37.3943 50.7748 37.2103 50.9055C36.7452 51.2409 36.2233 51.5152 35.6916 51.6888C34.6284 52.04 32.8259 52.2047 31.7053 52.2186C30.2909 52.2333 28.9591 51.8728 26.7169 51.9902C23.4359 52.1653 16.6106 52.2985 14.3735 52.2548C12.1327 52.2075 11.1715 52.0264 9.79929 49.2343C8.70095 47.0036 8.34939 46.3238 6.13695 41.2789C3.23106 34.6269 3.23751 30.7422 7.2224 28.92C9.35716 29.5533 10.8386 32.142 11.9283 34.9097C13.1964 38.1052 16.1345 45.0762 16.1345 45.0762C16.1345 45.0762 26.2455 46.1215 28.0039 46.0385C29.6554 45.9583 31.1622 45.2498 32.6998 44.7139C33.1559 44.5535 33.5948 44.3612 34.0441 44.1973L34.7172 45.6289C34.608 45.7997 34.449 45.9486 34.2936 46.0864C34.095 46.2601 33.6224 46.6206 33.9457 46.8848C34.2331 47.1203 34.7963 47.0115 35.2993 46.8551C35.6261 46.7545 35.9243 46.6356 36.1148 46.573C36.9049 46.3195 37.6778 46.0012 38.4991 45.8663C38.89 45.7986 39.3629 45.7782 39.6969 46.0284C39.939 46.2031 39.9977 46.4079 39.8699 46.6714Z" fill="#FFBDA7"/>
<path d="M34.7174 45.6289C34.6043 45.8766 34.3999 46.0714 34.2209 46.2651C34.0383 46.4416 33.8776 46.6965 34.0175 46.7602C34.3848 46.9975 34.9809 46.7645 35.3958 46.6331C36.4075 46.3095 37.4257 45.9178 38.4993 45.867C37.4805 46.1956 36.5178 46.6403 35.5022 46.9746C35.1159 47.1021 34.6848 47.2245 34.2595 47.1683C33.9137 47.1411 33.5285 46.7895 33.7959 46.4351C34.0548 46.0929 34.4486 45.9536 34.7174 45.6289Z" fill="#F0997A"/>
<path d="M16.1348 45.0761C19.1251 45.2355 22.2519 45.5233 25.2351 45.7306C25.9916 45.7882 26.7502 45.8509 27.5031 45.8756C29.0135 45.9411 30.4641 45.4087 31.8789 44.919L34.0444 44.1969C31.9333 45.0393 29.8311 46.2314 27.4959 46.2013C23.6886 46.0567 19.9041 45.6092 16.1348 45.0761Z" fill="#F0997A"/>
<path d="M67.5414 109.567C64.5471 107.936 60.9599 107.625 57.5947 108.175C54.2295 108.725 51.0494 110.085 48.0164 111.644C46.8425 112.247 45.5169 112.9 44.261 112.494C42.969 112.076 42.2401 110.59 42.3557 109.237C42.471 107.884 43.2618 106.674 44.2005 105.693C47.6409 102.097 53.298 100.78 58.0222 102.345C62.1903 103.726 65.2595 106.454 67.5414 109.567Z" fill="#FF5E0E"/>
<path opacity="0.6" d="M67.5414 109.567C64.5471 107.936 60.9599 107.625 57.5947 108.175C54.2295 108.725 51.0494 110.085 48.0164 111.644C46.8425 112.247 45.5169 112.9 44.261 112.494C42.969 112.076 42.2401 110.59 42.3557 109.237C42.471 107.884 43.2618 106.674 44.2005 105.693C47.6409 102.097 53.298 100.78 58.0222 102.345C62.1903 103.726 65.2595 106.454 67.5414 109.567Z" fill="white"/>
<path d="M47.9831 99.5612C48.6322 99.4352 49.297 99.3812 49.9575 99.4205C50.2582 99.4384 50.5464 99.5029 50.8446 99.5451C51.165 99.5906 51.4819 99.659 51.7922 99.7503C51.7085 99.5967 51.5155 99.4048 51.3906 99.2824C50.8607 98.7636 50.4712 98.4851 49.9084 98.1808C49.3288 97.8675 48.7267 97.5955 48.1088 97.3663C46.8726 96.9081 45.5723 96.6213 44.2574 96.5197C42.9503 96.4187 41.6283 96.5021 40.347 96.7817C38.6515 97.1519 36.9145 97.9442 36.0624 99.4556C35.6647 100.161 35.4989 101.061 35.8781 101.777C36.172 102.331 36.7544 102.693 37.3659 102.833C37.9774 102.973 38.6178 102.916 39.234 102.796C40.7644 102.5 42.1957 101.837 43.6091 101.179C45.0221 100.522 46.4527 99.8587 47.9831 99.5612Z" fill="#FF5E0E"/>
<path opacity="0.35" d="M47.9831 99.5612C48.6322 99.4352 49.297 99.3812 49.9575 99.4205C50.2582 99.4384 50.5464 99.5029 50.8446 99.5451C51.165 99.5906 51.4819 99.659 51.7922 99.7503C51.7085 99.5967 51.5155 99.4048 51.3906 99.2824C50.8607 98.7636 50.4712 98.4851 49.9084 98.1808C49.3288 97.8675 48.7267 97.5955 48.1088 97.3663C46.8726 96.9081 45.5723 96.6213 44.2574 96.5197C42.9503 96.4187 41.6283 96.5021 40.347 96.7817C38.6515 97.1519 36.9145 97.9442 36.0624 99.4556C35.6647 100.161 35.4989 101.061 35.8781 101.777C36.172 102.331 36.7544 102.693 37.3659 102.833C37.9774 102.973 38.6178 102.916 39.234 102.796C40.7644 102.5 42.1957 101.837 43.6091 101.179C45.0221 100.522 46.4527 99.8587 47.9831 99.5612Z" fill="white"/>
<path d="M46.9307 93.428C49.5935 95.9018 52.6239 97.4072 55.9605 98.6928C54.0463 96.6586 52.8105 94.1738 51.8381 91.5822C50.8594 88.9727 50.5683 86.1961 50.0915 83.4785C49.8212 81.938 49.3192 80.3839 48.2753 79.2197C47.2317 78.0552 45.5517 77.3635 44.0591 77.831C42.7517 78.2406 41.8116 79.4653 41.4611 80.7899C41.1107 82.1145 41.2746 83.525 41.6126 84.8525C42.4628 88.1887 44.4093 91.0853 46.9307 93.428Z" fill="#FF5E0E"/>
<g opacity="0.2">
<path d="M46.9307 93.428C49.5935 95.9018 52.6239 97.4072 55.9605 98.6928C54.0463 96.6586 52.8105 94.1738 51.8381 91.5822C50.8594 88.9727 50.5683 86.1961 50.0915 83.4785C49.8212 81.938 49.3192 80.3839 48.2753 79.2197C47.2317 78.0552 45.5517 77.3635 44.0591 77.831C42.7517 78.2406 41.8116 79.4653 41.4611 80.7899C41.1107 82.1145 41.2746 83.525 41.6126 84.8525C42.4628 88.1887 44.4093 91.0853 46.9307 93.428Z" fill="white"/>
</g>
<path d="M43.8274 76.9207C42.4051 77.4562 41.2623 78.6838 40.8302 80.1409C40.7533 80.4008 40.6437 80.719 40.3752 80.7581C40.0695 80.8024 39.8719 80.4373 39.8307 80.1308C39.5074 77.7301 42.0822 76.9579 43.8274 76.9207Z" fill="#FF5E0E"/>
<path d="M80.6244 97.6661C77.4296 99.9991 74.306 103.238 73.2038 107.152C72.0947 100.796 74.1134 93.771 77.6516 88.4869C81.0611 83.3947 87.3909 78.6817 93.8224 81.3015C95.4635 81.9699 96.8446 83.4631 97.0057 85.2277C97.1479 86.7861 96.3359 88.3108 95.2039 89.3912C94.0719 90.4717 92.6449 91.1812 91.2351 91.8604C87.5968 93.6121 83.8854 95.2846 80.6244 97.6661Z" fill="#FF5E0E"/>
<path opacity="0.35" d="M80.6244 97.6661C77.4296 99.9991 74.306 103.238 73.2038 107.152C72.0947 100.796 74.1134 93.771 77.6516 88.4869C81.0611 83.3947 87.3909 78.6817 93.8224 81.3015C95.4635 81.9699 96.8446 83.4631 97.0057 85.2277C97.1479 86.7861 96.3359 88.3108 95.2039 89.3912C94.0719 90.4717 92.6449 91.1812 91.2351 91.8604C87.5968 93.6121 83.8854 95.2846 80.6244 97.6661Z" fill="white"/>
<path d="M68.4343 74.3069C68.5965 77.0001 69.8885 80.2178 70.6002 82.3046C71.6696 85.4396 72.6766 88.8134 71.8221 92.0136C74.0818 89.0962 76.2291 85.765 77.2282 82.1832C78.2782 78.4203 78.1612 74.134 75.2886 71.154C73.4177 69.2136 69.5291 69.0718 68.6355 72.0833C68.4383 72.7485 68.386 73.5046 68.4343 74.3069Z" fill="#FF5E0E"/>
<path opacity="0.6" d="M68.4343 74.3069C68.5965 77.0001 69.8885 80.2178 70.6002 82.3046C71.6696 85.4396 72.6766 88.8134 71.8221 92.0136C74.0818 89.0962 76.2291 85.765 77.2282 82.1832C78.2782 78.4203 78.1612 74.134 75.2886 71.154C73.4177 69.2136 69.5291 69.0718 68.6355 72.0833C68.4383 72.7485 68.386 73.5046 68.4343 74.3069Z" fill="white"/>
<path d="M92.0684 77.521C91.1111 77.3474 90.1165 77.4143 89.218 77.7888C88.1998 78.213 87.3313 78.9877 86.7939 79.9511C87.758 79.3973 89.2684 78.9222 91.7798 79.2788C94.1856 79.6203 95.6176 80.7559 96.1238 81.3738C96.0815 80.1745 95.1257 78.9057 94.0975 78.2871C93.4792 77.9155 92.7844 77.6509 92.0684 77.521Z" fill="#FF5E0E"/>
<path d="M110.725 84.7501L111.317 82.639C111.058 81.4279 115.999 84.2804 116.258 85.4915L114.666 89.7768C114.605 89.9164 114.51 90.0202 114.399 90.0886C114.049 90.3038 111.69 91.642 111.578 91.7103C111.225 91.9259 110.707 91.7909 110.56 91.3323L108.497 84.2593C108.37 83.6625 109.508 84.0545 110.725 84.7501Z" fill="#444651"/>
<path d="M105.082 55.3329L123.866 66.1688C124.217 66.3711 124.501 66.8637 124.501 67.2686V89.5262C124.501 89.9311 124.216 90.4208 123.863 90.6199L121.629 91.8886C121.277 92.0877 120.706 92.0848 120.356 91.8825L101.572 81.0466C101.221 80.844 100.937 80.3517 100.937 79.9468V57.6896C100.937 57.2847 101.223 56.795 101.576 56.5959L103.81 55.3268C104.161 55.1278 104.731 55.1303 105.082 55.3329Z" fill="#444651"/>
<path d="M101.571 57.3226L120.355 68.1586C120.706 68.3608 120.99 68.8534 120.99 69.2583V91.5159C120.99 91.9208 120.706 92.0851 120.355 91.8825L113.167 87.7358L111.846 91.3981C111.593 91.9799 110.754 91.9373 110.56 91.333L108.805 85.2194L101.571 81.0466C101.221 80.8443 100.936 80.3517 100.936 79.9468V57.6896C100.936 57.2843 101.221 57.12 101.571 57.3226Z" fill="#FAFAFA"/>
<path d="M101.287 57.5449C101.303 57.5449 101.345 57.5492 101.416 57.5904L120.201 68.4263C120.457 68.5742 120.681 68.963 120.681 69.2583V91.5159C120.681 91.6133 120.656 91.6541 120.639 91.6602C120.624 91.6602 120.581 91.6559 120.51 91.6147L113.321 87.468L113.001 87.2833L112.876 87.6309L111.559 91.2825C111.466 91.4862 111.274 91.5019 111.217 91.5019C111.082 91.5019 110.916 91.4328 110.857 91.2474L109.102 85.1338L109.068 85.0139L108.959 84.9516L101.726 80.7788C101.47 80.6309 101.245 80.2421 101.245 79.9468V57.6895C101.245 57.5922 101.271 57.5514 101.276 57.5467C101.277 57.546 101.281 57.5449 101.287 57.5449ZM101.287 57.236C101.079 57.236 100.936 57.4021 100.936 57.6892V79.9464C100.936 80.3513 101.221 80.8439 101.571 81.0462L108.805 85.219L110.56 91.3326C110.661 91.6487 110.939 91.8109 111.217 91.8109C111.471 91.8109 111.725 91.6752 111.846 91.3978L113.167 87.7354L120.355 91.8821C120.457 91.9408 120.554 91.9688 120.639 91.9688C120.847 91.9688 120.99 91.8027 120.99 91.5155V69.258C120.99 68.8531 120.706 68.3605 120.355 68.1582L101.571 57.3222C101.469 57.2639 101.373 57.236 101.287 57.236Z" fill="#444651"/>
<path d="M100.945 57.5739C100.995 57.2542 101.256 57.1397 101.572 57.3215L120.354 68.1582C120.53 68.261 120.689 68.4339 120.803 68.6333L124.303 66.6199C124.188 66.4291 124.035 66.2651 123.865 66.1681L105.081 55.3314C104.732 55.1292 104.163 55.1259 103.808 55.3253L101.576 56.5937C101.256 56.7763 100.989 57.1955 100.945 57.5739Z" fill="#606370"/>
<path d="M105.537 64.4075V69.8362L106.03 70.1115C106.03 70.1115 106.03 69.3225 106.03 68.3999C106.03 67.4773 106.781 67.1634 107.708 67.6982L110.011 69.0278V78.818C110.011 79.8881 109.357 80.3775 108.549 79.9114C107.741 79.4453 107.104 79.0772 107.104 79.0772V79.6654L114.94 84.1895V83.6013L113.495 82.7668C112.687 82.3007 112.033 81.0555 112.033 79.9855V70.1953L114.336 71.5249C115.262 72.0597 116.014 73.2415 116.014 74.1637V75.8753L116.507 76.1696V70.7409L105.537 64.4075Z" fill="#606370"/>
</g>
<defs>
<clipPath id="clip0_2293_14119">
<rect width="125.97" height="142.299" fill="white"/>
</clipPath>
</defs>
</svg>
