<svg width="76" height="76" viewBox="0 0 76 76" fill="none" xmlns="http://www.w3.org/2000/svg">
<mask id="mask0_2565_2412" style="mask-type:luminance" maskUnits="userSpaceOnUse" x="0" y="0" width="76" height="76">
<path d="M75.4929 38.341C75.4929 59.021 58.7269 75.787 38.0449 75.787C17.3629 75.787 0.596924 59.02 0.596924 38.341C0.596924 17.658 17.3629 0.890991 38.0449 0.890991C58.7269 0.890991 75.4929 17.658 75.4929 38.341Z" fill="white"/>
</mask>
<g mask="url(#mask0_2565_2412)">
<path d="M45.5399 50.1961C45.6229 50.2051 46.0479 50.298 46.3339 50.376C46.6519 50.46 46.9789 50.558 47.3049 50.668C47.9539 50.889 48.5969 51.146 49.2109 51.442C50.4449 52.032 51.5749 52.76 52.5399 53.608C54.4719 55.307 55.7359 57.4691 56.2869 60.0791C56.4279 60.7271 56.5249 61.405 56.5799 62.1L56.7619 64.699L57.1079 69.969L57.7609 80.5271L57.9179 83.068H66.5519L66.5419 80.093L66.1129 69.49L65.8789 64.182L65.7469 61.4931C65.6859 60.4251 65.5589 59.346 65.3519 58.266C64.5829 53.934 62.2429 49.6011 58.8949 46.5921C57.2399 45.0681 55.3949 43.83 53.4659 42.856C52.4989 42.366 51.5109 41.942 50.4949 41.574C49.9869 41.388 49.4709 41.221 48.9409 41.068C48.3759 40.908 47.9439 40.787 47.1579 40.637L46.9729 40.6011C46.8579 40.5801 46.7429 40.564 46.6269 40.553C43.9619 40.251 41.5599 42.167 41.2599 44.83C40.9599 47.493 42.8759 49.8961 45.5399 50.1961Z" fill="#FF5E0E"/>
<path d="M18.1728 83.066L18.3298 80.525L18.9818 69.967L19.3278 64.697L19.5098 62.098C19.5668 61.404 19.6628 60.726 19.8038 60.077C20.3548 57.468 21.6178 55.305 23.5508 53.606C24.5148 52.758 25.6438 52.03 26.8768 51.44C27.4938 51.143 28.1358 50.886 28.7858 50.666C29.1098 50.556 29.4378 50.458 29.7568 50.374C30.0408 50.296 30.4658 50.203 30.5498 50.194C33.2138 49.893 35.1298 47.491 34.8308 44.827C34.5298 42.164 32.1278 40.248 29.4638 40.55C29.3468 40.561 29.2308 40.577 29.1178 40.598L28.9318 40.634C28.1468 40.783 27.7148 40.905 27.1478 41.065C26.6178 41.218 26.1018 41.385 25.5938 41.571C24.5788 41.939 23.5908 42.363 22.6248 42.853C20.6938 43.828 18.8498 45.065 17.1938 46.589C13.8468 49.598 11.5068 53.931 10.7388 58.263C10.5308 59.343 10.4048 60.422 10.3428 61.49L10.2118 64.179L9.97784 69.487L9.54984 80.09L9.53784 83.065H18.1728V83.066Z" fill="#FF5E0E"/>
<path d="M56.0168 83.066V50.483C56.0168 45.173 47.6918 38.869 41.2078 38.869L38.4708 38.826V38.814L38.1678 38.819L37.8658 38.814V38.826L35.1268 38.869C28.6428 38.869 20.3188 45.173 20.3188 50.483V83.066H56.0168Z" fill="#FF5E0E"/>
<path d="M41.298 33.2479H34.792V39.9079C34.792 40.8539 35.194 41.9289 38.286 41.9289C40.239 41.9289 41.102 41.0229 41.299 40.2299V33.2479H41.298Z" fill="#F1A167"/>
<path d="M48.321 27.21C48.321 27.942 47.728 28.535 46.996 28.535C46.261 28.535 45.667 27.942 45.667 27.21C45.667 26.474 46.26 25.881 46.996 25.881C47.728 25.881 48.321 26.474 48.321 27.21Z" fill="#F1A167"/>
<path d="M30.8179 27.21C30.8179 27.942 30.2219 28.535 29.4899 28.535C28.7539 28.535 28.1609 27.942 28.1609 27.21C28.1609 26.474 28.7539 25.881 29.4899 25.881C30.2219 25.881 30.8179 26.474 30.8179 27.21Z" fill="#F1A167"/>
<path d="M46.813 28.315C46.813 33.249 42.579 36.629 38.238 36.629C29.49 36.629 29.669 23.653 29.669 23.653C29.669 18.946 33.507 15.132 38.238 15.132C42.978 15.132 46.813 18.946 46.813 23.653V28.315Z" fill="#F1A167"/>
<path d="M42.9208 26.0809C42.7498 26.0809 42.5968 26.146 42.4928 26.269C42.3998 26.372 42.3508 26.5139 42.3508 26.6629C42.3508 26.9509 42.5478 27.243 42.9208 27.243C43.0908 27.243 43.2438 27.1779 43.3488 27.0559C43.4378 26.9479 43.4908 26.8089 43.4908 26.6619C43.4918 26.3719 43.2948 26.0809 42.9208 26.0809Z" fill="#1F2028"/>
<path d="M33.2608 26.0809C33.0898 26.0809 32.9368 26.146 32.8328 26.269C32.7438 26.372 32.6938 26.5139 32.6938 26.6629C32.6938 26.9509 32.8878 27.243 33.2608 27.243C33.4348 27.243 33.5849 27.1779 33.6889 27.0559C33.7819 26.9479 33.8308 26.8089 33.8308 26.6619C33.8308 26.3719 33.6368 26.0809 33.2608 26.0809Z" fill="#1F2028"/>
<path d="M39.0488 30.118C38.9878 30.118 38.9298 30.114 38.8718 30.109C38.7698 30.099 38.6928 30.01 38.7038 29.909C38.7128 29.807 38.7928 29.723 38.9038 29.742C39.2768 29.774 39.5638 29.669 39.5948 29.582C39.6068 29.55 39.5688 29.421 39.2618 29.215C38.3328 28.581 38.2258 26.384 38.2208 26.289C38.2178 26.186 38.2958 26.1 38.3998 26.099C38.5068 26.089 38.5878 26.171 38.5908 26.275C38.6158 26.86 38.8248 28.468 39.4708 28.909C39.8758 29.181 40.0348 29.449 39.9428 29.707C39.8388 29.997 39.4418 30.118 39.0488 30.118Z" fill="#1F2028"/>
<path d="M45.0479 29.408C45.0479 30.129 44.1569 30.715 43.0569 30.715C41.9579 30.715 41.0659 30.129 41.0659 29.408C41.0659 28.69 41.9579 28.106 43.0569 28.106C44.1569 28.107 45.0479 28.69 45.0479 29.408Z" fill="#EB7F5D"/>
<path d="M35.4178 29.408C35.4178 30.129 34.5258 30.715 33.4258 30.715C32.3268 30.715 31.4358 30.129 31.4358 29.408C31.4358 28.69 32.3268 28.106 33.4258 28.106C34.5248 28.107 35.4178 28.69 35.4178 29.408Z" fill="#EB7F5D"/>
<path d="M34.9368 31.2469C34.9688 32.4479 36.2798 33.798 38.0738 33.782C39.8688 33.798 41.1768 32.4479 41.2078 31.2469C39.4018 32.7549 36.7418 32.7549 34.9368 31.2469Z" fill="white"/>
<path d="M46.1769 16.903C46.1769 16.903 47.9029 16.428 45.6799 15.132C43.4569 13.835 41.0659 14.142 41.0659 14.142C41.0659 14.142 43.2859 12.075 36.9279 12.691C32.0239 13.169 31.2539 18.54 31.2499 18.575C31.2119 18.717 31.1969 18.803 31.1969 18.803C31.1969 18.803 26.7859 18.795 29.6699 26.082C30.3459 27.494 30.3229 27.244 30.3229 27.244C30.3229 27.244 30.8839 25.036 32.6939 24.035C34.2889 23.156 33.7769 21.595 33.5479 21.003C34.3309 21.869 35.9829 23.39 36.8299 22.441C37.8489 21.298 39.2529 20.773 41.0659 22.194C42.7959 23.549 45.3449 25.594 46.1379 23.798C46.6929 25.115 46.8129 26.082 46.8129 26.082C52.3299 18.913 46.1769 16.903 46.1769 16.903Z" fill="#1F2028"/>
</g>
</svg>
