<svg width="236" height="246" viewBox="0 0 236 246" fill="none" xmlns="http://www.w3.org/2000/svg">
<path d="M11.0771 193.263C11.0771 195.39 12.6683 196.753 14.6315 197.886L95.0957 244.342C97.0589 245.476 100.242 245.476 102.205 244.342L232.013 169.398C233.976 168.265 235.568 166.806 235.568 164.679C235.568 162.553 233.977 161.237 232.013 160.103L151.549 113.647C149.585 112.513 146.402 112.513 144.439 113.647L14.6309 188.592C12.6677 189.726 11.0771 191.137 11.0771 193.263Z" fill="#606370"/>
<path d="M14.631 192.697L95.0958 239.153C97.059 240.286 100.242 240.286 102.205 239.153L232.014 164.208C233.977 163.075 233.977 161.237 232.014 160.104L151.549 113.647C149.586 112.514 146.403 112.514 144.44 113.647L14.631 188.592C12.6678 189.726 12.6678 191.563 14.631 192.697Z" fill="#444651"/>
<path d="M98.6538 240.01V245.191C97.365 245.191 96.0762 244.912 95.0994 244.345L14.6316 197.887C12.6696 196.754 11.0778 195.39 11.0778 193.264C11.0778 191.269 12.5088 189.879 14.3544 188.75C12.8298 189.828 12.801 191.638 14.6316 192.697L95.0994 239.155C96.0762 239.722 97.365 240.01 98.6538 240.01Z" fill="#2E3039"/>
<path d="M9.53277 189.141C7.97397 188.423 7.55097 187.185 7.40277 185.004L0.427172 82.9526C0.278372 80.7716 1.74957 78.0842 3.71277 76.9508L133.52 2.00659C135.484 0.873187 136.922 0.257588 138.736 1.49659C140.633 2.79319 140.587 3.42139 140.736 5.60239L147.711 107.653C147.86 109.834 146.389 112.521 144.425 113.655L14.6166 188.6C12.6534 189.733 11.5416 190.067 9.53277 189.141Z" fill="#606370"/>
<path d="M70.8954 44.2424C70.0458 44.6534 69.4062 45.7124 69.4674 46.6082C69.5286 47.5034 70.2672 47.894 71.1162 47.4794C71.9658 47.0654 72.6054 46.0064 72.5442 45.1136C72.4836 44.2214 71.7456 43.8314 70.8954 44.2424Z" fill="#2E3039"/>
<path d="M71.511 44.7032C71.2362 44.8358 71.0298 45.1784 71.0496 45.4676C71.0694 45.7568 71.3076 45.8828 71.5824 45.749C71.8566 45.6152 72.0636 45.2732 72.0438 44.9846C72.024 44.6966 71.7858 44.5706 71.511 44.7032Z" fill="#444651"/>
<path d="M140.737 5.6C140.588 3.4232 138.874 2.5754 136.911 3.7034L7.10097 78.6518C6.11997 79.2188 5.25717 80.1764 4.66917 81.2636L1.28217 79.5602H1.27557C1.87077 78.473 2.73237 77.5154 3.71397 76.9484L133.518 2.006C135.481 0.871401 136.928 0.245001 138.733 1.4954C140.638 2.8166 140.588 3.4232 140.737 5.6Z" fill="#444651"/>
<path d="M14.3532 188.751C12.5658 189.806 11.4342 189.936 9.53338 189.139C8.07958 188.529 7.55338 187.186 7.40458 185.005L0.42898 82.9496C0.35458 81.8594 0.680979 80.6426 1.28158 79.562L4.66858 81.2528L4.66918 81.2606C4.07818 82.349 3.74218 83.558 3.81658 84.6482L10.7922 186.703C10.9296 188.726 12.6762 189.741 14.3532 188.751Z" fill="#2E3039"/>
<path d="M9.56579 85.5122L134.486 13.409C135.664 12.7292 136.692 13.2386 136.781 14.5472L143.08 106.792C143.17 108.1 142.287 109.713 141.109 110.392L16.188 182.495C15.0102 183.175 13.9824 182.665 13.8936 181.357L7.59419 89.1134C7.50479 87.8048 8.38739 86.1926 9.56579 85.5122Z" fill="black"/>
<path d="M9.5658 85.5122C8.388 86.192 7.5054 87.8042 7.5948 89.1128L13.7856 179.77L137.279 108.492C138.457 107.812 139.34 106.2 139.25 104.891L133.059 14.2328L9.5658 85.5122Z" fill="#FF5E0E"/>
<path opacity="0.45" d="M9.5658 85.5122C8.388 86.192 7.5054 87.8042 7.5948 89.1128L13.7856 179.77L137.279 108.492C138.457 107.812 139.34 106.2 139.25 104.891L133.059 14.2328L9.5658 85.5122Z" fill="white"/>
<path d="M25.6104 189.195L144.899 120.325C145.825 119.79 147.325 119.79 148.251 120.325L152.596 122.762C153.521 123.297 153.521 124.163 152.596 124.697L33.2898 193.557C32.364 194.092 30.8634 194.091 29.9376 193.557L25.611 191.131C24.6852 190.596 24.6852 189.73 25.6104 189.195Z" fill="#2E3039"/>
<path d="M37.3254 196.105L156.613 127.234C157.538 126.7 158.909 126.625 159.675 127.068L190.724 144.994C191.49 145.437 191.36 146.228 190.435 146.763L71.2866 215.539C70.3608 216.074 68.988 216.151 68.22 215.711L37.0398 197.868C36.2718 197.429 36.3996 196.639 37.3254 196.105Z" fill="#2E3039"/>
<path d="M140.689 156.161L144.424 154.005C144.583 153.913 144.598 153.772 144.457 153.691L140.884 151.629C140.743 151.547 140.5 151.555 140.341 151.647L136.606 153.804C136.447 153.895 136.433 154.035 136.574 154.117L140.147 156.18C140.288 156.261 140.531 156.252 140.689 156.161ZM135.236 148.7L131.501 150.856C131.343 150.948 131.329 151.089 131.47 151.17L135.043 153.232C135.184 153.313 135.427 153.306 135.585 153.214L139.32 151.057C139.479 150.966 139.493 150.825 139.352 150.744L135.779 148.681C135.638 148.6 135.395 148.608 135.236 148.7ZM123.17 155.667L116.849 159.316C116.69 159.407 116.676 159.547 116.817 159.628L120.39 161.692C120.531 161.773 120.774 161.764 120.932 161.673L127.253 158.024C127.411 157.933 127.426 157.792 127.285 157.711L123.712 155.647C123.571 155.566 123.328 155.575 123.17 155.667ZM129.778 151.851L126.043 154.008C125.884 154.099 125.87 154.24 126.011 154.321L129.584 156.384C129.724 156.466 129.968 156.457 130.126 156.366L133.861 154.209C134.02 154.117 134.035 153.977 133.894 153.896L130.32 151.833C130.18 151.751 129.936 151.759 129.778 151.851ZM115.126 160.311L111.391 162.467C111.232 162.559 111.218 162.699 111.358 162.78L114.932 164.844C115.073 164.925 115.316 164.917 115.474 164.825L119.209 162.668C119.368 162.577 119.382 162.436 119.241 162.355L115.668 160.293C115.527 160.211 115.284 160.219 115.126 160.311ZM109.667 163.462L105.932 165.619C105.773 165.711 105.759 165.851 105.899 165.932L109.473 167.995C109.614 168.076 109.856 168.068 110.015 167.976L113.75 165.82C113.909 165.728 113.923 165.588 113.782 165.507L110.209 163.444C110.068 163.363 109.825 163.371 109.667 163.462ZM123.672 171.88L127.407 169.724C127.565 169.633 127.58 169.492 127.439 169.411L123.866 167.348C123.725 167.266 123.482 167.275 123.323 167.367L119.588 169.523C119.429 169.615 119.415 169.755 119.556 169.836L123.129 171.899C123.27 171.98 123.514 171.972 123.672 171.88ZM118.213 175.032L121.948 172.875C122.107 172.783 122.121 172.643 121.98 172.562L118.407 170.499C118.266 170.418 118.023 170.426 117.865 170.517L114.13 172.674C113.971 172.765 113.957 172.906 114.097 172.987L117.67 175.05C117.812 175.132 118.055 175.123 118.213 175.032ZM112.754 178.183L116.489 176.026C116.648 175.935 116.662 175.795 116.521 175.713L112.948 173.65C112.807 173.568 112.564 173.577 112.406 173.668L108.671 175.825C108.512 175.917 108.498 176.056 108.639 176.138L112.212 178.201C112.353 178.283 112.596 178.275 112.754 178.183ZM107.296 181.335L111.031 179.178C111.189 179.087 111.203 178.946 111.062 178.865L107.489 176.802C107.348 176.721 107.106 176.729 106.947 176.821L103.212 178.977C103.053 179.069 103.039 179.209 103.18 179.29L106.753 181.353C106.894 181.435 107.137 181.426 107.296 181.335ZM135.231 159.312L138.966 157.156C139.124 157.065 139.139 156.924 138.998 156.843L135.425 154.78C135.284 154.698 135.041 154.707 134.882 154.798L131.147 156.955C130.988 157.047 130.974 157.187 131.115 157.268L134.688 159.331C134.829 159.412 135.072 159.404 135.231 159.312ZM129.131 168.729L137.462 163.918C137.621 163.827 137.635 163.686 137.494 163.605L128.817 158.595C128.676 158.514 128.433 158.522 128.275 158.614L123.965 161.102C123.806 161.194 123.792 161.334 123.933 161.416L128.527 164.068C128.668 164.149 128.653 164.29 128.495 164.381L125.047 166.372C124.888 166.463 124.874 166.604 125.015 166.685L128.588 168.748C128.729 168.829 128.972 168.82 129.131 168.729ZM104.208 166.614L100.473 168.77C100.314 168.862 100.3 169.002 100.441 169.083L104.014 171.147C104.155 171.228 104.398 171.22 104.557 171.128L108.292 168.972C108.45 168.88 108.464 168.739 108.323 168.658L104.75 166.596C104.609 166.514 104.367 166.522 104.208 166.614ZM98.7491 169.765L95.0141 171.922C94.8551 172.014 94.8413 172.154 94.9823 172.235L98.5553 174.298C98.6963 174.38 98.9393 174.371 99.0983 174.28L102.833 172.123C102.992 172.032 103.006 171.891 102.866 171.81L99.2921 169.747C99.1505 169.666 98.9075 169.674 98.7491 169.765ZM68.5421 203.415C68.6831 203.496 68.9261 203.487 69.0845 203.396L72.8195 201.24C72.9779 201.148 72.9923 201.007 72.8513 200.926L69.2783 198.864C69.1373 198.783 68.8943 198.791 68.7359 198.882L65.0009 201.039C64.8419 201.13 64.8281 201.27 64.9685 201.352L68.5421 203.415ZM55.0793 194.978L51.3443 197.134C51.1859 197.226 51.1715 197.367 51.3125 197.448L54.8855 199.51C55.0265 199.592 55.2695 199.584 55.4279 199.492L59.1629 197.336C59.3219 197.245 59.3357 197.104 59.1947 197.023L55.6217 194.96C55.4807 194.878 55.2383 194.887 55.0793 194.978ZM62.0009 201.297C62.1419 201.379 62.3849 201.37 62.5433 201.279L66.2783 199.122C66.4367 199.031 66.4511 198.89 66.3101 198.809L62.7371 196.746C62.5961 196.664 62.3531 196.672 62.1947 196.764L58.4597 198.921C58.3007 199.012 58.2869 199.153 58.4279 199.234L62.0009 201.297ZM77.0621 204.684L80.7971 202.528C80.9561 202.436 80.9705 202.296 80.8295 202.215L77.256 200.151C77.115 200.07 76.8719 200.078 76.7135 200.17L72.9785 202.327C72.8201 202.418 72.8057 202.558 72.9467 202.64L76.5197 204.703C76.6607 204.784 76.9037 204.776 77.0621 204.684ZM71.0609 207.855C71.2019 207.936 71.4449 207.928 71.6033 207.837L75.3384 205.68C75.4967 205.588 75.5111 205.448 75.3707 205.366L71.7971 203.304C71.6561 203.222 71.4131 203.23 71.2547 203.322L67.5197 205.479C67.3613 205.57 67.3469 205.71 67.4879 205.791L71.0609 207.855ZM60.5381 191.827L56.8031 193.983C56.6441 194.075 56.6303 194.215 56.7713 194.296L60.3443 196.36C60.4853 196.441 60.7283 196.433 60.8867 196.341L64.6217 194.185C64.7801 194.093 64.7945 193.953 64.6535 193.872L61.0806 191.809C60.9396 191.727 60.6965 191.735 60.5381 191.827ZM87.8315 176.069L84.0965 178.225C83.9381 178.317 83.9237 178.457 84.0647 178.539L87.6377 180.601C87.7787 180.683 88.0218 180.675 88.1801 180.583L91.9151 178.427C92.0735 178.336 92.0879 178.195 91.9475 178.114L88.3739 176.05C88.2329 175.969 87.9899 175.977 87.8315 176.069ZM65.997 188.675L62.2619 190.831C62.1029 190.923 62.0892 191.064 62.2302 191.145L65.8031 193.208C65.9441 193.29 66.1871 193.281 66.3455 193.189L70.0806 191.033C70.239 190.941 70.2533 190.801 70.1123 190.72L66.5393 188.656C66.3983 188.575 66.156 188.583 65.997 188.675ZM93.2903 172.917L89.5553 175.074C89.3963 175.165 89.3825 175.305 89.5235 175.387L93.0965 177.45C93.2375 177.531 93.4799 177.523 93.6389 177.431L97.3739 175.275C97.5329 175.183 97.5467 175.043 97.4063 174.962L93.8333 172.899C93.6917 172.817 93.4487 172.825 93.2903 172.917ZM82.3727 179.22L78.6377 181.377C78.4793 181.468 78.4643 181.608 78.6053 181.69L82.1789 183.753C82.3193 183.834 82.5629 183.826 82.7213 183.734L86.4557 181.578C86.6141 181.486 86.6291 181.345 86.4881 181.264L82.9146 179.202C82.7747 179.121 82.5317 179.128 82.3727 179.22ZM76.9146 182.372L73.1795 184.528C73.0205 184.62 73.0061 184.76 73.1471 184.842L76.7201 186.905C76.8605 186.987 77.1041 186.978 77.2625 186.886L80.9975 184.731C81.1559 184.639 81.1703 184.498 81.0293 184.417L77.4563 182.354C77.3159 182.272 77.0729 182.28 76.9146 182.372ZM71.4557 185.524L67.7207 187.68C67.5617 187.772 67.548 187.912 67.6884 187.993L71.2613 190.056C71.4023 190.138 71.6453 190.129 71.8037 190.038L75.5387 187.881C75.6972 187.79 75.7115 187.65 75.5705 187.568L71.9975 185.505C71.8571 185.424 71.6141 185.432 71.4557 185.524ZM96.3779 187.638L100.113 185.482C100.272 185.391 100.286 185.25 100.145 185.169L96.5717 183.105C96.4307 183.024 96.1877 183.033 96.0293 183.124L92.2943 185.28C92.1353 185.371 92.1215 185.512 92.2625 185.593L95.8355 187.656C95.9765 187.738 96.2195 187.73 96.3779 187.638ZM147.303 141.733L143.568 143.889C143.409 143.981 143.395 144.121 143.536 144.202L147.109 146.265C147.25 146.346 147.493 146.338 147.652 146.247L151.387 144.09C151.545 143.998 151.559 143.859 151.418 143.777L147.845 141.714C147.705 141.633 147.462 141.642 147.303 141.733ZM140.695 145.548L136.96 147.705C136.801 147.796 136.787 147.936 136.928 148.018L140.501 150.081C140.642 150.162 140.885 150.154 141.044 150.062L144.779 147.906C144.937 147.814 144.952 147.673 144.811 147.592L141.238 145.53C141.097 145.448 140.854 145.456 140.695 145.548ZM152.761 138.582L149.027 140.737C148.868 140.829 148.854 140.969 148.994 141.051L152.568 143.113C152.709 143.195 152.952 143.187 153.11 143.095L156.845 140.938C157.004 140.847 157.019 140.706 156.878 140.625L153.305 138.562C153.163 138.482 152.921 138.49 152.761 138.582ZM122.59 166.611L126.325 164.455C126.484 164.363 126.497 164.223 126.356 164.142L122.783 162.079C122.642 161.997 122.399 162.006 122.241 162.097L118.506 164.254C118.347 164.346 118.333 164.485 118.474 164.567L122.047 166.63C122.188 166.711 122.431 166.702 122.59 166.611ZM158.763 135.411C158.622 135.33 158.379 135.338 158.221 135.43L154.486 137.586C154.328 137.678 154.313 137.818 154.454 137.899L158.027 139.962C158.167 140.044 158.411 140.035 158.569 139.944L162.304 137.787C162.463 137.695 162.478 137.556 162.337 137.474L158.763 135.411ZM101.837 184.486L105.572 182.33C105.731 182.238 105.745 182.098 105.604 182.017L102.031 179.954C101.89 179.872 101.648 179.881 101.489 179.972L97.7537 182.129C97.5947 182.221 97.5809 182.361 97.722 182.442L101.295 184.505C101.435 184.587 101.678 184.578 101.837 184.486ZM168.778 145.838L172.513 143.682C172.672 143.59 172.686 143.449 172.546 143.368L168.972 141.306C168.831 141.224 168.589 141.232 168.43 141.324L164.695 143.481C164.536 143.572 164.522 143.713 164.663 143.794L168.236 145.857C168.377 145.938 168.619 145.93 168.778 145.838ZM158.215 146.043L161.95 143.886C162.109 143.794 162.123 143.654 161.982 143.573L158.408 141.51C158.268 141.429 158.025 141.437 157.866 141.529L154.131 143.685C153.972 143.777 153.958 143.917 154.099 143.999L157.672 146.062C157.813 146.143 158.056 146.134 158.215 146.043ZM163.867 138.358C163.727 138.277 163.483 138.285 163.325 138.377L159.59 140.533C159.431 140.625 159.417 140.766 159.558 140.847L163.132 142.909C163.272 142.991 163.516 142.982 163.674 142.891L167.409 140.734C167.568 140.643 167.582 140.502 167.441 140.421L163.867 138.358ZM165.017 137.695L173.694 142.705C173.835 142.786 174.078 142.778 174.236 142.686L177.971 140.53C178.13 140.438 178.145 140.298 178.004 140.217L169.326 135.207C169.185 135.126 168.942 135.133 168.783 135.225L165.048 137.382C164.89 137.473 164.876 137.614 165.017 137.695ZM152.407 144.681L148.672 146.837C148.513 146.928 148.499 147.069 148.64 147.15L152.213 149.213C152.354 149.295 152.597 149.286 152.756 149.194L156.491 147.038C156.649 146.946 156.664 146.806 156.523 146.725L152.95 144.662C152.809 144.58 152.566 144.589 152.407 144.681ZM111.323 168.4L107.588 170.556C107.429 170.647 107.416 170.788 107.557 170.869L111.13 172.932C111.271 173.014 111.514 173.005 111.672 172.914L115.407 170.758C115.565 170.666 115.58 170.526 115.439 170.445L111.866 168.381C111.725 168.3 111.482 168.309 111.323 168.4ZM162.777 149.008C162.917 149.09 163.161 149.082 163.319 148.99L167.054 146.833C167.213 146.742 167.227 146.601 167.086 146.52L163.513 144.457C163.372 144.375 163.129 144.384 162.97 144.475L159.235 146.632C159.077 146.723 159.062 146.864 159.203 146.945L162.777 149.008ZM116.782 165.249L113.047 167.405C112.889 167.497 112.874 167.637 113.015 167.718L116.588 169.782C116.729 169.863 116.972 169.855 117.131 169.763L120.866 167.607C121.025 167.515 121.039 167.374 120.898 167.293L117.325 165.231C117.184 165.148 116.941 165.157 116.782 165.249ZM74.0009 200.263C74.1419 200.344 74.3849 200.336 74.5433 200.244L78.2783 198.088C78.4367 197.996 78.4511 197.856 78.3101 197.775L74.7365 195.711C74.5955 195.63 74.3525 195.638 74.1941 195.73L70.4591 197.886C70.3001 197.978 70.2863 198.118 70.4267 198.199L74.0009 200.263ZM67.6535 193.612L63.9185 195.769C63.7601 195.86 63.7457 196 63.8867 196.082L67.4597 198.145C67.6007 198.226 67.8437 198.218 68.0021 198.126L71.7371 195.97C71.8955 195.878 71.9099 195.738 71.7689 195.657L68.1959 193.593C68.0555 193.513 67.8125 193.521 67.6535 193.612ZM80.0021 197.093L83.7371 194.937C83.8961 194.845 83.9105 194.705 83.7695 194.623L80.1959 192.561C80.0549 192.479 79.8119 192.487 79.6535 192.579L75.9185 194.736C75.7601 194.827 75.7457 194.967 75.8867 195.049L79.4603 197.112C79.6007 197.193 79.8437 197.185 80.0021 197.093ZM85.4609 193.941L89.1959 191.785C89.3549 191.693 89.3687 191.553 89.2283 191.472L85.6547 189.409C85.5143 189.327 85.2707 189.336 85.1123 189.427L81.3773 191.584C81.2189 191.676 81.2039 191.816 81.3455 191.897L84.9191 193.96C85.0589 194.041 85.3025 194.033 85.4609 193.941ZM90.9197 190.789L94.6547 188.633C94.8137 188.541 94.8275 188.401 94.6871 188.319L91.1135 186.256C90.9725 186.175 90.7301 186.183 90.5711 186.275L86.8361 188.431C86.6771 188.523 86.6627 188.663 86.8043 188.744L90.3773 190.807C90.5183 190.89 90.7607 190.881 90.9197 190.789ZM73.1123 190.461L69.3773 192.618C69.2183 192.709 69.2045 192.849 69.3449 192.931L72.9185 194.994C73.0595 195.075 73.3025 195.067 73.4609 194.975L77.1959 192.819C77.3549 192.727 77.3687 192.586 77.2283 192.505L73.6553 190.443C73.5143 190.362 73.2713 190.369 73.1123 190.461ZM78.5711 187.309L74.8361 189.466C74.6771 189.558 74.6627 189.698 74.8037 189.779L78.3773 191.842C78.5183 191.924 78.7613 191.916 78.9197 191.824L82.6547 189.667C82.8131 189.576 82.8275 189.436 82.6865 189.354L79.1135 187.291C78.9725 187.21 78.7295 187.218 78.5711 187.309ZM100.406 174.703L96.6713 176.86C96.5123 176.952 96.4986 177.092 96.6395 177.173L100.213 179.236C100.354 179.317 100.597 179.309 100.755 179.217L104.49 177.061C104.648 176.97 104.663 176.829 104.522 176.748L100.949 174.685C100.808 174.603 100.565 174.612 100.406 174.703ZM94.9469 177.855L91.2119 180.011C91.0535 180.103 91.0386 180.243 91.1801 180.324L94.7531 182.387C94.8941 182.469 95.1371 182.46 95.2955 182.368L99.0305 180.212C99.1889 180.12 99.2039 179.98 99.0629 179.899L95.4899 177.836C95.3489 177.755 95.1059 177.763 94.9469 177.855ZM105.865 171.552L102.13 173.708C101.971 173.8 101.957 173.94 102.097 174.021L105.67 176.085C105.811 176.166 106.054 176.158 106.213 176.066L109.948 173.91C110.107 173.818 110.12 173.678 109.979 173.596L106.406 171.533C106.267 171.451 106.024 171.46 105.865 171.552ZM84.0299 184.158L80.2949 186.314C80.1365 186.405 80.1215 186.546 80.2625 186.627L83.8361 188.69C83.9771 188.772 84.2195 188.763 84.3785 188.671L88.1135 186.515C88.2719 186.423 88.2863 186.283 88.1453 186.202L84.5717 184.139C84.4313 184.059 84.1883 184.066 84.0299 184.158ZM89.4888 181.006L85.7537 183.163C85.5953 183.255 85.5803 183.395 85.722 183.476L89.2949 185.539C89.4353 185.62 89.6789 185.612 89.8373 185.52L93.5723 183.364C93.7313 183.272 93.7457 183.132 93.6047 183.051L90.0311 180.988C89.8901 180.906 89.6471 180.915 89.4888 181.006ZM82.5209 201.533L86.256 199.377C86.415 199.285 86.4287 199.145 86.2883 199.063L82.7147 197.001C82.5737 196.919 82.3307 196.927 82.1724 197.019L78.4373 199.176C78.2783 199.267 78.2645 199.408 78.4056 199.489L81.9785 201.552C82.1195 201.633 82.3625 201.624 82.5209 201.533ZM53.7365 200.175L50.1629 198.112C50.0219 198.03 49.7789 198.039 49.6205 198.13L45.8855 200.287C45.7265 200.378 45.7127 200.518 45.8537 200.6L49.4267 202.663C49.5677 202.744 49.8107 202.736 49.9697 202.644L53.7047 200.488C53.8631 200.396 53.8769 200.256 53.7365 200.175ZM60.8519 201.96L57.2783 199.897C57.1379 199.816 56.8949 199.824 56.7359 199.916L50.9897 203.233C50.8307 203.325 50.8169 203.466 50.9579 203.547L54.5309 205.609C54.6719 205.691 54.9149 205.683 55.0733 205.591L60.8195 202.273C60.9785 202.182 60.9929 202.042 60.8519 201.96ZM48.4031 196.1L44.8301 194.037C44.6891 193.956 44.4461 193.964 44.2877 194.056L39.6905 196.71C39.5321 196.801 39.5171 196.942 39.6587 197.023L43.2317 199.086C43.3727 199.167 43.6157 199.159 43.7741 199.068L48.3713 196.414C48.5297 196.322 48.5441 196.181 48.4031 196.1ZM51.9275 194.065C52.0679 194.147 52.3115 194.139 52.4699 194.047L56.2049 191.89C56.3639 191.799 56.3783 191.659 56.2373 191.577L52.6637 189.514C52.5227 189.432 52.2797 189.441 52.1207 189.532L48.3863 191.689C48.2273 191.781 48.2129 191.921 48.3539 192.002L51.9275 194.065ZM67.3931 204.078L63.8201 202.015C63.6791 201.934 63.4361 201.942 63.2777 202.034L56.0951 206.181C55.9367 206.272 55.9223 206.413 56.0633 206.494L59.6363 208.557C59.7773 208.638 60.0203 208.63 60.1787 208.538L67.3613 204.391C67.5197 204.3 67.5341 204.159 67.3931 204.078ZM69.9119 208.518L66.3384 206.455C66.198 206.374 65.9543 206.382 65.7959 206.474L61.1994 209.128C61.041 209.22 61.0265 209.36 61.1675 209.441L64.7405 211.504C64.8815 211.585 65.1245 211.577 65.2829 211.485L69.8802 208.831C70.0386 208.74 70.0523 208.599 69.9119 208.518ZM92.5134 170.633C92.6538 170.715 92.8967 170.706 93.0557 170.614L96.7907 168.458C96.9492 168.367 96.9641 168.226 96.8225 168.145L93.2495 166.082C93.1085 166 92.8655 166.009 92.7065 166.101L88.9721 168.257C88.8131 168.349 88.7987 168.489 88.9397 168.57L92.5134 170.633ZM81.5957 176.936C81.7367 177.018 81.9798 177.009 82.1388 176.917L85.8737 174.761C86.0327 174.67 86.0466 174.529 85.9055 174.448L82.3326 172.385C82.1915 172.303 81.9491 172.312 81.7901 172.404L78.0551 174.559C77.8962 174.651 77.8824 174.792 78.0228 174.873L81.5957 176.936ZM57.3857 190.914C57.5267 190.995 57.7697 190.987 57.9281 190.895L61.6631 188.739C61.8215 188.647 61.8365 188.507 61.6955 188.425L58.1225 186.362C57.9815 186.281 57.7385 186.289 57.5801 186.381L53.8451 188.537C53.6867 188.628 53.6723 188.769 53.8133 188.85L57.3857 190.914ZM87.0545 173.784C87.1955 173.866 87.4385 173.857 87.597 173.766L91.3319 171.609C91.4903 171.518 91.5047 171.377 91.3638 171.296L87.7907 169.233C87.6497 169.152 87.4073 169.16 87.2483 169.252L83.5134 171.408C83.3549 171.5 83.3405 171.64 83.4809 171.721L87.0545 173.784ZM76.1369 180.088C76.2779 180.169 76.5209 180.16 76.6793 180.069L80.4143 177.912C80.5733 177.82 80.5871 177.68 80.4461 177.599L76.8731 175.536C76.7322 175.455 76.4891 175.463 76.3307 175.555L72.5957 177.711C72.4367 177.803 72.4229 177.943 72.5639 178.024L76.1369 180.088ZM72.5927 208.739C72.4511 208.657 72.2087 208.666 72.0497 208.758L66.3035 212.075C66.1445 212.166 66.1307 212.307 66.2717 212.388L69.8447 214.451C69.9857 214.533 70.2287 214.524 70.3871 214.432L76.1334 211.115C76.2917 211.023 76.3061 210.883 76.1651 210.802L72.5927 208.739ZM68.3033 184.611C68.4443 184.692 68.6873 184.684 68.8457 184.592L72.5807 182.436C72.7397 182.344 72.7535 182.204 72.6125 182.122L69.0396 180.06C68.8986 179.978 68.6555 179.986 68.4971 180.078L64.7621 182.235C64.6031 182.326 64.5893 182.466 64.7297 182.548L68.3033 184.611ZM62.8445 187.762C62.9855 187.843 63.2285 187.835 63.3869 187.743L67.122 185.587C67.2804 185.495 67.2947 185.355 67.1543 185.274L63.5814 183.21C63.4404 183.129 63.1973 183.137 63.0389 183.229L59.3039 185.385C59.1449 185.477 59.1311 185.617 59.2721 185.698L62.8445 187.762ZM173.722 150.351C173.581 150.27 173.339 150.278 173.18 150.37L163.987 155.678C163.828 155.77 163.813 155.91 163.954 155.992L167.528 158.055C167.668 158.136 167.911 158.128 168.07 158.036L177.263 152.728C177.422 152.637 177.437 152.496 177.295 152.415L173.722 150.351ZM161.656 157.318C161.515 157.237 161.272 157.245 161.113 157.337L157.378 159.493C157.219 159.585 157.205 159.726 157.346 159.807L160.919 161.869C161.06 161.95 161.303 161.943 161.462 161.851L165.197 159.694C165.356 159.603 165.37 159.463 165.229 159.381L161.656 157.318ZM87.9797 198.381L91.7147 196.225C91.8731 196.133 91.8875 195.993 91.7465 195.912L88.1735 193.849C88.0326 193.767 87.7895 193.776 87.6311 193.867L83.8961 196.024C83.7371 196.116 83.7233 196.255 83.8643 196.337L87.4373 198.4C87.5783 198.481 87.8213 198.473 87.9797 198.381ZM150.739 163.621C150.598 163.54 150.355 163.548 150.196 163.64L146.461 165.796C146.302 165.888 146.288 166.029 146.429 166.11L150.002 168.173C150.143 168.254 150.386 168.246 150.545 168.154L154.28 165.998C154.439 165.906 154.453 165.766 154.312 165.685L150.739 163.621ZM179.181 147.2C179.04 147.118 178.797 147.127 178.639 147.218L174.904 149.374C174.745 149.466 174.731 149.607 174.872 149.688L178.445 151.751C178.586 151.833 178.829 151.824 178.987 151.732L182.722 149.576C182.881 149.484 182.895 149.344 182.755 149.263L179.181 147.2ZM188.213 146.112L179.535 141.101C179.394 141.019 179.152 141.028 178.993 141.12L175.258 143.276C175.099 143.368 175.084 143.508 175.226 143.589L183.904 148.599C184.045 148.681 184.288 148.672 184.446 148.581L188.181 146.424C188.339 146.333 188.354 146.193 188.213 146.112ZM130.34 175.398C130.199 175.317 129.956 175.325 129.797 175.417L125.201 178.071C125.042 178.162 125.028 178.303 125.169 178.384L128.742 180.447C128.883 180.528 129.126 180.52 129.284 180.428L133.881 177.774C134.039 177.683 134.054 177.542 133.913 177.461L130.34 175.398ZM144.131 167.436C143.99 167.355 143.747 167.364 143.588 167.455L137.842 170.772C137.684 170.863 137.669 171.004 137.81 171.085L141.383 173.148C141.524 173.23 141.767 173.221 141.926 173.13L147.672 169.812C147.83 169.721 147.845 169.581 147.704 169.499L144.131 167.436ZM117.699 182.697C117.558 182.615 117.315 182.623 117.157 182.715L86.4155 200.464C86.2565 200.556 86.2421 200.696 86.3831 200.777L89.9567 202.84C90.0977 202.921 90.3401 202.913 90.4991 202.821L121.24 185.073C121.399 184.981 121.413 184.841 121.272 184.76L117.699 182.697ZM85.2335 201.44C85.0925 201.358 84.8495 201.367 84.6911 201.459L80.0939 204.112C79.9349 204.204 79.9211 204.345 80.0621 204.426L83.6351 206.488C83.7761 206.569 84.0191 206.562 84.1775 206.47L88.7747 203.816C88.9331 203.725 88.9475 203.584 88.8065 203.503L85.2335 201.44ZM124.019 179.047C123.878 178.966 123.635 178.974 123.477 179.066L118.88 181.72C118.721 181.812 118.707 181.952 118.848 182.033L122.422 184.096C122.562 184.177 122.806 184.169 122.964 184.078L127.561 181.423C127.719 181.332 127.733 181.192 127.592 181.11L124.019 179.047ZM78.9131 205.089C78.7727 205.008 78.5291 205.016 78.3707 205.108L73.7741 207.762C73.6151 207.853 73.6013 207.994 73.7423 208.075L77.3153 210.138C77.4563 210.22 77.6993 210.211 77.8577 210.12L82.4543 207.466C82.6127 207.374 82.6277 207.234 82.4867 207.153L78.9131 205.089ZM136.66 171.749C136.519 171.667 136.277 171.676 136.118 171.768L131.521 174.421C131.362 174.513 131.348 174.653 131.489 174.735L135.062 176.797C135.203 176.879 135.446 176.871 135.604 176.779L140.201 174.125C140.36 174.034 140.374 173.893 140.233 173.812L136.66 171.749ZM156.197 160.47C156.056 160.388 155.813 160.396 155.654 160.488L151.919 162.645C151.76 162.736 151.747 162.876 151.888 162.958L155.461 165.021C155.602 165.102 155.845 165.094 156.003 165.003L159.738 162.846C159.897 162.754 159.911 162.614 159.77 162.533L156.197 160.47ZM168.424 151.937L172.159 149.781C172.318 149.689 172.332 149.548 172.191 149.467L168.617 147.405C168.476 147.323 168.233 147.331 168.075 147.423L164.34 149.58C164.182 149.671 164.167 149.812 164.308 149.893L167.882 151.956C168.022 152.037 168.265 152.028 168.424 151.937ZM146.148 153.009L149.883 150.853C150.042 150.762 150.056 150.621 149.915 150.54L146.342 148.477C146.201 148.395 145.958 148.404 145.799 148.495L142.064 150.652C141.905 150.744 141.892 150.883 142.033 150.965L145.606 153.028C145.747 153.109 145.99 153.101 146.148 153.009ZM131.65 173.169L142.567 166.866C142.726 166.774 142.74 166.634 142.599 166.552L139.026 164.49C138.885 164.409 138.643 164.416 138.484 164.508L127.566 170.811C127.407 170.902 127.393 171.043 127.534 171.124L131.107 173.187C131.248 173.268 131.491 173.26 131.65 173.169ZM162.423 155.107C162.564 155.188 162.807 155.18 162.965 155.088L166.7 152.932C166.859 152.84 166.874 152.7 166.733 152.619L163.16 150.556C163.019 150.474 162.776 150.483 162.617 150.574L158.882 152.731C158.724 152.822 158.71 152.962 158.851 153.044L162.423 155.107ZM157.861 152.142L161.596 149.985C161.754 149.894 161.768 149.754 161.627 149.673L158.054 147.61C157.913 147.528 157.67 147.537 157.512 147.628L153.777 149.785C153.618 149.877 153.604 150.017 153.745 150.098L157.318 152.161C157.459 152.241 157.702 152.233 157.861 152.142ZM126.191 176.32L129.926 174.164C130.084 174.073 130.099 173.932 129.958 173.851L126.385 171.788C126.244 171.706 126.001 171.715 125.842 171.807L122.107 173.963C121.949 174.054 121.934 174.195 122.075 174.276L125.648 176.339C125.789 176.42 126.032 176.412 126.191 176.32ZM150.356 162.073C150.497 162.155 150.74 162.147 150.898 162.055L154.633 159.898C154.792 159.807 154.806 159.666 154.666 159.585L151.092 157.522C150.951 157.441 150.708 157.449 150.55 157.541L146.815 159.697C146.656 159.789 146.641 159.929 146.783 160.011L150.356 162.073ZM98.8974 192.078L102.632 189.922C102.791 189.831 102.805 189.69 102.664 189.609L99.0911 187.546C98.9501 187.464 98.7071 187.473 98.5487 187.564L94.8138 189.721C94.6553 189.813 94.6409 189.952 94.7813 190.034L98.3549 192.097C98.4953 192.178 98.7383 192.169 98.8974 192.078ZM104.356 188.926L108.091 186.77C108.25 186.678 108.264 186.538 108.123 186.457L104.55 184.393C104.409 184.312 104.167 184.32 104.008 184.412L100.273 186.568C100.114 186.66 100.1 186.801 100.24 186.882L103.813 188.944C103.955 189.027 104.197 189.018 104.356 188.926ZM93.4385 195.229L97.1735 193.073C97.3326 192.982 97.3463 192.841 97.2053 192.76L93.6323 190.697C93.4913 190.615 93.2483 190.624 93.09 190.716L89.3549 192.872C89.1959 192.963 89.1821 193.104 89.3225 193.185L92.8955 195.249C93.0371 195.33 93.2795 195.321 93.4385 195.229ZM115.273 182.623L119.008 180.467C119.167 180.375 119.182 180.235 119.04 180.154L115.467 178.091C115.326 178.009 115.083 178.018 114.925 178.11L111.19 180.266C111.031 180.357 111.017 180.498 111.158 180.579L114.731 182.643C114.872 182.724 115.115 182.715 115.273 182.623ZM109.814 185.775L113.549 183.618C113.708 183.527 113.723 183.387 113.582 183.305L110.009 181.242C109.868 181.161 109.625 181.169 109.466 181.261L105.731 183.417C105.572 183.508 105.558 183.649 105.699 183.73L109.273 185.793C109.413 185.875 109.656 185.866 109.814 185.775ZM120.732 179.472L124.467 177.315C124.625 177.224 124.64 177.083 124.499 177.002L120.926 174.939C120.785 174.858 120.542 174.866 120.383 174.958L116.648 177.114C116.49 177.205 116.476 177.346 116.617 177.427L120.19 179.491C120.331 179.572 120.573 179.563 120.732 179.472ZM150.52 135.629C150.661 135.71 150.904 135.702 151.063 135.61L154.798 133.454C154.957 133.363 154.97 133.222 154.829 133.141L153.878 132.591C153.737 132.51 153.494 132.519 153.335 132.61L149.6 134.766C149.442 134.857 149.428 134.998 149.569 135.079L150.52 135.629ZM123.389 152.807C123.529 152.889 123.772 152.88 123.931 152.788L127.666 150.632C127.825 150.541 127.839 150.4 127.698 150.319L124.125 148.256C123.984 148.174 123.741 148.183 123.583 148.274L119.848 150.43C119.689 150.522 119.674 150.662 119.815 150.744L123.389 152.807ZM134.306 146.504C134.447 146.586 134.69 146.577 134.849 146.485L138.584 144.329C138.743 144.237 138.757 144.097 138.616 144.015L135.043 141.952C134.902 141.871 134.659 141.879 134.5 141.971L130.765 144.127C130.607 144.219 130.592 144.36 130.733 144.441L134.306 146.504ZM116.723 156.655C116.864 156.736 117.107 156.729 117.266 156.637L121.001 154.48C121.159 154.389 121.174 154.249 121.033 154.167L117.46 152.104C117.319 152.023 117.076 152.031 116.917 152.123L113.182 154.279C113.023 154.371 113.009 154.512 113.15 154.593L116.723 156.655ZM128.848 149.656C128.989 149.737 129.232 149.729 129.391 149.637L133.126 147.481C133.284 147.389 133.298 147.249 133.157 147.168L129.584 145.105C129.443 145.023 129.2 145.032 129.042 145.123L125.307 147.28C125.148 147.372 125.134 147.511 125.275 147.593L128.848 149.656ZM105.806 162.959C105.947 163.04 106.19 163.032 106.349 162.94L110.084 160.784C110.243 160.692 110.257 160.552 110.116 160.471L106.543 158.408C106.402 158.326 106.159 158.335 106 158.427L102.265 160.583C102.106 160.675 102.092 160.815 102.233 160.896L105.806 162.959ZM111.265 159.807C111.406 159.889 111.649 159.88 111.808 159.789L115.543 157.632C115.701 157.541 115.715 157.401 115.574 157.319L112.001 155.256C111.86 155.174 111.617 155.182 111.459 155.274L107.724 157.431C107.565 157.522 107.551 157.662 107.692 157.744L111.265 159.807ZM139.603 141.932C139.744 142.014 139.987 142.005 140.145 141.913L143.88 139.757C144.038 139.666 144.053 139.525 143.912 139.444L142.96 138.895C142.819 138.813 142.576 138.822 142.418 138.913L138.683 141.07C138.524 141.162 138.509 141.302 138.65 141.384L139.603 141.932ZM155.979 132.477C156.12 132.559 156.363 132.55 156.521 132.459L160.256 130.302C160.415 130.21 160.429 130.07 160.288 129.989L159.337 129.439C159.196 129.358 158.953 129.367 158.795 129.458L155.06 131.614C154.901 131.706 154.886 131.847 155.028 131.928L155.979 132.477ZM163.485 136.811C163.626 136.893 163.869 136.884 164.027 136.792L167.762 134.636C167.921 134.544 167.935 134.404 167.795 134.323L164.221 132.26C164.081 132.178 163.837 132.187 163.679 132.279L159.944 134.435C159.785 134.527 159.771 134.667 159.912 134.748L163.485 136.811ZM173.882 148.785L177.617 146.628C177.776 146.537 177.791 146.397 177.65 146.315L174.076 144.252C173.936 144.171 173.692 144.179 173.534 144.271L169.799 146.427C169.64 146.519 169.626 146.659 169.767 146.74L173.34 148.804C173.481 148.885 173.724 148.876 173.882 148.785ZM145.062 138.78C145.203 138.862 145.446 138.853 145.604 138.762L149.339 136.605C149.498 136.513 149.512 136.373 149.371 136.292L148.42 135.743C148.279 135.661 148.037 135.67 147.878 135.762L144.143 137.918C143.984 138.01 143.97 138.15 144.111 138.231L145.062 138.78ZM100.347 166.11C100.488 166.192 100.731 166.183 100.889 166.092L104.624 163.935C104.783 163.843 104.798 163.703 104.657 163.622L101.084 161.559C100.943 161.478 100.7 161.486 100.541 161.578L96.8064 163.734C96.6479 163.825 96.6335 163.966 96.7745 164.047L100.347 166.11Z" fill="#444651"/>
<path d="M115.982 197.173L116.794 197.642L138.364 210.094L176.725 187.945L177.523 187.491L155.141 174.571L115.982 197.173Z" fill="#2E3039"/>
<path d="M176.232 188.23L155.141 176.062L117.286 197.926L138.364 210.093L176.232 188.23Z" fill="#606370"/>
<path d="M21.4098 101.272C20.6928 100.858 20.1108 99.8066 20.1108 98.9234L20.109 91.3298C20.109 90.4466 20.7306 89.3726 21.4956 88.931L144.417 17.9348C145.182 17.4932 146.383 17.471 147.101 17.885C147.818 18.2996 148.4 19.3508 148.397 20.2334L148.399 27.8276C148.401 28.7114 147.781 29.7842 147.016 30.2258L24.0936 101.222C23.3286 101.664 22.1274 101.686 21.4098 101.272Z" fill="#FF5E0E"/>
<path opacity="0.2" d="M148.384 20.0084C148.288 19.292 147.706 19.0298 147.016 19.4324L24.093 90.4292C23.7156 90.653 23.37 91.0304 23.1144 91.4654L20.5176 89.9624C20.7732 89.5274 21.1122 89.1554 21.4962 88.9316L144.418 17.936C145.18 17.4944 146.382 17.4692 147.098 17.885C147.757 18.2684 148.301 19.1768 148.384 20.0084Z" fill="white"/>
<path opacity="0.15" d="M23.1144 91.4655C22.8648 91.8939 22.7112 92.3865 22.7112 92.8281V97.0107L20.1078 95.5077L20.109 91.3299C20.109 91.2723 20.1114 91.2207 20.1162 91.1625C20.127 91.0329 20.1438 90.9345 20.1696 90.8193C20.2398 90.5313 20.3586 90.2259 20.517 89.9625L23.1144 91.4655Z" fill="black"/>
<path d="M148.397 20.2322L148.399 24.4154L65.664 72.2114C64.9026 72.653 27.285 94.3688 26.5242 94.8104L22.7118 97.0106V92.8274C22.7118 91.9448 23.3322 90.8702 24.0936 90.4286L147.016 19.433C147.776 18.9914 148.397 19.3496 148.397 20.2322Z" fill="#FF5E0E"/>
<path d="M144.607 22.8596C145.102 22.574 145.502 22.8056 145.502 23.3762C145.502 23.9468 145.101 24.641 144.607 24.926C144.113 25.2116 143.712 24.98 143.712 24.4094C143.712 23.8388 144.113 23.1446 144.607 22.8596Z" fill="white"/>
<path d="M141.385 24.7172C141.88 24.4322 142.28 24.6632 142.28 25.2338C142.28 25.8044 141.879 26.4986 141.385 26.7836C140.891 27.0692 140.491 26.8376 140.491 26.267C140.49 25.6964 140.891 25.0022 141.385 24.7172Z" fill="white"/>
<path d="M138.163 26.5742C138.658 26.2892 139.058 26.5202 139.058 27.0908C139.058 27.6614 138.657 28.3556 138.163 28.6406C137.669 28.9262 137.269 28.6946 137.269 28.124C137.269 27.554 137.669 26.8598 138.163 26.5742Z" fill="white"/>
<path d="M24.0936 190.05C24.0744 190.056 23.742 190.306 23.0058 190.38C22.4358 190.436 21.8418 190.35 21.4134 190.1C20.6904 189.684 20.115 188.635 20.115 187.752L20.1078 95.5076L22.7112 97.0106V189.249C22.7112 189.876 23.0262 190.239 23.4804 190.239C23.544 190.239 23.7918 190.219 24.0936 190.05Z" fill="#D3D4DA"/>
<path d="M148.398 116.653C148.398 117.536 147.783 118.612 147.015 119.053L24.0936 190.05C23.3322 190.491 22.7112 190.132 22.7112 189.249V97.0113L26.5236 94.8111C27.285 94.3695 65.664 72.2121 65.664 72.2121L148.399 24.4161V32.2371V116.653H148.398Z" fill="#FAFAFA"/>
<path d="M147.849 25.3677V32.2365V116.653C147.849 117.339 147.332 118.238 146.741 118.578L23.8176 189.574C23.6454 189.674 23.5308 189.689 23.4774 189.689C23.2884 189.689 23.2602 189.414 23.2602 189.249V97.3287L26.799 95.2863C27.5508 94.8501 65.5542 72.9099 65.9382 72.6879L147.849 25.3677ZM148.398 24.4155L65.6634 72.2115C65.6634 72.2115 27.2844 94.3689 26.523 94.8105L22.7106 97.0107V189.249C22.7106 189.875 23.0232 190.238 23.4768 190.238C23.6622 190.238 23.8716 190.177 24.0924 190.049L147.014 119.053C147.782 118.611 148.397 117.535 148.397 116.653V32.2365V24.4155H148.398Z" fill="#F2F3F4"/>
<path d="M151.079 31.3097L31.3116 100.363C30.6006 100.773 30.0246 101.771 30.0246 102.591V193.574C30.0246 194.394 30.6018 195.39 31.314 195.797L32.1168 196.257C32.829 196.664 33.9822 196.662 34.6932 196.251L154.462 127.146C155.173 126.736 155.749 125.738 155.749 124.917V33.9887C155.749 33.1679 155.171 32.1725 154.459 31.7651L153.656 31.3055C152.944 30.8981 151.79 30.8999 151.079 31.3097Z" fill="#D3D4DA"/>
<path d="M155.749 125.01C155.749 126.141 154.955 126.862 153.97 127.428L35.1852 195.96C34.206 196.526 33.4068 196.069 33.4068 194.932V105.085C33.4068 103.819 34.0818 102.651 35.1768 102.018L153.969 33.4689C154.76 33.0123 155.749 33.5829 155.749 34.4961V125.01H155.749Z" fill="#FAFAFA"/>
<path d="M154.561 33.908C154.843 33.908 155.149 34.133 155.149 34.496V125.01C155.149 125.745 154.707 126.312 153.67 126.907L34.8846 195.441C34.653 195.575 34.4886 195.603 34.3914 195.603C34.056 195.603 34.0062 195.183 34.0062 194.933V105.085C34.0062 104.037 34.5696 103.062 35.4762 102.538L154.269 33.9884C154.361 33.935 154.459 33.908 154.561 33.908ZM154.561 33.308C154.363 33.308 154.16 33.3584 153.969 33.4688L35.1768 102.018C34.0812 102.651 33.4068 103.82 33.4068 105.085V194.933C33.4068 195.739 33.8088 196.203 34.392 196.203C34.6308 196.203 34.9008 196.125 35.1852 195.961L153.97 127.428C154.954 126.862 155.749 126.141 155.749 125.01V34.496C155.749 33.8036 155.18 33.308 154.561 33.308Z" fill="#F2F3F4"/>
<path d="M155.75 33.9891V34.4943C155.75 33.5829 154.759 33.0135 153.967 33.4689L35.1762 102.019C34.6266 102.331 34.1856 102.782 33.8838 103.312C33.8736 103.327 33.8688 103.336 33.864 103.351L30.387 101.346C30.6246 100.935 30.9468 100.573 31.3134 100.365L151.079 31.3095C151.793 30.8985 152.947 30.8985 153.655 31.3047L154.457 31.7655C155.17 32.1717 155.75 33.1671 155.75 33.9891Z" fill="#F2F3F4"/>
<path d="M79.959 90.3921L80.6922 89.8017L80.829 89.7231L81.5676 89.4633V89.9853L79.959 90.9141V90.3921ZM82.0608 82.2921L82.653 81.9501L84.2958 88.4103L83.3376 88.9635L81.9972 83.4303L82.2162 83.0181L80.7906 90.4335L80.4054 90.6555L82.0608 82.2921ZM81.2508 87.3129L83.2014 86.1867L83.34 86.6871L81.132 87.9615L81.2508 87.3129ZM82.5678 88.8987L83.43 88.2339L83.7468 88.0509L84.6588 87.6915V88.2015L82.5684 89.4087L82.5678 88.8987Z" fill="#1F2028"/>
<path d="M84.978 81.1659V80.6439L86.0658 80.0157V80.7045L85.9728 80.7584L84.978 81.1659ZM86.1588 86.6457L87.153 86.2383V86.7603L84.9774 88.0167V87.4947L85.9716 86.7537L86.1588 86.6457ZM85.5972 83.7315C85.5972 82.5867 85.5972 81.4305 85.5762 80.2977L86.5452 79.7379C86.523 80.8941 86.523 82.0083 86.523 83.2665V83.6043C86.523 84.8229 86.523 85.9791 86.5452 87.1113L85.5762 87.6711C85.5972 86.5359 85.5972 85.3803 85.5972 84.2133V83.7315ZM86.0712 83.4237L86.9472 82.9178C87.6954 82.4858 87.9918 81.6705 87.9918 80.8641C87.9918 79.9509 87.672 79.6646 87.003 80.051L86.0652 80.5923V80.0157L87.1554 79.3863C88.2762 78.7389 88.9164 79.0761 88.9164 80.2689C88.9164 81.1647 88.47 82.2867 87.3534 83.0451L87.3672 82.9365C88.203 82.5195 88.5042 82.8183 88.665 83.8239L88.9368 85.4463L88.5252 85.2897L89.4414 84.9182V85.4403C89.2026 85.6737 89.058 85.7967 88.7832 85.9557C88.2498 86.2635 87.9702 86.1981 87.8922 85.5531L87.6786 84.1299C87.5706 83.3691 87.3492 83.2479 86.8338 83.5449L86.0712 83.9853V83.4237Z" fill="#1F2028"/>
<path d="M89.6742 78.5247L90.0996 77.6865L89.8896 79.8309L89.3844 80.1225L89.4258 78.0753L93.5208 75.7113L93.5598 77.7117L93.057 78.0015L92.847 76.0995L93.27 76.4475L89.6742 78.5247ZM91.584 83.5137L92.6352 83.0739V83.5959L90.312 84.9369V84.4149L91.3518 83.6475L91.584 83.5137ZM91.0044 80.6097C91.0044 79.4649 91.0044 78.3087 90.9828 77.1765L91.9626 76.6107C91.941 77.7459 91.941 78.9021 91.941 80.0691V80.5473C91.941 81.6957 91.941 82.8519 91.9626 83.9841L90.9828 84.5499C91.0044 83.4147 91.0044 82.2585 91.0044 81.0921V80.6097Z" fill="#1F2028"/>
<path d="M93.9834 75.9663V75.4443L96.1626 74.1861V74.7081L95.157 75.4557L94.9776 75.5589L93.9834 75.9663ZM95.157 81.4509L96.1626 81.0375V81.5595L93.9834 82.8177V82.2957L94.9776 81.5547L95.157 81.4509ZM94.6026 78.5325C94.6026 77.3877 94.6026 76.2315 94.5816 75.0987L95.5608 74.5335C95.5398 75.6687 95.5398 76.8243 95.5398 77.9919V78.4701C95.5398 79.6185 95.5398 80.7747 95.5608 81.9075L94.5816 82.4727C94.6026 81.3375 94.6026 80.1819 94.6026 79.0149V78.5325Z" fill="#1F2028"/>
<path d="M100.347 78.0639V78.6543L99.8808 79.0833L100.093 77.2665L100.589 76.9803L100.56 78.6573C100.14 79.2537 99.636 79.7409 99.072 80.0661C97.6476 80.8887 96.5964 80.0565 96.5964 77.6217C96.5964 75.1905 97.7118 73.1037 99.0942 72.3063C99.564 72.0351 100.039 71.9055 100.499 72.0369L100.528 73.6887L100.031 73.9755L99.8166 72.3975L100.283 72.2919V72.9369C99.9054 72.6231 99.5598 72.6297 99.2232 72.8241C98.352 73.3275 97.62 74.8149 97.62 77.0355C97.62 79.2519 98.2986 79.9167 99.1812 79.4073C99.5658 79.1847 99.9726 78.7413 100.347 78.0639Z" fill="#1F2028"/>
<path d="M101.11 71.8515V71.3295L103.316 70.0563V70.5783L102.31 71.3259L102.105 71.4447L101.11 71.8515ZM102.199 77.3853V78.0741L101.111 78.7023V78.1803L102.106 77.4393L102.199 77.3853ZM101.708 70.9839L102.688 70.4187C102.667 71.5677 102.667 72.7239 102.667 73.8771V74.5569C102.667 75.5181 102.667 76.6737 102.688 77.7927L101.708 78.3579C101.73 77.2089 101.73 76.0527 101.73 75.0189V74.4183C101.731 73.2585 101.731 72.1023 101.708 70.9839ZM104.849 74.4093L104.777 76.5855L102.199 78.0741V77.4777L104.53 76.1319L104.056 77.0019L104.342 74.7021L104.849 74.4093Z" fill="#1F2028"/>
<path d="M105.27 69.4497V68.9277L106.358 68.2995V68.9883L106.265 69.0423L105.27 69.4497ZM106.358 74.9841V75.6729L105.27 76.3011V75.7791L106.265 75.0381L106.358 74.9841ZM105.89 72.0159C105.89 70.8711 105.89 69.7149 105.868 68.5821L106.848 68.0169C106.826 69.1521 106.826 70.3077 106.826 71.4753V71.8689C106.826 73.1019 106.826 74.2581 106.848 75.3903L105.868 75.9555C105.89 74.8203 105.89 73.6647 105.89 72.4977V72.0159ZM108.237 67.2147L108.662 67.5615L106.358 68.8923V68.3001L108.91 66.8265L108.961 68.7429L108.455 69.0345L108.237 67.2147ZM107.969 71.2503L106.358 72.1803V71.5959L107.969 70.6659V71.2503ZM109.106 72.1413L109.055 74.1165L106.358 75.6735V75.0855L108.807 73.6719L108.382 74.5059L108.6 72.4335L109.106 72.1413ZM107.743 70.9479L107.852 69.7641L108.224 69.5493V72.0609L107.852 72.2757L107.743 71.1615V70.9479Z" fill="#1F2028"/>
<path d="M112.244 67.7667C114.822 66.1353 117.434 64.5603 120.05 62.9943C122.665 61.4271 125.308 59.9067 127.936 58.3605C130.588 56.8563 133.227 55.3299 135.891 53.8467L139.894 51.6327C141.239 50.9139 142.573 50.1765 143.927 49.4733C142.641 50.2947 141.335 51.0819 140.041 51.8871L136.122 54.2463C133.505 55.8123 130.864 57.3345 128.236 58.8789C125.583 60.3813 122.945 61.9101 120.28 63.3915C117.615 64.8753 114.946 66.3495 112.244 67.7667Z" fill="#1F2028"/>
<path d="M45.228 106.463C47.8062 104.832 50.418 103.257 53.034 101.691C55.6494 100.123 58.2924 98.6031 60.9198 97.0569C63.5718 95.5527 66.2112 94.0263 68.8752 92.5437L72.8778 90.3297C74.223 89.6109 75.5574 88.8735 76.9116 88.1703C75.6252 88.9911 74.3196 89.7789 73.0248 90.5841L69.1062 92.9433C66.4896 94.5093 63.8484 96.0315 61.2198 97.5759C58.5672 99.0789 55.929 100.607 53.2638 102.088C50.5992 103.572 47.9298 105.046 45.228 106.463Z" fill="#1F2028"/>
<path d="M43.347 119.176V151.284C43.347 151.745 43.671 151.932 44.0706 151.702L74.307 134.245C74.7066 134.014 75.0306 133.453 75.0306 132.991V100.884C75.0306 100.422 74.7066 100.235 74.307 100.466L44.0706 117.923C43.671 118.153 43.347 118.714 43.347 119.176Z" fill="#FF5E0E"/>
<path opacity="0.5" d="M43.347 119.176V151.284C43.347 151.745 43.671 151.932 44.0706 151.702L74.307 134.245C74.7066 134.014 75.0306 133.453 75.0306 132.991V100.884C75.0306 100.422 74.7066 100.235 74.307 100.466L44.0706 117.923C43.671 118.153 43.347 118.714 43.347 119.176Z" fill="white"/>
<path opacity="0.5" d="M45.018 119.305L73.359 102.943V132.862L45.018 149.224V119.305Z" fill="white"/>
<path d="M45.018 149.224V139.638L52.6716 122.26L65.1498 130.927L61.0146 126.728L66.2766 120.13L73.359 123.342V132.862L45.018 149.224Z" fill="white"/>
<path d="M65.3126 115.347C66.1964 113.816 66.1963 112.162 65.3125 111.651C64.4286 111.141 62.9957 111.968 62.1119 113.499C61.2282 115.03 61.2282 116.684 62.1121 117.195C62.9959 117.705 64.4289 116.878 65.3126 115.347Z" fill="white"/>
<path d="M114.015 109.322V141.43C114.015 141.891 114.339 142.078 114.739 141.847L144.975 124.39C145.375 124.159 145.699 123.598 145.699 123.137V91.0293C145.699 90.5679 145.375 90.3807 144.975 90.6117L114.739 108.069C114.339 108.299 114.015 108.861 114.015 109.322Z" fill="#FF5E0E"/>
<path opacity="0.5" d="M114.015 109.322V141.43C114.015 141.891 114.339 142.078 114.739 141.847L144.975 124.39C145.375 124.159 145.699 123.598 145.699 123.137V91.0293C145.699 90.5679 145.375 90.3807 144.975 90.6117L114.739 108.069C114.339 108.299 114.015 108.861 114.015 109.322Z" fill="white"/>
<path opacity="0.5" d="M115.686 109.451L144.027 93.0891V123.008L115.686 139.371V109.451Z" fill="white"/>
<path d="M115.686 139.371V129.784L123.34 112.406L135.818 121.074L131.683 116.874L136.945 110.277L144.027 113.488V123.008L115.686 139.371Z" fill="white"/>
<path d="M134.383 101.953C135.633 101.231 136.646 101.816 136.646 103.26C136.646 104.703 135.633 106.458 134.383 107.179C133.133 107.901 132.12 107.316 132.12 105.873C132.12 104.43 133.133 102.675 134.383 101.953Z" fill="white"/>
<path d="M43.347 158.268C43.191 158.268 43.0398 158.187 42.957 158.043C42.8328 157.828 42.9066 157.552 43.1214 157.428L74.8056 139.135C75.0216 139.011 75.2958 139.085 75.42 139.3C75.5442 139.515 75.4704 139.79 75.2556 139.914L43.5714 158.207C43.5006 158.248 43.4232 158.268 43.347 158.268Z" fill="#D3D4DA"/>
<path d="M43.347 162.476C43.191 162.476 43.0398 162.395 42.957 162.251C42.8328 162.036 42.9066 161.761 43.1214 161.636L74.8056 143.343C75.0216 143.219 75.2958 143.293 75.42 143.508C75.5442 143.723 75.4704 143.998 75.2556 144.122L43.5714 162.415C43.5006 162.456 43.4232 162.476 43.347 162.476Z" fill="#D3D4DA"/>
<path d="M43.347 166.684C43.191 166.684 43.0398 166.603 42.957 166.459C42.8328 166.244 42.9066 165.969 43.1214 165.844L74.8056 147.551C75.0216 147.426 75.2958 147.501 75.42 147.715C75.5442 147.93 75.4704 148.206 75.2556 148.33L43.5714 166.623C43.5006 166.665 43.4232 166.684 43.347 166.684Z" fill="#D3D4DA"/>
<path d="M43.347 170.892C43.191 170.892 43.0398 170.811 42.957 170.667C42.8328 170.452 42.9066 170.177 43.1214 170.053L74.8056 151.759C75.0216 151.634 75.2958 151.71 75.42 151.924C75.5442 152.139 75.4704 152.414 75.2556 152.539L43.5714 170.832C43.5006 170.873 43.4232 170.892 43.347 170.892Z" fill="#D3D4DA"/>
<path d="M43.347 175.1C43.191 175.1 43.0398 175.019 42.957 174.875C42.8328 174.66 42.9066 174.385 43.1214 174.261L74.8056 155.968C75.0216 155.843 75.2958 155.918 75.42 156.132C75.5442 156.347 75.4704 156.622 75.2556 156.747L43.5714 175.039C43.5006 175.08 43.4232 175.1 43.347 175.1Z" fill="#D3D4DA"/>
<path d="M43.347 179.308C43.191 179.308 43.0398 179.227 42.957 179.083C42.8328 178.868 42.9066 178.593 43.1214 178.468L74.8056 160.176C75.0216 160.051 75.2958 160.126 75.42 160.34C75.5442 160.555 75.4704 160.83 75.2556 160.954L43.5714 179.247C43.5006 179.289 43.4232 179.308 43.347 179.308Z" fill="#D3D4DA"/>
<path d="M43.347 183.516C43.191 183.516 43.0398 183.435 42.957 183.291C42.8328 183.076 42.9066 182.801 43.1214 182.677L74.8056 164.384C75.0216 164.259 75.2958 164.334 75.42 164.548C75.5442 164.763 75.4704 165.039 75.2556 165.163L43.5714 183.456C43.5006 183.497 43.4232 183.516 43.347 183.516Z" fill="#D3D4DA"/>
<path d="M114.015 79.4265C113.859 79.4265 113.708 79.3461 113.625 79.2015C113.501 78.9861 113.575 78.7113 113.789 78.5871L145.474 60.2943C145.69 60.1695 145.964 60.2439 146.088 60.4587C146.212 60.6741 146.138 60.9489 145.924 61.0731L114.239 79.3659C114.169 79.4067 114.091 79.4265 114.015 79.4265Z" fill="#D3D4DA"/>
<path d="M114.015 83.6343C113.859 83.6343 113.708 83.5539 113.625 83.4093C113.501 83.1939 113.575 82.9191 113.789 82.7949L145.474 64.5015C145.69 64.3767 145.964 64.4511 146.088 64.6659C146.212 64.8813 146.138 65.1561 145.924 65.2803L114.239 83.5737C114.169 83.6151 114.091 83.6343 114.015 83.6343Z" fill="#D3D4DA"/>
<path d="M114.015 87.8421C113.859 87.8421 113.708 87.7617 113.625 87.6171C113.501 87.4017 113.575 87.1269 113.789 87.0027L145.474 68.7099C145.69 68.5851 145.964 68.6595 146.088 68.8743C146.212 69.0897 146.138 69.3645 145.924 69.4887L114.239 87.7815C114.169 87.8229 114.091 87.8421 114.015 87.8421Z" fill="#D3D4DA"/>
<path d="M114.015 92.0505C113.859 92.0505 113.708 91.9701 113.625 91.8255C113.501 91.6101 113.575 91.3353 113.789 91.2111L145.474 72.9183C145.69 72.7935 145.964 72.8679 146.088 73.0827C146.212 73.2981 146.138 73.5729 145.924 73.6971L114.239 91.9899C114.169 92.0313 114.091 92.0505 114.015 92.0505Z" fill="#D3D4DA"/>
<path d="M114.015 96.2589C113.859 96.2589 113.708 96.1785 113.625 96.0339C113.501 95.8185 113.575 95.5437 113.789 95.4195L145.474 77.1267C145.69 77.0019 145.964 77.0769 146.088 77.2911C146.212 77.5065 146.138 77.7813 145.924 77.9055L114.239 96.1983C114.169 96.2397 114.091 96.2589 114.015 96.2589Z" fill="#D3D4DA"/>
<path d="M114.015 100.467C113.859 100.467 113.708 100.386 113.625 100.242C113.501 100.026 113.575 99.7515 113.789 99.6273L145.474 81.3339C145.69 81.2085 145.964 81.2835 146.088 81.4983C146.212 81.7137 146.138 81.9885 145.924 82.1127L114.239 100.406C114.169 100.447 114.091 100.467 114.015 100.467Z" fill="#D3D4DA"/>
<path d="M114.015 104.675C113.859 104.675 113.708 104.595 113.625 104.45C113.501 104.235 113.575 103.96 113.789 103.836L145.474 85.5429C145.69 85.4181 145.964 85.4925 146.088 85.7073C146.212 85.9227 146.138 86.1975 145.924 86.3217L114.239 104.614C114.169 104.655 114.091 104.675 114.015 104.675Z" fill="#D3D4DA"/>
<path d="M78.7362 137.837C78.5802 137.837 78.429 137.757 78.3462 137.612C78.222 137.397 78.2958 137.122 78.5106 136.998L110.195 118.705C110.411 118.579 110.686 118.654 110.809 118.869C110.933 119.085 110.86 119.359 110.645 119.484L78.9606 137.776C78.8898 137.818 78.8124 137.837 78.7362 137.837Z" fill="#D3D4DA"/>
<path d="M78.7362 142.045C78.5802 142.045 78.429 141.964 78.3462 141.82C78.222 141.606 78.2958 141.33 78.5106 141.206L110.195 122.913C110.411 122.788 110.686 122.862 110.809 123.077C110.933 123.292 110.86 123.567 110.645 123.692L78.9606 141.985C78.8898 142.026 78.8124 142.045 78.7362 142.045Z" fill="#D3D4DA"/>
<path d="M78.7362 146.253C78.5802 146.253 78.429 146.172 78.3462 146.028C78.222 145.813 78.2958 145.538 78.5106 145.414L110.195 127.12C110.411 126.996 110.686 127.069 110.809 127.285C110.933 127.5 110.86 127.775 110.645 127.899L78.9606 146.193C78.8898 146.234 78.8124 146.253 78.7362 146.253Z" fill="#D3D4DA"/>
<path d="M78.7362 150.462C78.5802 150.462 78.429 150.381 78.3462 150.237C78.222 150.022 78.2958 149.746 78.5106 149.622L110.195 131.329C110.411 131.203 110.686 131.278 110.809 131.494C110.933 131.709 110.86 131.984 110.645 132.108L78.9606 150.402C78.8898 150.442 78.8124 150.462 78.7362 150.462Z" fill="#D3D4DA"/>
<path d="M78.7362 154.669C78.5802 154.669 78.429 154.588 78.3462 154.444C78.222 154.23 78.2958 153.954 78.5106 153.83L110.195 135.537C110.411 135.412 110.686 135.487 110.809 135.702C110.933 135.917 110.86 136.192 110.645 136.317L78.9606 154.609C78.8898 154.65 78.8124 154.669 78.7362 154.669Z" fill="#D3D4DA"/>
<path d="M78.7362 158.877C78.5802 158.877 78.429 158.796 78.3462 158.652C78.222 158.437 78.2958 158.162 78.5106 158.038L110.195 139.745C110.411 139.62 110.686 139.695 110.809 139.909C110.933 140.125 110.86 140.4 110.645 140.524L78.9606 158.817C78.8898 158.858 78.8124 158.877 78.7362 158.877Z" fill="#D3D4DA"/>
<path d="M78.7362 163.086C78.5802 163.086 78.429 163.005 78.3462 162.861C78.222 162.646 78.2958 162.37 78.5106 162.246L110.195 143.953C110.411 143.828 110.686 143.904 110.809 144.118C110.933 144.333 110.86 144.608 110.645 144.732L78.9606 163.025C78.8898 163.066 78.8124 163.086 78.7362 163.086Z" fill="#D3D4DA"/>
<path d="M78.7362 108.275C78.5802 108.275 78.429 108.195 78.3462 108.05C78.222 107.835 78.2958 107.56 78.5106 107.436L110.195 89.1423C110.411 89.0169 110.686 89.0919 110.809 89.3067C110.933 89.5221 110.86 89.7969 110.645 89.9211L78.9606 108.215C78.8898 108.255 78.8124 108.275 78.7362 108.275Z" fill="#D3D4DA"/>
<path d="M78.7362 112.483C78.5802 112.483 78.429 112.403 78.3462 112.258C78.222 112.043 78.2958 111.768 78.5106 111.644L110.195 93.3507C110.411 93.2259 110.686 93.3009 110.809 93.5151C110.933 93.7305 110.86 94.0053 110.645 94.1295L78.9606 112.422C78.8898 112.464 78.8124 112.483 78.7362 112.483Z" fill="#D3D4DA"/>
<path d="M78.7362 99.7785C78.5802 99.7785 78.429 99.6981 78.3462 99.5535C78.222 99.3381 78.2958 99.0633 78.5106 98.9385L110.195 80.6457C110.411 80.5209 110.686 80.5959 110.809 80.8101C110.933 81.0255 110.86 81.3003 110.645 81.4245L78.9606 99.7173C78.8898 99.7593 78.8124 99.7785 78.7362 99.7785Z" fill="#D3D4DA"/>
<path d="M78.7362 103.987C78.5802 103.987 78.429 103.907 78.3462 103.762C78.222 103.547 78.2958 103.272 78.5106 103.148L110.195 84.8541C110.411 84.7293 110.686 84.8037 110.809 85.0185C110.933 85.2339 110.86 85.5087 110.645 85.6329L78.9606 103.926C78.8898 103.967 78.8124 103.987 78.7362 103.987Z" fill="#D3D4DA"/>
<path d="M78.7362 116.691C78.5802 116.691 78.429 116.611 78.3462 116.466C78.222 116.251 78.2958 115.976 78.5106 115.851L110.195 97.5585C110.411 97.4337 110.686 97.5081 110.809 97.7229C110.933 97.9383 110.86 98.2131 110.645 98.3373L78.9606 116.63C78.8898 116.672 78.8124 116.691 78.7362 116.691Z" fill="#D3D4DA"/>
<path d="M78.7362 120.899C78.5802 120.899 78.429 120.819 78.3462 120.674C78.222 120.459 78.2958 120.184 78.5106 120.06L110.195 101.767C110.411 101.642 110.686 101.716 110.809 101.931C110.933 102.147 110.86 102.421 110.645 102.546L78.9606 120.838C78.8898 120.88 78.8124 120.899 78.7362 120.899Z" fill="#D3D4DA"/>
<path d="M78.7362 125.108C78.5802 125.108 78.429 125.027 78.3462 124.883C78.222 124.667 78.2958 124.392 78.5106 124.268L110.195 105.975C110.411 105.85 110.686 105.924 110.809 106.139C110.933 106.355 110.86 106.629 110.645 106.754L78.9606 125.047C78.8898 125.088 78.8124 125.108 78.7362 125.108Z" fill="#D3D4DA"/>
<path d="M78.7362 129.315C78.5802 129.315 78.429 129.235 78.3462 129.09C78.222 128.875 78.2958 128.6 78.5106 128.476L110.195 110.183C110.411 110.058 110.686 110.133 110.809 110.348C110.933 110.563 110.86 110.838 110.645 110.962L78.9606 129.255C78.8898 129.296 78.8124 129.315 78.7362 129.315Z" fill="#D3D4DA"/>
<path d="M78.7362 133.524C78.5802 133.524 78.429 133.443 78.3462 133.299C78.222 133.083 78.2958 132.809 78.5106 132.684L110.195 114.391C110.411 114.266 110.686 114.341 110.809 114.555C110.933 114.771 110.86 115.046 110.645 115.17L78.9606 133.463C78.8898 133.504 78.8124 133.524 78.7362 133.524Z" fill="#D3D4DA"/>
</svg>
