<svg width="141" height="125" viewBox="0 0 141 125" fill="none" xmlns="http://www.w3.org/2000/svg">
<path d="M81.4845 21.8859C60.5549 16.9891 48.5761 16.7548 48.5761 21.8859C48.5761 48.4569 29.1537 14.969 6.96256 42.8653C-0.544725 52.3026 -0.1841 76.1979 8.21612 86.6631C16.6163 97.1284 22.1663 98.5827 19.0824 100.931C17.7676 101.932 16.3268 100.391 14.8563 101.145C8.7276 104.286 16.8018 108.24 14.8563 110.726C13.0495 113.034 6.96254 108.92 3.11601 110.726C-0.757459 112.544 -0.502094 118.237 6.96256 120.529C10.441 121.598 46.4076 128.72 68.6557 121.598C92.8724 115.856 106.299 123.167 117.98 118.037C129.66 112.906 132.97 106.329 134.54 104.575C145.08 92.7949 141.304 77.3633 131.869 66.754C115.211 48.0243 109.398 28.4177 81.4845 21.8859Z" fill="#FAFAFA"/>
<path d="M84.5368 90.6736C84.5584 86.89 81.9304 82.2676 78.6652 80.356C76.9516 79.3516 75.4252 79.3012 74.32 80.0212L72.0808 81.2776L80.5012 95.7964L82.6972 94.54C83.8168 93.9352 84.5152 92.6032 84.5368 90.6736Z" fill="#444651"/>
<path d="M76.257 81.7205C79.5222 83.6357 82.1502 88.2545 82.1286 92.0381C82.107 95.8217 79.4358 97.3408 76.1706 95.4292C72.9054 93.5176 70.2774 88.8952 70.299 85.1116C70.3206 81.328 73.017 79.8089 76.257 81.7205Z" fill="#606370"/>
<path d="M76.2568 84.3881C78.2548 85.5581 79.8568 88.3804 79.8568 90.6916C79.8568 93.0028 78.2116 93.9316 76.2172 92.7616C74.2228 91.5916 72.6172 88.7693 72.6172 86.4581C72.6172 84.1469 74.2588 83.2181 76.2568 84.3881Z" fill="#444651"/>
<path d="M74.2913 83.9128C74.9808 83.8367 75.6751 84.0048 76.2533 84.388C78.2513 85.558 79.8533 88.3804 79.8533 90.6916C79.8689 91.2932 79.7182 91.8874 79.4177 92.4088C78.728 92.4818 78.0343 92.3125 77.4557 91.93C75.4577 90.7636 73.8557 87.9412 73.8557 85.6264C73.8392 85.0259 73.99 84.4326 74.2913 83.9128Z" fill="#2E3039"/>
<path d="M78.5681 89.4893C78.5352 88.8113 78.343 88.1507 78.0071 87.5608C77.6712 86.971 77.2011 86.4687 76.6349 86.0945C76.0697 85.7633 75.5549 85.7345 75.1949 85.9829L74.4749 86.3969L77.2469 91.1741L77.9669 90.7637C78.1741 90.6266 78.3398 90.4353 78.4458 90.2106C78.5518 89.9859 78.5941 89.7364 78.5681 89.4893Z" fill="#444651"/>
<path d="M75.8502 86.5444C76.4164 86.9186 76.8866 87.421 77.2225 88.0108C77.5583 88.6006 77.7505 89.2613 77.7834 89.9392C77.7834 91.1848 76.8978 91.6852 75.8214 91.0552C75.2546 90.6807 74.7842 90.1777 74.4483 89.5873C74.1124 88.9968 73.9205 88.3354 73.8882 87.6568C73.899 86.4112 74.7738 85.9144 75.8502 86.5444Z" fill="#606370"/>
<path d="M75.8428 87.7576C76.1031 87.931 76.3191 88.163 76.4735 88.435C76.6279 88.7069 76.7164 89.0113 76.732 89.3236C76.732 89.8996 76.3252 90.13 75.8284 89.8384C75.5674 89.6658 75.3508 89.4341 75.1962 89.1619C75.0417 88.8898 74.9537 88.585 74.9392 88.2724C74.9428 87.7 75.346 87.4696 75.8428 87.7576Z" fill="#2E3039"/>
<path d="M45.1565 50.53L97.3961 51.97L92.9501 102.33C92.9189 102.513 92.8439 102.684 92.7317 102.831C92.6195 102.978 92.4733 103.095 92.3057 103.173L71.0117 115.478C70.522 115.726 69.9805 115.856 69.4313 115.856C68.8821 115.856 68.3406 115.726 67.8509 115.478L50.2577 105.3C50.0908 105.222 49.9453 105.105 49.8337 104.958C49.7221 104.811 49.6477 104.64 49.6169 104.458L45.1565 50.53Z" fill="#FF5E0E"/>
<path d="M69.4167 50.53L97.3815 51.97L92.9499 102.33C92.9187 102.513 92.8438 102.684 92.7316 102.831C92.6193 102.978 92.4731 103.095 92.3055 103.173L71.0115 115.478C70.5195 115.732 69.9704 115.856 69.4167 115.838V50.53Z" fill="#FF5E0E"/>
<path opacity="0.2" d="M69.4167 50.53L97.3815 51.97L92.9499 102.33C92.9187 102.513 92.8438 102.684 92.7316 102.831C92.6193 102.978 92.4731 103.095 92.3055 103.173L71.0115 115.478C70.5195 115.732 69.9704 115.856 69.4167 115.838V50.53Z" fill="white"/>
<path d="M85.6421 107.014L77.4521 111.741V97.132L86.6969 91.7932L85.6421 107.014Z" fill="#FF5E0E"/>
<path opacity="0.15" d="M85.6421 107.014L77.4521 111.741V97.132L86.6969 91.7932L85.6421 107.014Z" fill="black"/>
<path d="M84.3209 106.254L77.4521 110.218V97.132L85.2641 92.6212L84.3209 106.254Z" fill="#FF5E0E"/>
<path d="M85.6421 107.014L84.3209 106.254L77.4521 110.218V111.741L85.6421 107.014Z" fill="#FF5E0E"/>
<path opacity="0.05" d="M85.6421 107.014L84.3209 106.254L77.4521 110.218V111.741L85.6421 107.014Z" fill="black"/>
<path d="M71.0116 67.7812L96.7444 52.9276C97.6156 52.4272 97.6156 51.61 96.7444 51.106L74.7052 34.8088C74.2155 34.5603 73.674 34.4307 73.1248 34.4307C72.5756 34.4307 72.0341 34.5603 71.5444 34.8088L45.8116 49.6588C44.9404 50.1628 44.9404 50.98 45.8116 51.484L67.8508 67.7812C68.3405 68.0298 68.882 68.1593 69.4312 68.1593C69.9804 68.1593 70.5219 68.0298 71.0116 67.7812Z" fill="#FF5E0E"/>
<path opacity="0.25" d="M71.0116 67.7812L96.7444 52.9276C97.6156 52.4272 97.6156 51.61 96.7444 51.106L74.7052 34.8088C74.2155 34.5603 73.674 34.4307 73.1248 34.4307C72.5756 34.4307 72.0341 34.5603 71.5444 34.8088L45.8116 49.6588C44.9404 50.1628 44.9404 50.98 45.8116 51.484L67.8508 67.7812C68.3405 68.0298 68.882 68.1593 69.4312 68.1593C69.9804 68.1593 70.5219 68.0298 71.0116 67.7812Z" fill="white"/>
<path d="M69.417 67.0648C69.7754 67.0738 70.1305 66.9934 70.4502 66.8308L96.1182 52.0168L74.1582 35.7556C73.8348 35.604 73.4821 35.5254 73.125 35.5254C72.7678 35.5254 72.4151 35.604 72.0918 35.7556L46.4202 50.5732L68.3982 66.8308C68.7135 66.991 69.0633 67.0714 69.417 67.0648Z" fill="#FF5E0E"/>
<path opacity="0.15" d="M69.417 67.0648C69.7754 67.0738 70.1305 66.9934 70.4502 66.8308L96.1182 52.0168L74.1582 35.7556C73.8348 35.604 73.4821 35.5254 73.125 35.5254C72.7678 35.5254 72.4151 35.604 72.0918 35.7556L46.4202 50.5732L68.3982 66.8308C68.7135 66.991 69.0633 67.0714 69.417 67.0648Z" fill="black"/>
<path opacity="0.15" d="M73.0889 35.7988L73.1249 35.5253C73.483 35.5165 73.8377 35.5956 74.1581 35.7557L96.1181 52.0168L73.0781 65.2324L73.0889 35.7988Z" fill="black"/>
<path d="M39.6197 18.4757L42.2081 44.6405C42.2873 45.4649 42.9677 45.7817 43.7237 45.3605L65.9933 29.3477C66.3789 29.1075 66.6946 28.7703 66.9088 28.3697C67.123 27.9691 67.2281 27.5193 67.2137 27.0653L64.8989 3.87766C64.8197 3.05326 64.1393 2.73646 63.3833 3.15766L40.8401 16.1933C40.4545 16.4334 40.1388 16.7707 39.9246 17.1712C39.7105 17.5718 39.6053 18.0216 39.6197 18.4757Z" fill="#FF5E0E"/>
<path d="M41.3909 48.028L38.4569 18.1948C38.4551 18.1745 38.4551 18.154 38.4569 18.1336V18.0688C38.4419 17.5686 38.5576 17.0732 38.7924 16.6313C39.0272 16.1894 39.3732 15.8163 39.7961 15.5488L39.8933 15.4948L66.0941 0.374829C66.6737 0.0400289 67.2137 0.0832299 67.5341 0.41803L69.5285 2.50243C69.6993 2.7056 69.8014 2.95765 69.8201 3.22243L72.7001 32.278C72.7161 32.795 72.5962 33.3071 72.3524 33.7632C72.1085 34.2193 71.7493 34.6034 71.3105 34.8772L46.1105 49.4176C45.844 49.5839 45.5305 49.6585 45.2177 49.63C45.0701 49.6084 42.4889 49.1368 42.2009 49.0828C41.9675 49.0226 41.761 48.886 41.6143 48.6949C41.4675 48.5038 41.3888 48.269 41.3909 48.028Z" fill="#FF5E0E"/>
<path opacity="0.4" d="M41.3909 48.028L38.4569 18.1948C38.4551 18.1745 38.4551 18.154 38.4569 18.1336V18.0688C38.4419 17.5686 38.5576 17.0732 38.7924 16.6313C39.0272 16.1894 39.3732 15.8163 39.7961 15.5488L39.8933 15.4948L66.0941 0.374829C66.6737 0.0400289 67.2137 0.0832299 67.5341 0.41803L69.5285 2.50243C69.6993 2.7056 69.8014 2.95765 69.8201 3.22243L72.7001 32.278C72.7161 32.795 72.5962 33.3071 72.3524 33.7632C72.1085 34.2193 71.7493 34.6034 71.3105 34.8772L46.1105 49.4176C45.844 49.5839 45.5305 49.6585 45.2177 49.63C45.0701 49.6084 42.4889 49.1368 42.2009 49.0828C41.9675 49.0226 41.761 48.886 41.6143 48.6949C41.4675 48.5038 41.3888 48.269 41.3909 48.028Z" fill="white"/>
<path d="M41.5205 19.5556L44.4005 48.6112C44.4941 49.5508 45.2681 49.9108 46.1285 49.414L71.3285 34.8736C71.7673 34.5998 72.1265 34.2157 72.3704 33.7596C72.6142 33.3035 72.7341 32.7914 72.7181 32.2744L69.8381 3.21881C69.7445 2.27921 68.9705 1.91921 68.1101 2.41601L42.9101 16.9564C42.4713 17.2302 42.112 17.6143 41.8682 18.0704C41.6243 18.5266 41.5044 19.0387 41.5205 19.5556Z" fill="#FF5E0E"/>
<g opacity="0.65">
<path d="M41.5205 19.5556L44.4005 48.6112C44.4941 49.5508 45.2681 49.9108 46.1285 49.414L71.3285 34.8736C71.7673 34.5998 72.1265 34.2157 72.3704 33.7596C72.6142 33.3035 72.7341 32.7914 72.7181 32.2744L69.8381 3.21881C69.7445 2.27921 68.9705 1.91921 68.1101 2.41601L42.9101 16.9564C42.4713 17.2302 42.112 17.6143 41.8682 18.0704C41.6243 18.5266 41.5044 19.0387 41.5205 19.5556Z" fill="white"/>
<path d="M43.0828 19.4008C43.0978 19.1866 43.1605 18.9784 43.2664 18.7915C43.3723 18.6046 43.5187 18.4438 43.6948 18.3208L68.3368 4.09723L71.1412 32.4292C71.1262 32.6435 71.0634 32.8517 70.9575 33.0386C70.8516 33.2254 70.7053 33.3862 70.5292 33.5092L45.8908 47.7292L43.0828 19.4008Z" fill="#FF5E0E"/>
<path opacity="0.35" d="M43.0828 19.4008C43.0978 19.1866 43.1605 18.9784 43.2664 18.7915C43.3723 18.6046 43.5187 18.4438 43.6948 18.3208L68.3368 4.09723L71.1412 32.4292C71.1262 32.6435 71.0634 32.8517 70.9575 33.0386C70.8516 33.2254 70.7053 33.3862 70.5292 33.5092L45.8908 47.7292L43.0828 19.4008Z" fill="black"/>
<path d="M43.6948 18.3172C43.5187 18.4402 43.3723 18.601 43.2664 18.7879C43.1605 18.9748 43.0978 19.1829 43.0828 19.3972L45.6028 44.9572L67.8508 32.116C68.0269 31.993 68.1732 31.8322 68.2791 31.6453C68.385 31.4585 68.4478 31.2503 68.4628 31.036L65.9428 5.47601L43.6948 18.3172Z" fill="#FF5E0E"/>
<path opacity="0.15" d="M43.6948 18.3172C43.5187 18.4402 43.3723 18.601 43.2664 18.7879C43.1605 18.9748 43.0978 19.1829 43.0828 19.3972L45.6028 44.9572L67.8508 32.116C68.0269 31.993 68.1732 31.8322 68.2791 31.6453C68.385 31.4585 68.4478 31.2503 68.4628 31.036L65.9428 5.47601L43.6948 18.3172Z" fill="black"/>
</g>
<path d="M57.9976 106.035C58.0192 102.251 55.3768 97.6324 52.1368 95.7172C50.4232 94.7128 48.8968 94.6624 47.7916 95.3824L45.5596 96.6388L53.9692 111.158L56.1652 109.905C57.2776 109.296 57.9832 107.968 57.9976 106.035Z" fill="#444651"/>
<path d="M49.7392 97.0852C53.0044 98.9968 55.6324 103.616 55.6108 107.403C55.5892 111.19 52.918 112.706 49.6528 110.798C46.3876 108.89 43.7596 104.264 43.7848 100.48C43.81 96.6964 46.474 95.17 49.7392 97.0852Z" fill="#606370"/>
<path d="M49.7248 99.7492C51.7192 100.919 53.3248 103.742 53.3248 106.053C53.3248 108.364 51.6796 109.293 49.6852 108.123C47.6908 106.953 46.0852 104.134 46.0852 101.819C46.0852 99.5044 47.7268 98.5792 49.7248 99.7492Z" fill="#444651"/>
<path d="M47.763 99.2776C48.4523 99.2039 49.1458 99.3719 49.725 99.7528C51.7194 100.923 53.325 103.745 53.325 106.056C53.3421 106.658 53.1913 107.253 52.8894 107.774C52.2 107.848 51.5063 107.68 50.9274 107.298C48.933 106.128 47.3274 103.306 47.3274 100.995C47.3077 100.393 47.4587 99.7975 47.763 99.2776Z" fill="#2E3039"/>
<path d="M52.0361 104.85C52.0032 104.172 51.811 103.512 51.4751 102.922C51.1393 102.332 50.6691 101.83 50.1029 101.456C49.5377 101.124 49.0229 101.096 48.6629 101.344L47.9429 101.758L50.6969 106.539L51.4169 106.125C51.7985 105.927 52.0325 105.488 52.0361 104.85Z" fill="#444651"/>
<path d="M49.318 101.906C49.8842 102.28 50.3543 102.782 50.6902 103.372C51.0261 103.962 51.2183 104.622 51.2512 105.3C51.2512 106.546 50.3656 107.046 49.2892 106.416C48.7229 106.042 48.2528 105.54 47.9169 104.95C47.581 104.36 47.3888 103.7 47.356 103.022C47.3668 101.776 48.2416 101.276 49.318 101.906Z" fill="#606370"/>
<path d="M49.3108 103.122C49.5709 103.293 49.7869 103.523 49.9414 103.794C50.0959 104.064 50.1845 104.367 50.2 104.678C50.2 105.25 49.7932 105.48 49.2964 105.189C49.0356 105.016 48.8191 104.784 48.6646 104.512C48.5101 104.24 48.422 103.935 48.4072 103.623C48.4108 103.061 48.814 102.831 49.3108 103.122Z" fill="#2E3039"/>
<path d="M76.3938 77.2276L77.679 76.2988C78.6186 71.2588 80.9874 68.8648 83.799 67.6336C82.413 68.7496 80.5338 71.9536 80.145 74.5168L81.4302 73.5844C81.6822 73.4044 81.8406 73.6852 81.6858 74.0452L79.3818 79.4056C79.2774 79.6504 79.0794 79.7944 78.9534 79.7152L76.2138 78.0016C76.0302 77.8864 76.1418 77.4112 76.3938 77.2276Z" fill="#FAFAFA"/>
<path d="M81.592 71.5144C82.3624 69.7756 83.4712 68.1628 84.3712 67.4392C84.3712 67.4392 87.0928 66.6832 87.8416 70.1752C87.8416 70.1752 85.5412 67.9936 81.592 71.5144Z" fill="#FAFAFA"/>
<path d="M88.8208 70.96L88.2664 72.8392C90.7144 74.6176 90.1456 78.142 88.4032 82.1776C88.9288 80.14 88.5184 77.2204 87.1972 76.4464L86.6428 78.3256C86.5348 78.6856 86.2072 78.8836 86.11 78.6352L84.67 74.9272C84.6464 74.8149 84.6512 74.6985 84.6839 74.5885C84.7166 74.4786 84.7761 74.3784 84.8572 74.2972L88.4572 70.6396C88.7164 70.3948 88.9288 70.5928 88.8208 70.96Z" fill="#FAFAFA"/>
<path d="M87.8597 78.7576C88.3002 80.135 88.3538 81.607 88.0145 83.0128C88.0145 83.0128 86.0417 86.8756 83.0681 87.5956C83.0681 87.5776 86.5853 84.5752 87.8597 78.7576Z" fill="#FAFAFA"/>
<path d="M81.657 88.8736L80.937 87.9232C77.5458 91.1632 75.7494 90.0508 74.6802 87.25C75.5406 88.1716 77.8302 87.8692 79.5366 86.1016L78.8166 85.1512C78.7657 85.0097 78.766 84.8549 78.8172 84.7135C78.8685 84.5722 78.9676 84.4532 79.0974 84.3772L82.8162 82.7176C82.9854 82.642 83.1006 82.7896 83.061 83.0344L82.1898 88.4092C82.1286 88.78 81.8082 89.0572 81.657 88.8736Z" fill="#FAFAFA"/>
<path d="M77.4268 86.8072C76.2136 87.3076 75.0544 87.2248 74.4928 86.6272C74.4928 86.6272 73.744 83.5168 75.9688 79.3048C75.9688 79.3048 74.752 84.4924 77.4268 86.8072Z" fill="#FAFAFA"/>
</svg>
