<svg width="17" height="13" viewBox="0 0 17 13" fill="none" xmlns="http://www.w3.org/2000/svg">
<rect x="6.24988" y="1.25" width="10.4988" height="1.5" rx="0.5" fill="#D3D4DA"/>
<path d="M3.58321 8.83678H2.91654L2.91654 0.956612C2.91654 0.566361 2.61807 0.25 2.24988 0.25H0.916545C0.548355 0.25 0.249878 0.566361 0.249878 0.956612C0.249878 1.34686 0.548355 1.66322 0.916545 1.66322H1.58321V3.36983V8.83678H0.916545C0.548355 8.83678 0.249878 9.15314 0.249878 9.54339C0.249878 9.93364 0.548355 10.25 0.916545 10.25H3.58321C3.9514 10.25 4.24988 9.93364 4.24988 9.54339C4.24988 9.15314 3.9514 8.83678 3.58321 8.83678Z" fill="black"/>
<rect x="6.2511" y="6.25" width="10.4988" height="1.5" rx="0.5" fill="#D3D4DA"/>
<rect x="6.24988" y="11.25" width="10.4988" height="1.5" rx="0.5" fill="#D3D4DA"/>
</svg>
