<svg width="298" height="62" viewBox="0 0 298 62" fill="none" xmlns="http://www.w3.org/2000/svg">
<path d="M98.5175 32.4544C98.5175 36.8853 97.2712 40.2737 96.5591 41.8375C95.3128 44.5308 93.7105 46.8766 91.663 48.788C88.4583 51.8288 84.8975 53.8271 81.1587 54.5221C79.8234 54.7828 78.4881 54.9565 77.0638 54.9565C75.5505 54.9565 73.9481 54.7827 72.4348 54.4352C71.7226 54.2615 71.0995 54.0877 70.4763 53.9139C66.5595 52.6976 63.0877 50.1781 60.7732 46.9635C58.9038 44.2702 57.8356 41.0556 57.7465 37.6672V37.5804L58.1916 37.6672L63.0877 38.3623L63.6218 38.4492C63.7999 39.6655 64.245 40.7081 64.7791 41.7506C64.9571 42.185 65.2242 42.5326 65.4912 42.967C66.2924 44.0964 67.2716 45.0521 68.4289 45.9209C69.1411 46.4422 69.8532 46.7897 70.5654 47.1372C71.1885 47.3979 71.9006 47.6585 72.6128 47.8323C73.681 48.0929 74.8383 48.2667 75.9956 48.2667C76.3516 48.2667 76.7077 48.2667 77.0638 48.2667C78.5771 48.1798 80.0014 47.8323 81.4257 47.2241C81.7818 47.0504 82.1379 46.8766 82.494 46.7028C83.7403 46.0078 84.8975 45.2259 85.8767 44.2702C86.5889 43.5751 87.212 42.7932 87.7461 41.9244C88.4583 40.7949 89.0814 39.5786 89.5265 38.1885C89.7046 37.6672 89.7936 37.2328 89.9716 36.7115C90.3277 35.2346 90.5058 33.6707 90.4167 32.1937C90.4167 31.8462 90.4167 31.4987 90.3277 31.0643C90.2387 29.848 89.9716 28.7185 89.5265 27.5891C89.0814 26.3727 88.5473 25.2433 87.8352 24.2007C87.034 23.0713 86.1438 22.0287 85.1646 21.1599C84.5414 20.6386 83.9183 20.1173 83.3842 19.7698C82.583 19.2485 81.7818 18.8141 80.8917 18.3797C79.7344 17.8584 78.4881 17.424 77.1528 17.0765C77.0638 17.0765 76.9748 16.9896 76.7967 16.9896H76.7077C75.3724 16.729 73.9481 16.5552 72.5238 16.5552C72.4348 16.5552 72.3458 16.5552 72.2567 16.5552C70.8324 16.5552 69.3191 16.729 67.8948 17.0765C67.8058 17.0765 67.6277 17.1634 67.5387 17.1634C66.2924 17.5109 64.9571 18.0322 63.7999 18.6403C62.6426 19.2485 61.4854 20.0304 60.4171 20.8992C59.3489 21.7681 58.2806 22.8106 57.3904 24.027C56.8563 24.722 56.4112 25.417 55.9661 26.1121C55.7881 26.4596 55.521 26.894 55.343 27.3284L54.8089 27.2415L46.5301 26.0252L46.085 25.9383V25.8514C48.1324 20.6386 50.714 17.0765 54.9869 13.6881C59.705 9.95226 64.6011 8.56217 67.0936 8.12776C68.696 7.86712 70.3873 7.69336 72.0787 7.69336V8.12776V7.69336C75.4614 7.69336 78.8442 8.30153 81.9599 9.51786C87.212 11.5161 90.5948 14.7307 92.1081 16.3814C93.9775 18.4666 95.4909 20.8124 96.5591 23.3319C97.4493 25.5039 97.9834 27.7628 98.2505 30.0217C98.4285 30.9774 98.5175 31.7593 98.5175 32.4544Z" fill="#FF5E0E"/>
<path d="M51.9929 36.6639C51.9929 36.7514 51.9929 36.839 51.9052 36.839V36.9265C51.4663 38.2394 50.9397 39.4647 50.3254 40.6025C49.6232 42.0029 48.7456 43.3158 47.7802 44.4536C47.078 45.4164 46.2004 46.2916 45.3227 47.1668C44.2695 48.1296 43.1286 49.0924 41.7243 50.0551C41.11 50.4928 40.4078 50.9304 39.7935 51.2805C39.0036 51.7181 38.1259 52.2433 37.2483 52.5934C36.1951 53.031 35.2296 53.4686 34.2642 53.7312C33.211 54.0813 32.1578 54.3438 31.1924 54.5189C29.6126 54.7815 28.0328 54.9565 26.3653 54.9565H26.2775C24.7855 54.9565 23.2935 54.869 21.8015 54.6064C21.0116 54.4314 20.1339 54.2563 19.344 54.0813C18.3786 53.8187 17.5009 53.5561 16.6233 53.206C15.219 52.6809 13.9025 51.9807 12.586 51.2805C11.4451 50.5803 10.3041 49.7926 9.25096 48.9173C8.19777 48.0421 7.3201 47.1668 6.44244 46.2916C5.38925 45.1538 4.51158 43.8409 3.72169 42.5281C3.01956 41.3027 2.31745 39.9898 1.79086 38.5895C1.26426 37.2766 0.913184 35.9637 0.649886 34.7384C0.386589 33.338 0.298828 31.8501 0.298828 30.3622C0.298828 30.1871 0.298828 30.0996 0.298828 29.9245C0.298828 29.1368 0.386605 28.4366 0.474371 27.6489C0.649902 26.161 0.9132 24.7606 1.35203 23.3602C1.79086 21.8723 2.40522 20.3844 3.19512 19.0715C3.45841 18.6339 3.72171 18.1963 3.985 17.7587C4.16054 17.4086 4.42382 17.146 4.68712 16.7959C5.12595 16.1832 5.65255 15.5706 6.09138 15.0454C6.88127 14.0826 7.84671 13.2074 8.8999 12.3322C9.51426 11.807 10.2164 11.2819 10.9185 10.8442C11.7084 10.3191 12.586 9.88147 13.4637 9.44385C14.7802 8.83118 16.1845 8.39355 17.5887 8.13098C17.6765 8.13098 17.7642 8.13098 17.852 8.04346H17.9398C19.1685 7.78089 20.3972 7.69336 21.5382 7.69336H21.7137C22.7669 7.69336 23.8201 7.78088 24.8733 7.95593C26.3653 8.21851 27.8573 8.65613 29.3493 9.18127C30.3148 9.53137 31.2802 10.0565 32.0701 10.4941C33.3866 11.2819 34.6153 12.2446 35.6685 13.2949C36.2828 13.9076 36.8094 14.5203 37.2483 15.1329C37.9504 16.0957 38.5648 17.146 39.0913 18.1963C39.4424 18.984 39.7057 19.6842 39.969 20.4719C40.4078 21.8723 40.5834 23.3602 40.6711 25.0232V25.1107L40.2323 25.0232L35.3174 24.323L34.7908 24.2355C34.7031 23.7978 34.6153 23.4477 34.5275 23.0101C33.6498 20.0343 31.8068 18.2838 31.1924 17.6711C30.4025 16.8834 28.5594 15.483 25.9265 14.7828C24.8733 14.5203 23.7323 14.3452 22.5913 14.3452C19.6951 14.3452 16.8866 15.308 14.5169 17.0585C14.2536 17.2335 13.9903 17.4086 13.8148 17.5836C11.2696 19.6842 9.33871 23.0101 8.63658 26.7737C8.10999 29.3994 8.28552 32.2002 9.07541 34.7384C10.4797 39.1146 13.3759 41.4778 14.3414 42.2655C17.4132 44.8912 21.7137 46.3791 26.0142 46.3791H26.102C27.7695 46.3791 29.4371 46.1166 31.0169 45.7665C34.8786 44.7162 38.477 42.2655 40.9344 39.1146C41.7243 38.0643 42.4264 36.9265 43.0408 35.5261L43.5674 35.6136L51.7296 36.839L51.9929 36.6639Z" fill="#FF5E0E"/>
<path d="M37.9615 34.5426L37.8733 34.7184C37.6969 35.0701 37.4323 35.3338 37.1676 35.6855C36.1972 36.9163 35.1387 38.0592 33.9037 38.9384L33.8154 39.0263C32.5804 39.9054 31.169 40.6087 29.6693 41.0483C28.8754 41.3121 27.9932 41.4879 27.1111 41.5758C26.8464 41.5758 26.5818 41.6637 26.3172 41.6637C26.0525 41.6637 25.7879 41.6637 25.435 41.6637C24.4646 41.6637 23.4061 41.5758 22.4357 41.3121C21.4653 41.0483 20.4067 40.6967 19.5246 40.2571C18.5542 39.8175 17.6721 39.2021 16.8781 38.5867C15.9077 37.7955 15.0256 36.9163 14.3199 36.0372C13.4377 34.8064 12.732 33.4876 12.3791 32.081C12.2909 31.6414 12.1145 31.2018 12.1145 30.7623V30.5864L12.6438 30.6743L16.2606 31.2018L16.7899 31.2897C16.9663 31.6414 17.1428 32.081 17.3192 32.4326C18.3778 34.2789 19.7892 35.2459 20.5832 35.6855C22.171 36.5647 23.7589 36.7405 24.7293 36.7405C25.3468 36.7405 25.7878 36.6526 26.0525 36.6526C28.4343 36.3009 29.934 35.158 30.6397 34.6305C31.0808 34.2789 31.4336 33.9272 31.8747 33.5755L32.404 33.6635L37.5205 34.4547L37.9615 34.5426Z" fill="#FF5E0E"/>
<path d="M86.7018 32.0634L86.1707 31.9748L82.4529 31.4431L81.9219 31.3545C81.8333 31 81.6563 30.7342 81.4793 30.3797C80.8596 29.2277 79.9745 28.2529 79.0893 27.5439C78.9123 27.4553 78.8237 27.3667 78.6467 27.1894C77.496 26.4805 76.1682 26.0374 74.8405 25.8602C74.6634 25.8602 74.4864 25.8602 74.3094 25.8602C74.2208 25.8602 74.1323 25.8602 74.0438 25.8602C72.8046 25.8602 71.6538 26.126 70.5031 26.5691C69.2639 27.1008 68.1131 27.8984 67.0509 28.9618L66.9624 29.0504L66.4313 28.9618L61.3858 28.1642L60.8547 28.0756L60.9433 27.8984C61.6514 26.7463 62.5366 25.6829 63.5103 24.7967C64.838 23.5561 66.4313 22.5813 68.0246 21.9609C69.7065 21.3406 71.4768 20.9861 73.2471 20.9861C73.9553 20.9861 74.5749 21.0748 75.2831 21.1634C79.4434 21.7837 83.2496 24.3536 85.2855 27.8984C85.9936 29.139 86.5247 30.5569 86.7018 31.9748V32.0634Z" fill="#FF5E0E"/>
<path d="M125.628 16.2316C125.537 15.3149 125.147 14.6028 124.457 14.0952C123.768 13.5876 122.832 13.3338 121.65 13.3338C120.847 13.3338 120.169 13.4475 119.616 13.6747C119.063 13.8944 118.639 14.2012 118.344 14.5952C118.056 14.9891 117.912 15.4361 117.912 15.9361C117.897 16.3528 117.984 16.7164 118.173 17.027C118.37 17.3376 118.639 17.6066 118.98 17.8338C119.321 18.0535 119.715 18.2467 120.162 18.4134C120.609 18.5725 121.086 18.7088 121.594 18.8225L123.685 19.3225C124.7 19.5497 125.631 19.8528 126.48 20.2316C127.328 20.6103 128.063 21.0762 128.685 21.6293C129.306 22.1823 129.787 22.8338 130.128 23.5838C130.476 24.3338 130.654 25.1937 130.662 26.1634C130.654 27.5876 130.291 28.8225 129.571 29.8679C128.859 30.9058 127.828 31.7126 126.48 32.2884C125.139 32.8566 123.522 33.1406 121.628 33.1406C119.749 33.1406 118.113 32.8528 116.719 32.277C115.332 31.7012 114.249 30.849 113.469 29.7202C112.696 28.5838 112.291 27.1785 112.253 25.5043H117.014C117.067 26.2846 117.291 26.9361 117.685 27.4588C118.086 27.974 118.62 28.3641 119.287 28.6293C119.961 28.8869 120.722 29.0156 121.571 29.0156C122.404 29.0156 123.128 28.8944 123.741 28.652C124.363 28.4096 124.844 28.0725 125.185 27.6406C125.525 27.2088 125.696 26.7126 125.696 26.152C125.696 25.6293 125.541 25.1899 125.23 24.8338C124.927 24.4778 124.48 24.1747 123.889 23.9247C123.306 23.6747 122.59 23.4475 121.741 23.2429L119.207 22.6066C117.245 22.1293 115.696 21.3831 114.56 20.3679C113.423 19.3528 112.859 17.9853 112.866 16.2656C112.859 14.8565 113.234 13.6255 113.991 12.5725C114.756 11.5194 115.806 10.6975 117.139 10.1066C118.472 9.51564 119.988 9.22019 121.685 9.22019C123.412 9.22019 124.919 9.51564 126.207 10.1066C127.503 10.6975 128.51 11.5194 129.23 12.5725C129.95 13.6255 130.321 14.8452 130.344 16.2316H125.628ZM133.881 32.8111V15.3566H138.494V18.4361H138.699C139.062 17.4134 139.668 16.6066 140.517 16.0156C141.365 15.4247 142.381 15.1293 143.562 15.1293C144.759 15.1293 145.778 15.4285 146.619 16.027C147.46 16.6179 148.021 17.4209 148.301 18.4361H148.483C148.839 17.4361 149.483 16.6369 150.415 16.0384C151.354 15.4323 152.464 15.1293 153.744 15.1293C155.373 15.1293 156.695 15.6482 157.71 16.6861C158.733 17.7164 159.244 19.1785 159.244 21.0725V32.8111H154.415V22.027C154.415 21.0573 154.157 20.33 153.642 19.8452C153.127 19.3603 152.483 19.1179 151.71 19.1179C150.831 19.1179 150.146 19.3982 149.653 19.9588C149.161 20.5119 148.915 21.2429 148.915 22.152V32.8111H144.221V21.9247C144.221 21.0687 143.975 20.3869 143.483 19.8793C142.998 19.3717 142.358 19.1179 141.562 19.1179C141.024 19.1179 140.54 19.2543 140.108 19.527C139.684 19.7922 139.346 20.1672 139.096 20.652C138.846 21.1293 138.721 21.6899 138.721 22.3338V32.8111H133.881ZM168.045 33.1406C166.932 33.1406 165.939 32.9475 165.068 32.5611C164.197 32.1672 163.507 31.5876 163 30.8225C162.5 30.0497 162.25 29.0876 162.25 27.9361C162.25 26.9664 162.428 26.152 162.784 25.4929C163.14 24.8338 163.625 24.3035 164.239 23.902C164.852 23.5005 165.549 23.1975 166.329 22.9929C167.117 22.7884 167.943 22.6444 168.807 22.5611C169.822 22.455 170.64 22.3566 171.261 22.2656C171.882 22.1672 172.333 22.0232 172.614 21.8338C172.894 21.6444 173.034 21.3641 173.034 20.9929V20.9247C173.034 20.205 172.807 19.6482 172.352 19.2543C171.905 18.8603 171.269 18.6634 170.443 18.6634C169.572 18.6634 168.879 18.8566 168.364 19.2429C167.848 19.6217 167.507 20.099 167.341 20.6747L162.864 20.3111C163.091 19.2505 163.538 18.3338 164.204 17.5611C164.871 16.7808 165.731 16.1823 166.784 15.7656C167.845 15.3414 169.072 15.1293 170.466 15.1293C171.435 15.1293 172.364 15.2429 173.25 15.4702C174.144 15.6975 174.935 16.0497 175.625 16.527C176.322 17.0043 176.871 17.6179 177.273 18.3679C177.674 19.1103 177.875 20.0005 177.875 21.0384V32.8111H173.284V30.3906H173.148C172.867 30.9361 172.492 31.4172 172.023 31.8338C171.553 32.2429 170.989 32.5649 170.329 32.7997C169.67 33.027 168.909 33.1406 168.045 33.1406ZM169.432 29.7997C170.144 29.7997 170.773 29.6596 171.318 29.3793C171.864 29.0914 172.292 28.705 172.602 28.2202C172.913 27.7353 173.068 27.1861 173.068 26.5725V24.7202C172.917 24.8187 172.708 24.9096 172.443 24.9929C172.185 25.0687 171.894 25.1406 171.568 25.2088C171.242 25.2694 170.917 25.3262 170.591 25.3793C170.265 25.4247 169.97 25.4664 169.704 25.5043C169.136 25.5876 168.64 25.7202 168.216 25.902C167.792 26.0838 167.462 26.33 167.227 26.6406C166.992 26.9437 166.875 27.3225 166.875 27.777C166.875 28.4361 167.114 28.9399 167.591 29.2884C168.076 29.6293 168.689 29.7997 169.432 29.7997ZM181.631 32.8111V15.3566H186.324V18.402H186.506C186.824 17.3187 187.358 16.5005 188.108 15.9475C188.858 15.3869 189.721 15.1066 190.699 15.1066C190.941 15.1066 191.203 15.1217 191.483 15.152C191.763 15.1823 192.009 15.224 192.221 15.277V19.5725C191.994 19.5043 191.68 19.4437 191.278 19.3906C190.877 19.3376 190.509 19.3111 190.176 19.3111C189.464 19.3111 188.828 19.4664 188.267 19.777C187.714 20.08 187.274 20.5043 186.949 21.0497C186.631 21.5952 186.471 22.224 186.471 22.9361V32.8111H181.631ZM204.883 15.3566V18.9929H194.372V15.3566H204.883ZM196.758 11.1747H201.599V27.4475C201.599 27.8944 201.667 28.2429 201.804 28.4929C201.94 28.7353 202.13 28.9058 202.372 29.0043C202.622 29.1028 202.91 29.152 203.236 29.152C203.463 29.152 203.69 29.1331 203.917 29.0952C204.145 29.0497 204.319 29.0156 204.44 28.9929L205.202 32.5952C204.959 32.6709 204.618 32.7581 204.179 32.8566C203.739 32.9626 203.205 33.027 202.577 33.0497C201.41 33.0952 200.387 32.9399 199.508 32.5838C198.637 32.2278 197.959 31.6747 197.474 30.9247C196.989 30.1747 196.751 29.2278 196.758 28.0838V11.1747ZM215.736 33.152C213.948 33.152 212.41 32.7732 211.122 32.0156C209.842 31.2505 208.857 30.1899 208.167 28.8338C207.486 27.4778 207.145 25.9172 207.145 24.152C207.145 22.3641 207.489 20.7959 208.179 19.4475C208.876 18.0914 209.864 17.0346 211.145 16.277C212.425 15.5119 213.948 15.1293 215.713 15.1293C217.236 15.1293 218.569 15.4058 219.713 15.9588C220.857 16.5119 221.762 17.2884 222.429 18.2884C223.096 19.2884 223.463 20.4626 223.531 21.8111H218.963C218.834 20.9399 218.493 20.2391 217.94 19.7088C217.395 19.1709 216.679 18.902 215.792 18.902C215.042 18.902 214.387 19.1066 213.827 19.5156C213.274 19.9172 212.842 20.5043 212.531 21.277C212.221 22.0497 212.065 22.9853 212.065 24.0838C212.065 25.1975 212.217 26.1444 212.52 26.9247C212.83 27.705 213.266 28.2997 213.827 28.7088C214.387 29.1179 215.042 29.3225 215.792 29.3225C216.346 29.3225 216.842 29.2088 217.281 28.9816C217.728 28.7543 218.096 28.4247 218.383 27.9929C218.679 27.5535 218.872 27.027 218.963 26.4134H223.531C223.455 27.7467 223.092 28.9209 222.44 29.9361C221.796 30.9437 220.906 31.7316 219.77 32.2997C218.633 32.8679 217.289 33.152 215.736 33.152ZM234.517 33.152C232.752 33.152 231.225 32.777 229.937 32.027C228.657 31.2694 227.668 30.2164 226.971 28.8679C226.274 27.5119 225.926 25.9399 225.926 24.152C225.926 22.349 226.274 20.7732 226.971 19.4247C227.668 18.0687 228.657 17.0156 229.937 16.2656C231.225 15.5081 232.752 15.1293 234.517 15.1293C236.282 15.1293 237.805 15.5081 239.085 16.2656C240.373 17.0156 241.365 18.0687 242.062 19.4247C242.759 20.7732 243.108 22.349 243.108 24.152C243.108 25.9399 242.759 27.5119 242.062 28.8679C241.365 30.2164 240.373 31.2694 239.085 32.027C237.805 32.777 236.282 33.152 234.517 33.152ZM234.54 29.402C235.343 29.402 236.013 29.1747 236.551 28.7202C237.089 28.2581 237.494 27.6293 237.767 26.8338C238.047 26.0384 238.187 25.1331 238.187 24.1179C238.187 23.1028 238.047 22.1975 237.767 21.402C237.494 20.6066 237.089 19.9778 236.551 19.5156C236.013 19.0535 235.343 18.8225 234.54 18.8225C233.729 18.8225 233.047 19.0535 232.494 19.5156C231.949 19.9778 231.536 20.6066 231.256 21.402C230.983 22.1975 230.846 23.1028 230.846 24.1179C230.846 25.1331 230.983 26.0384 231.256 26.8338C231.536 27.6293 231.949 28.2581 232.494 28.7202C233.047 29.1747 233.729 29.402 234.54 29.402ZM254.142 33.152C252.377 33.152 250.85 32.777 249.562 32.027C248.282 31.2694 247.293 30.2164 246.596 28.8679C245.899 27.5119 245.551 25.9399 245.551 24.152C245.551 22.349 245.899 20.7732 246.596 19.4247C247.293 18.0687 248.282 17.0156 249.562 16.2656C250.85 15.5081 252.377 15.1293 254.142 15.1293C255.907 15.1293 257.43 15.5081 258.71 16.2656C259.998 17.0156 260.99 18.0687 261.687 19.4247C262.384 20.7732 262.733 22.349 262.733 24.152C262.733 25.9399 262.384 27.5119 261.687 28.8679C260.99 30.2164 259.998 31.2694 258.71 32.027C257.43 32.777 255.907 33.152 254.142 33.152ZM254.165 29.402C254.968 29.402 255.638 29.1747 256.176 28.7202C256.714 28.2581 257.119 27.6293 257.392 26.8338C257.672 26.0384 257.812 25.1331 257.812 24.1179C257.812 23.1028 257.672 22.1975 257.392 21.402C257.119 20.6066 256.714 19.9778 256.176 19.5156C255.638 19.0535 254.968 18.8225 254.165 18.8225C253.354 18.8225 252.672 19.0535 252.119 19.5156C251.574 19.9778 251.161 20.6066 250.881 21.402C250.608 22.1975 250.471 23.1028 250.471 24.1179C250.471 25.1331 250.608 26.0384 250.881 26.8338C251.161 27.6293 251.574 28.2581 252.119 28.7202C252.672 29.1747 253.354 29.402 254.165 29.402ZM265.881 32.8111V15.3566H270.574V18.402H270.756C271.074 17.3187 271.608 16.5005 272.358 15.9475C273.108 15.3869 273.971 15.1066 274.949 15.1066C275.191 15.1066 275.453 15.1217 275.733 15.152C276.013 15.1823 276.259 15.224 276.471 15.277V19.5725C276.244 19.5043 275.93 19.4437 275.528 19.3906C275.127 19.3376 274.759 19.3111 274.426 19.3111C273.714 19.3111 273.078 19.4664 272.517 19.777C271.964 20.08 271.524 20.5043 271.199 21.0497C270.881 21.5952 270.721 22.224 270.721 22.9361V32.8111H265.881ZM278.974 39.3566V15.3566H283.747V18.2884H283.963C284.175 17.8187 284.482 17.3414 284.883 16.8566C285.292 16.3641 285.823 15.955 286.474 15.6293C287.133 15.2959 287.952 15.1293 288.929 15.1293C290.202 15.1293 291.376 15.4626 292.452 16.1293C293.527 16.7884 294.387 17.7846 295.031 19.1179C295.675 20.4437 295.997 22.1066 295.997 24.1066C295.997 26.0535 295.683 27.6975 295.054 29.0384C294.433 30.3717 293.584 31.3831 292.508 32.0725C291.44 32.7543 290.243 33.0952 288.917 33.0952C287.978 33.0952 287.179 32.9399 286.52 32.6293C285.868 32.3187 285.334 31.9285 284.917 31.4588C284.501 30.9816 284.183 30.5005 283.963 30.0156H283.815V39.3566H278.974ZM283.713 24.0838C283.713 25.1217 283.857 26.027 284.145 26.7997C284.433 27.5725 284.849 28.1747 285.395 28.6066C285.94 29.0308 286.603 29.2429 287.383 29.2429C288.171 29.2429 288.838 29.027 289.383 28.5952C289.929 28.1558 290.342 27.5497 290.622 26.777C290.91 25.9967 291.054 25.099 291.054 24.0838C291.054 23.0762 290.914 22.1899 290.633 21.4247C290.353 20.6596 289.94 20.0611 289.395 19.6293C288.849 19.1975 288.179 18.9816 287.383 18.9816C286.596 18.9816 285.929 19.1899 285.383 19.6066C284.846 20.0232 284.433 20.6141 284.145 21.3793C283.857 22.1444 283.713 23.0459 283.713 24.0838Z" fill="#FAFAFA"/>
<path d="M119.516 44.6778C119.439 44.0301 119.128 43.5272 118.582 43.1693C118.037 42.8113 117.368 42.6323 116.575 42.6323C115.996 42.6323 115.489 42.7261 115.054 42.9136C114.624 43.1011 114.287 43.3589 114.044 43.687C113.805 44.0151 113.686 44.388 113.686 44.8056C113.686 45.1551 113.769 45.4555 113.935 45.7069C114.106 45.9541 114.323 46.1607 114.587 46.3269C114.851 46.4889 115.128 46.6231 115.418 46.7296C115.708 46.8319 115.974 46.915 116.217 46.9789L117.547 47.3369C117.888 47.4264 118.267 47.5499 118.685 47.7076C119.106 47.8653 119.509 48.0805 119.893 48.3532C120.28 48.6217 120.6 48.9669 120.851 49.3887C121.103 49.8106 121.229 50.3284 121.229 50.942C121.229 51.6494 121.043 52.2886 120.673 52.8596C120.306 53.4306 119.769 53.8845 119.062 54.2211C118.359 54.5578 117.504 54.7261 116.499 54.7261C115.561 54.7261 114.749 54.5748 114.063 54.2723C113.381 53.9697 112.844 53.5478 112.452 53.0066C112.065 52.4654 111.845 51.8369 111.794 51.121H113.43C113.473 51.6153 113.639 52.0244 113.929 52.3482C114.223 52.6678 114.594 52.9065 115.041 53.0642C115.493 53.2176 115.979 53.2943 116.499 53.2943C117.104 53.2943 117.647 53.1963 118.128 53.0002C118.61 52.7999 118.991 52.523 119.273 52.1693C119.554 51.8113 119.695 51.3937 119.695 50.9164C119.695 50.4818 119.573 50.1281 119.33 49.8553C119.087 49.5826 118.768 49.361 118.371 49.1906C117.975 49.0201 117.547 48.871 117.087 48.7431L115.476 48.2829C114.453 47.9889 113.643 47.5691 113.047 47.0237C112.45 46.4782 112.152 45.7644 112.152 44.8823C112.152 44.1494 112.35 43.5102 112.746 42.9647C113.147 42.415 113.684 41.9889 114.357 41.6863C115.035 41.3795 115.791 41.2261 116.626 41.2261C117.47 41.2261 118.22 41.3774 118.876 41.6799C119.533 41.9782 120.052 42.3873 120.436 42.9072C120.824 43.4271 121.028 44.0173 121.05 44.6778H119.516ZM123.63 54.496V44.6778H125.088V46.2119H125.216C125.42 45.6877 125.75 45.2808 126.206 44.991C126.662 44.697 127.21 44.5499 127.849 44.5499C128.497 44.5499 129.036 44.697 129.466 44.991C129.901 45.2808 130.24 45.6877 130.483 46.2119H130.585C130.836 45.7048 131.214 45.3021 131.716 45.0038C132.219 44.7012 132.822 44.5499 133.525 44.5499C134.403 44.5499 135.121 44.8248 135.679 45.3745C136.238 45.92 136.517 46.7701 136.517 47.9249V54.496H135.008V47.9249C135.008 47.2005 134.81 46.6828 134.414 46.3717C134.018 46.0606 133.551 45.9051 133.014 45.9051C132.324 45.9051 131.789 46.1139 131.41 46.5315C131.03 46.9448 130.841 47.469 130.841 48.1039V54.496H129.307V47.7715C129.307 47.2133 129.125 46.7637 128.763 46.4228C128.401 46.0776 127.934 45.9051 127.363 45.9051C126.971 45.9051 126.605 46.0095 126.264 46.2183C125.927 46.4271 125.655 46.7169 125.446 47.0876C125.241 47.4541 125.139 47.8781 125.139 48.3596V54.496H123.63ZM142.164 54.7261C141.542 54.7261 140.977 54.6089 140.47 54.3745C139.963 54.1359 139.56 53.7928 139.262 53.3454C138.964 52.8937 138.815 52.3482 138.815 51.709C138.815 51.1465 138.926 50.6906 139.147 50.3411C139.369 49.9874 139.665 49.7105 140.036 49.5102C140.406 49.3099 140.815 49.1607 141.263 49.0627C141.715 48.9605 142.168 48.8795 142.624 48.8198C143.221 48.7431 143.705 48.6856 144.075 48.6472C144.45 48.6046 144.723 48.5343 144.894 48.4363C145.068 48.3383 145.156 48.1678 145.156 47.9249V47.8738C145.156 47.2431 144.983 46.7531 144.638 46.4036C144.297 46.0542 143.779 45.8795 143.085 45.8795C142.364 45.8795 141.8 46.0372 141.391 46.3525C140.982 46.6678 140.694 47.0045 140.528 47.3624L139.096 46.8511C139.352 46.2545 139.693 45.79 140.119 45.4576C140.549 45.121 141.018 44.8866 141.525 44.7545C142.036 44.6181 142.539 44.5499 143.033 44.5499C143.349 44.5499 143.711 44.5883 144.12 44.665C144.533 44.7374 144.932 44.8887 145.315 45.1188C145.703 45.349 146.025 45.6963 146.281 46.1607C146.536 46.6252 146.664 47.2474 146.664 48.0272V54.496H145.156V53.1664H145.079C144.977 53.3795 144.806 53.6075 144.568 53.8504C144.329 54.0933 144.011 54.2999 143.615 54.4704C143.219 54.6409 142.735 54.7261 142.164 54.7261ZM142.394 53.371C142.991 53.371 143.494 53.2538 143.903 53.0194C144.316 52.785 144.627 52.4825 144.836 52.1117C145.049 51.741 145.156 51.3511 145.156 50.942V49.5613C145.092 49.638 144.951 49.7083 144.734 49.7722C144.521 49.8319 144.274 49.8852 143.992 49.9321C143.715 49.9747 143.445 50.013 143.181 50.0471C142.921 50.0769 142.71 50.1025 142.548 50.1238C142.156 50.1749 141.789 50.258 141.448 50.3731C141.112 50.4839 140.839 50.6522 140.63 50.8781C140.426 51.0997 140.323 51.4022 140.323 51.7857C140.323 52.3099 140.517 52.7062 140.905 52.9747C141.297 53.2389 141.793 53.371 142.394 53.371ZM149.418 54.496V44.6778H150.875V46.1607H150.977C151.156 45.6749 151.48 45.2808 151.949 44.9782C152.418 44.6757 152.946 44.5244 153.534 44.5244C153.645 44.5244 153.783 44.5265 153.95 44.5308C154.116 44.535 154.241 44.5414 154.327 44.5499V46.084C154.276 46.0713 154.158 46.0521 153.975 46.0265C153.796 45.9967 153.606 45.9818 153.406 45.9818C152.929 45.9818 152.503 46.0819 152.128 46.2822C151.757 46.4782 151.463 46.7509 151.246 47.1004C151.033 47.4455 150.926 47.8397 150.926 48.2829V54.496H149.418ZM161 44.6778V45.9562H155.912V44.6778H161ZM157.395 42.3255H158.903V51.6835C158.903 52.1096 158.965 52.4292 159.089 52.6423C159.217 52.8511 159.378 52.9917 159.575 53.0642C159.775 53.1323 159.986 53.1664 160.207 53.1664C160.374 53.1664 160.51 53.1579 160.616 53.1409C160.723 53.1196 160.808 53.1025 160.872 53.0897L161.179 54.4448C161.077 54.4832 160.934 54.5215 160.751 54.5599C160.567 54.6025 160.335 54.6238 160.054 54.6238C159.628 54.6238 159.21 54.5322 158.801 54.349C158.396 54.1657 158.06 53.8866 157.791 53.5116C157.527 53.1366 157.395 52.6636 157.395 52.0926V42.3255ZM168.543 48.1806V49.5869H162.815V48.1806H168.543ZM174.904 54.7005C174.086 54.7005 173.364 54.4938 172.737 54.0805C172.111 53.6629 171.621 53.0748 171.267 52.3163C170.913 51.5535 170.737 50.6522 170.737 49.6124C170.737 48.5812 170.913 47.6863 171.267 46.9278C171.621 46.1693 172.113 45.5833 172.744 45.17C173.374 44.7566 174.103 44.5499 174.93 44.5499C175.569 44.5499 176.074 44.6565 176.445 44.8696C176.82 45.0784 177.105 45.317 177.301 45.5855C177.502 45.8497 177.657 46.067 177.768 46.2374H177.896V41.4051H179.404V54.496H177.947V52.9874H177.768C177.657 53.1664 177.499 53.3923 177.295 53.665C177.09 53.9335 176.798 54.1742 176.419 54.3873C176.04 54.5961 175.535 54.7005 174.904 54.7005ZM175.109 53.3454C175.714 53.3454 176.225 53.1877 176.643 52.8724C177.06 52.5528 177.378 52.1117 177.595 51.5492C177.813 50.9825 177.921 50.3284 177.921 49.5869C177.921 48.8539 177.815 48.2126 177.602 47.6629C177.389 47.1089 177.073 46.6785 176.656 46.3717C176.238 46.0606 175.722 45.9051 175.109 45.9051C174.47 45.9051 173.937 46.0691 173.511 46.3972C173.089 46.7211 172.771 47.1622 172.558 47.7204C172.35 48.2744 172.245 48.8965 172.245 49.5869C172.245 50.2857 172.352 50.9207 172.565 51.4917C172.782 52.0585 173.102 52.5102 173.524 52.8468C173.95 53.1792 174.478 53.3454 175.109 53.3454ZM186.493 54.7005C185.547 54.7005 184.731 54.4917 184.045 54.0741C183.363 53.6522 182.837 53.0642 182.466 52.3099C182.1 51.5514 181.916 50.6693 181.916 49.6636C181.916 48.6579 182.1 47.7715 182.466 47.0045C182.837 46.2332 183.352 45.6323 184.013 45.2019C184.678 44.7673 185.453 44.5499 186.34 44.5499C186.851 44.5499 187.356 44.6352 187.855 44.8056C188.353 44.9761 188.807 45.2531 189.216 45.6366C189.625 46.0159 189.951 46.5187 190.194 47.1451C190.437 47.7715 190.558 48.5428 190.558 49.459V50.0982H182.99V48.7943H189.024C189.024 48.2403 188.913 47.746 188.692 47.3113C188.475 46.8767 188.163 46.5336 187.759 46.2822C187.358 46.0308 186.885 45.9051 186.34 45.9051C185.739 45.9051 185.219 46.0542 184.78 46.3525C184.345 46.6465 184.011 47.0301 183.776 47.5031C183.542 47.9761 183.425 48.4832 183.425 49.0244V49.8937C183.425 50.6352 183.553 51.2637 183.808 51.7794C184.068 52.2907 184.428 52.6806 184.889 52.9491C185.349 53.2133 185.884 53.3454 186.493 53.3454C186.889 53.3454 187.247 53.29 187.567 53.1792C187.891 53.0642 188.17 52.8937 188.404 52.6678C188.639 52.4377 188.82 52.1522 188.948 51.8113L190.405 52.2204C190.252 52.7147 189.994 53.1494 189.632 53.5244C189.269 53.8951 188.822 54.1849 188.289 54.3937C187.757 54.5982 187.158 54.7005 186.493 54.7005ZM199.808 46.8767L198.453 47.2602C198.367 47.0343 198.242 46.8149 198.075 46.6018C197.913 46.3845 197.692 46.2055 197.411 46.0649C197.129 45.9242 196.769 45.8539 196.33 45.8539C195.73 45.8539 195.229 45.9924 194.828 46.2694C194.432 46.5421 194.234 46.8894 194.234 47.3113C194.234 47.6863 194.37 47.9825 194.643 48.1998C194.916 48.4171 195.342 48.5982 195.921 48.7431L197.379 49.1011C198.257 49.3142 198.911 49.6401 199.341 50.0791C199.771 50.5137 199.987 51.0741 199.987 51.7602C199.987 52.3227 199.825 52.8255 199.501 53.2687C199.181 53.7119 198.734 54.0613 198.158 54.317C197.583 54.5727 196.914 54.7005 196.151 54.7005C195.15 54.7005 194.321 54.4832 193.665 54.0485C193.009 53.6139 192.593 52.9789 192.418 52.1437L193.85 51.7857C193.987 52.3142 194.244 52.7105 194.624 52.9747C195.007 53.2389 195.508 53.371 196.126 53.371C196.829 53.371 197.387 53.2218 197.801 52.9235C198.218 52.621 198.427 52.2588 198.427 51.8369C198.427 51.496 198.308 51.2105 198.069 50.9803C197.83 50.746 197.464 50.5713 196.97 50.4562L195.333 50.0727C194.434 49.8596 193.774 49.5294 193.352 49.0819C192.934 48.6302 192.725 48.0656 192.725 47.388C192.725 46.834 192.881 46.344 193.192 45.9178C193.507 45.4917 193.935 45.1572 194.477 44.9143C195.022 44.6714 195.64 44.5499 196.33 44.5499C197.302 44.5499 198.065 44.763 198.619 45.1892C199.177 45.6153 199.573 46.1778 199.808 46.8767ZM202.257 54.496V44.6778H203.766V54.496H202.257ZM203.024 43.0414C202.73 43.0414 202.477 42.9413 202.264 42.741C202.055 42.5407 201.951 42.2999 201.951 42.0187C201.951 41.7374 202.055 41.4967 202.264 41.2964C202.477 41.0961 202.73 40.996 203.024 40.996C203.318 40.996 203.57 41.0961 203.779 41.2964C203.992 41.4967 204.098 41.7374 204.098 42.0187C204.098 42.2999 203.992 42.5407 203.779 42.741C203.57 42.9413 203.318 43.0414 203.024 43.0414ZM210.492 58.3823C209.763 58.3823 209.137 58.2886 208.613 58.1011C208.089 57.9178 207.652 57.6749 207.302 57.3724C206.957 57.0741 206.682 56.7545 206.478 56.4136L207.679 55.5698C207.816 55.7488 207.988 55.9534 208.197 56.1835C208.406 56.4178 208.692 56.6203 209.054 56.7907C209.42 56.9654 209.9 57.0528 210.492 57.0528C211.285 57.0528 211.939 56.861 212.454 56.4775C212.97 56.094 213.228 55.4931 213.228 54.6749V52.6806H213.1C212.989 52.8596 212.831 53.0812 212.627 53.3454C212.427 53.6053 212.137 53.8376 211.758 54.0421C211.383 54.2424 210.875 54.3426 210.236 54.3426C209.444 54.3426 208.732 54.1551 208.101 53.7801C207.475 53.4051 206.978 52.8596 206.612 52.1437C206.25 51.4278 206.069 50.5585 206.069 49.5357C206.069 48.5301 206.245 47.6544 206.599 46.9086C206.953 46.1586 207.445 45.5791 208.076 45.17C208.706 44.7566 209.435 44.5499 210.262 44.5499C210.901 44.5499 211.408 44.6565 211.783 44.8696C212.162 45.0784 212.452 45.317 212.652 45.5855C212.857 45.8497 213.015 46.067 213.125 46.2374H213.279V44.6778H214.736V54.7772C214.736 55.621 214.545 56.3071 214.161 56.8355C213.782 57.3681 213.27 57.758 212.627 58.0052C211.988 58.2566 211.276 58.3823 210.492 58.3823ZM210.441 52.9874C211.046 52.9874 211.557 52.849 211.975 52.572C212.393 52.295 212.71 51.8965 212.927 51.3767C213.145 50.8568 213.253 50.2346 213.253 49.5102C213.253 48.8028 213.147 48.1785 212.934 47.6373C212.721 47.0961 212.405 46.6721 211.988 46.3653C211.57 46.0585 211.054 45.9051 210.441 45.9051C209.802 45.9051 209.269 46.067 208.843 46.3909C208.421 46.7147 208.103 47.1494 207.89 47.6948C207.682 48.2403 207.577 48.8454 207.577 49.5102C207.577 50.192 207.684 50.795 207.897 51.3191C208.114 51.839 208.434 52.2481 208.856 52.5464C209.282 52.8404 209.81 52.9874 210.441 52.9874ZM219.006 48.5897V54.496H217.498V44.6778H218.955V46.2119H219.083C219.313 45.7133 219.662 45.3127 220.131 45.0102C220.6 44.7034 221.205 44.5499 221.946 44.5499C222.611 44.5499 223.193 44.6863 223.692 44.959C224.19 45.2275 224.578 45.6366 224.855 46.1863C225.132 46.7318 225.27 47.4221 225.27 48.2573V54.496H223.762V48.3596C223.762 47.5883 223.562 46.9874 223.161 46.5571C222.76 46.1224 222.211 45.9051 221.512 45.9051C221.03 45.9051 220.6 46.0095 220.221 46.2183C219.846 46.4271 219.549 46.7318 219.332 47.1323C219.115 47.5329 219.006 48.0187 219.006 48.5897Z" fill="#9EA1AE"/>
</svg>
