<svg width="140" height="40" viewBox="0 0 140 40" fill="none" xmlns="http://www.w3.org/2000/svg">
<path d="M9.19533 5.62013C9.13283 4.98992 8.8646 4.50033 8.39064 4.15137C7.91668 3.80241 7.27345 3.62793 6.46095 3.62793C5.90886 3.62793 5.44272 3.70606 5.06251 3.86231C4.6823 4.01335 4.39063 4.22429 4.18751 4.49512C3.98959 4.76596 3.89063 5.07325 3.89063 5.417C3.88022 5.70346 3.94011 5.95346 4.07032 6.167C4.20574 6.38054 4.39063 6.56544 4.62501 6.72169C4.85938 6.87273 5.13022 7.00555 5.43751 7.12013C5.7448 7.2295 6.07293 7.32325 6.42189 7.40138L7.85939 7.74513C8.55731 7.90138 9.19793 8.10971 9.78127 8.37013C10.3646 8.63055 10.8698 8.95086 11.2969 9.33107C11.724 9.71128 12.0547 10.1592 12.2891 10.6748C12.5287 11.1904 12.6511 11.7816 12.6563 12.4483C12.6511 13.4274 12.4011 14.2764 11.9063 14.9951C11.4167 15.7087 10.7084 16.2634 9.78127 16.6592C8.85939 17.0498 7.74741 17.2451 6.44532 17.2451C5.15366 17.2451 4.02865 17.0472 3.07032 16.6514C2.11719 16.2556 1.3724 15.6696 0.835939 14.8936C0.304688 14.1123 0.0260417 13.1462 0 11.9951H3.27344C3.3099 12.5316 3.46355 12.9795 3.73438 13.3389C4.01042 13.6931 4.37761 13.9613 4.83595 14.1436C5.29949 14.3207 5.82293 14.4092 6.40626 14.4092C6.97918 14.4092 7.47658 14.3259 7.89845 14.1592C8.32554 13.9925 8.65627 13.7608 8.89064 13.4639C9.12502 13.167 9.2422 12.8259 9.2422 12.4405C9.2422 12.0811 9.13543 11.779 8.92189 11.5342C8.71356 11.2894 8.40627 11.0811 8.00001 10.9092C7.59897 10.7373 7.10678 10.5811 6.52345 10.4404L4.78126 10.0029C3.4323 9.67482 2.36719 9.1618 1.58594 8.46388C0.804689 7.76596 0.416667 6.82586 0.421876 5.64356C0.416667 4.67481 0.67448 3.82846 1.19531 3.1045C1.72136 2.38054 2.44271 1.81543 3.35938 1.40918C4.27605 1.00293 5.31772 0.799805 6.48439 0.799805C7.67189 0.799805 8.70835 1.00293 9.59377 1.40918C10.4844 1.81543 11.1771 2.38054 11.6719 3.1045C12.1667 3.82846 12.4219 4.667 12.4375 5.62013H9.19533Z" fill="black"/>
<path d="M14.8692 17.0186V5.01856H18.041V7.13575H18.1817C18.4317 6.43263 18.8483 5.87794 19.4317 5.47169C20.015 5.06544 20.7129 4.86231 21.5254 4.86231C22.3483 4.86231 23.0489 5.06804 23.627 5.4795C24.2051 5.88575 24.5905 6.43784 24.7832 7.13575H24.9082C25.153 6.44825 25.5957 5.89877 26.2364 5.48731C26.8822 5.07065 27.6452 4.86231 28.5254 4.86231C29.6452 4.86231 30.5541 5.21908 31.252 5.93263C31.9551 6.64096 32.3067 7.64617 32.3067 8.94826V17.0186H28.9864V9.60451C28.9864 8.93784 28.8093 8.43784 28.4551 8.10451C28.101 7.77117 27.6583 7.60451 27.127 7.60451C26.5228 7.60451 26.0515 7.79721 25.7129 8.18263C25.3744 8.56284 25.2051 9.06545 25.2051 9.69045V17.0186H21.9786V9.5342C21.9786 8.94565 21.8093 8.4769 21.4707 8.12794C21.1374 7.77898 20.6973 7.60451 20.1504 7.60451C19.7806 7.60451 19.4473 7.69826 19.1504 7.88576C18.8588 8.06805 18.627 8.32586 18.4551 8.6592C18.2832 8.98732 18.1973 9.37274 18.1973 9.81545V17.0186H14.8692Z" fill="black"/>
<path d="M38.3575 17.2451C37.5919 17.2451 36.9096 17.1123 36.3106 16.8467C35.7116 16.5759 35.2377 16.1774 34.8887 15.6514C34.545 15.1201 34.3731 14.4587 34.3731 13.667C34.3731 13.0003 34.4955 12.4405 34.7403 11.9873C34.9851 11.5342 35.3184 11.1696 35.7403 10.8936C36.1622 10.6175 36.6413 10.4092 37.1778 10.2686C37.7195 10.1279 38.2872 10.029 38.8809 9.9717C39.5788 9.89878 40.1413 9.83107 40.5684 9.76857C40.9955 9.70086 41.3054 9.6019 41.4981 9.4717C41.6908 9.34149 41.7872 9.14878 41.7872 8.89357V8.84669C41.7872 8.3519 41.6309 7.96909 41.3184 7.69826C41.0111 7.42742 40.5736 7.292 40.0059 7.292C39.407 7.292 38.9304 7.42482 38.5762 7.69044C38.2221 7.95086 37.9877 8.27899 37.8731 8.67482L34.795 8.42482C34.9512 7.69565 35.2585 7.06544 35.7169 6.53419C36.1752 5.99773 36.7663 5.58627 37.4903 5.29981C38.2195 5.00815 39.0632 4.86231 40.0216 4.86231C40.6882 4.86231 41.3262 4.94044 41.9356 5.09669C42.5502 5.25294 43.0945 5.49513 43.5684 5.82325C44.0476 6.15138 44.4252 6.57325 44.7012 7.08888C44.9773 7.5993 45.1153 8.21128 45.1153 8.92482V17.0186H41.9591V15.3545H41.8653C41.6726 15.7295 41.4148 16.0603 41.0919 16.3467C40.769 16.628 40.3809 16.8493 39.9278 17.0108C39.4747 17.167 38.9512 17.2451 38.3575 17.2451ZM39.3106 14.9483C39.8002 14.9483 40.2325 14.8519 40.6075 14.6592C40.9825 14.4613 41.2768 14.1957 41.4903 13.8623C41.7039 13.529 41.8106 13.1514 41.8106 12.7295V11.4561C41.7065 11.5238 41.5632 11.5863 41.3809 11.6436C41.2039 11.6957 41.0033 11.7451 40.7794 11.792C40.5554 11.8337 40.3315 11.8727 40.1075 11.9092C39.8835 11.9405 39.6804 11.9691 39.4981 11.9951C39.1075 12.0524 38.7663 12.1436 38.4747 12.2686C38.183 12.3936 37.9564 12.5628 37.795 12.7764C37.6335 12.9847 37.5528 13.2451 37.5528 13.5576C37.5528 14.0108 37.7169 14.3571 38.045 14.5967C38.3783 14.8311 38.8002 14.9483 39.3106 14.9483Z" fill="black"/>
<path d="M47.6973 17.0186V5.01856H50.9239V7.11232H51.0489C51.2677 6.36752 51.6349 5.80502 52.1505 5.42481C52.6661 5.0394 53.2599 4.84669 53.9317 4.84669C54.0984 4.84669 54.2781 4.8571 54.4708 4.87794C54.6635 4.89877 54.8328 4.92742 54.9786 4.96387V7.91701C54.8224 7.87013 54.6062 7.82846 54.3302 7.79201C54.0541 7.75555 53.8015 7.73732 53.5724 7.73732C53.0828 7.73732 52.6453 7.84409 52.2599 8.05763C51.8796 8.26596 51.5776 8.55763 51.3536 8.93263C51.1349 9.30763 51.0255 9.73993 51.0255 10.2295V17.0186H47.6973Z" fill="black"/>
<path d="M63.6837 5.01856V7.51857H56.4571V5.01856H63.6837ZM58.0978 2.14356H61.4259V13.3311C61.4259 13.6384 61.4728 13.878 61.5665 14.0498C61.6603 14.2165 61.7905 14.3337 61.9571 14.4014C62.129 14.4691 62.3269 14.503 62.5509 14.503C62.7071 14.503 62.8634 14.4899 63.0196 14.4639C63.1759 14.4326 63.2957 14.4092 63.379 14.3936L63.9025 16.8701C63.7358 16.9222 63.5014 16.9821 63.1993 17.0498C62.8972 17.1228 62.5301 17.167 62.0978 17.1826C61.2957 17.2139 60.5926 17.1071 59.9884 16.8623C59.3894 16.6175 58.9233 16.2373 58.5899 15.7217C58.2566 15.2061 58.0926 14.555 58.0978 13.7686V2.14356Z" fill="black"/>
<path d="M71.1447 17.253C69.9155 17.253 68.8582 16.9925 67.9728 16.4717C67.0926 15.9457 66.4155 15.2165 65.9415 14.2842C65.4728 13.3519 65.2384 12.279 65.2384 11.0654C65.2384 9.83628 65.4754 8.75815 65.9493 7.83107C66.4285 6.89877 67.1082 6.17221 67.9884 5.65138C68.8686 5.12533 69.9155 4.86231 71.129 4.86231C72.1759 4.86231 73.0926 5.05242 73.879 5.43263C74.6655 5.81283 75.2879 6.34669 75.7462 7.03419C76.2046 7.72169 76.4572 8.52899 76.504 9.45607H73.3634C73.2749 8.85711 73.0405 8.37534 72.6603 8.01076C72.2853 7.64096 71.7931 7.45607 71.1837 7.45607C70.6681 7.45607 70.2176 7.59669 69.8322 7.87794C69.4519 8.15399 69.1551 8.55763 68.9415 9.08888C68.728 9.62013 68.6212 10.2634 68.6212 11.0186C68.6212 11.7842 68.7254 12.4352 68.9337 12.9717C69.1473 13.5082 69.4467 13.917 69.8322 14.1983C70.2176 14.4795 70.6681 14.6201 71.1837 14.6201C71.5639 14.6201 71.9051 14.542 72.2072 14.3858C72.5144 14.2295 72.7671 14.003 72.965 13.7061C73.1681 13.404 73.3009 13.042 73.3634 12.6201H76.504C76.452 13.5368 76.202 14.3441 75.754 15.042C75.3113 15.7347 74.6993 16.2764 73.9181 16.667C73.1368 17.0576 72.2124 17.253 71.1447 17.253Z" fill="black"/>
<path d="M110.646 13.461L110.654 9.46877H111.139L114.982 4.91407H118.803L113.639 10.9453H112.85L110.646 13.461ZM107.631 16.9141V0.914064H110.959V16.9141H107.631ZM115.131 16.9141L111.6 11.6875L113.818 9.33595L119.029 16.9141H115.131Z" fill="black"/>
<path d="M120.436 16.9141V4.91407H123.764V16.9141H120.436ZM122.107 3.36719C121.613 3.36719 121.188 3.20313 120.834 2.875C120.485 2.54167 120.311 2.14323 120.311 1.67969C120.311 1.22136 120.485 0.828127 120.834 0.500002C121.188 0.166667 121.613 0 122.107 0C122.602 0 123.024 0.166667 123.373 0.500002C123.727 0.828127 123.904 1.22136 123.904 1.67969C123.904 2.14323 123.727 2.54167 123.373 2.875C123.024 3.20313 122.602 3.36719 122.107 3.36719Z" fill="black"/>
<path d="M131.898 17.1485C130.664 17.1485 129.602 16.8985 128.711 16.3985C127.826 15.8933 127.143 15.1797 126.664 14.2578C126.185 13.3308 125.945 12.2344 125.945 10.9688C125.945 9.73439 126.185 8.65106 126.664 7.71876C127.143 6.78647 127.818 6.05991 128.688 5.53907C129.563 5.01824 130.589 4.75782 131.766 4.75782C132.557 4.75782 133.294 4.88543 133.977 5.14063C134.664 5.39063 135.263 5.76824 135.773 6.27345C136.289 6.77866 136.69 7.41408 136.977 8.1797C137.263 8.94012 137.406 9.83075 137.406 10.8516V11.7656H127.273V9.70314H134.273C134.273 9.22398 134.169 8.7995 133.961 8.4297C133.753 8.05991 133.464 7.77085 133.094 7.56251C132.729 7.34897 132.305 7.2422 131.82 7.2422C131.315 7.2422 130.867 7.35939 130.477 7.59376C130.091 7.82293 129.789 8.13283 129.57 8.52345C129.352 8.90887 129.24 9.33856 129.234 9.81252V11.7735C129.234 12.3672 129.344 12.8802 129.563 13.3125C129.786 13.7448 130.102 14.0782 130.508 14.3125C130.914 14.5469 131.396 14.6641 131.953 14.6641C132.323 14.6641 132.662 14.612 132.969 14.5078C133.276 14.4037 133.539 14.2474 133.758 14.0391C133.977 13.8308 134.143 13.5755 134.258 13.2735L137.336 13.4766C137.18 14.2162 136.859 14.862 136.375 15.4141C135.896 15.961 135.276 16.3881 134.516 16.6953C133.76 16.9974 132.888 17.1485 131.898 17.1485Z" fill="black"/>
<path d="M82.9568 16.32C81.3948 15.6935 80.497 14.6981 80.2414 14.4006C79.5466 13.5989 79.2108 12.8207 79.0724 12.4705C78.756 11.6661 78.6685 10.9773 78.641 10.6197C78.6068 10.2232 78.6184 9.84584 78.6432 9.50744C78.7433 8.414 79.0861 7.63758 79.1832 7.42876C79.3903 6.97851 79.6431 6.55396 79.9482 6.16157C80.1235 5.93919 80.312 5.72974 80.52 5.53316C81.3131 4.77311 82.27 4.18755 83.3588 3.97182C84.1282 3.81685 84.9244 3.84383 85.6885 4.02062C85.8583 4.05847 86.0347 4.10927 86.198 4.16668C87.2238 4.51077 88.1596 5.20022 88.7699 6.09358C89.1768 6.68915 89.4209 7.38342 89.5085 8.0983L88.0523 7.80274C88.0061 7.66647 87.9469 7.53679 87.8811 7.40716C87.8154 7.28404 87.7497 7.16742 87.6709 7.05089C87.4478 6.72071 87.1595 6.43002 86.8388 6.18509C86.6491 6.04331 86.4398 5.92119 86.224 5.81212C86.041 5.72233 85.8515 5.6521 85.6555 5.59493C85.2439 5.47421 84.8066 5.43823 84.3761 5.46725C83.9521 5.49623 83.5348 5.5967 83.1374 5.76208C83.0332 5.80834 82.9355 5.85455 82.8379 5.90727C82.5058 6.0787 82.1934 6.30202 81.9204 6.56411C81.9009 6.57725 81.8879 6.59685 81.8684 6.61C81.6603 6.81309 81.4785 7.0355 81.3229 7.27725C81.1088 7.60397 80.934 7.96943 80.805 8.34109C80.7599 8.47799 80.7147 8.62141 80.6761 8.75827C80.5797 9.12969 80.529 9.51381 80.524 9.89761C80.5242 9.94964 80.5244 10.0017 80.5246 10.0537C80.525 10.1578 80.5319 10.2683 80.5454 10.3723C80.5793 10.7103 80.6459 11.048 80.7581 11.366C80.8769 11.7099 81.0348 12.047 81.2317 12.3514C81.4418 12.6816 81.6974 12.979 81.9856 13.2502C82.1428 13.3987 82.313 13.5406 82.4962 13.6629C82.7186 13.8175 82.9541 13.9524 83.196 14.0743C83.5294 14.2346 83.8757 14.3688 84.235 14.4574C84.2676 14.4636 84.3068 14.4764 84.346 14.4826C84.7574 14.5773 85.1752 14.6264 85.5993 14.6235C86.0104 14.6206 86.4213 14.5722 86.819 14.4784C86.8581 14.4716 86.8907 14.4584 86.9298 14.4516C87.3013 14.3514 87.6532 14.2124 87.9918 14.0409C88.3304 13.8629 88.6558 13.6525 88.9485 13.4098C89.2672 13.1474 89.5532 12.8462 89.8064 12.5257C89.9557 12.3361 90.0855 12.14 90.2021 11.9246C90.215 11.905 90.228 11.8854 90.2344 11.8593L92.5004 12.3183C91.9248 13.6102 91.2168 14.4477 90.228 15.2352C88.7709 16.3966 87.2843 16.6736 86.9387 16.7411C85.0673 17.0664 83.5711 16.5629 82.9568 16.32Z" fill="#FF5E0E"/>
<path d="M84.9097 13.0594C83.8265 12.8852 82.8131 12.2043 82.2747 11.2476C82.0908 10.9114 81.9654 10.5488 81.9053 10.1728L82.9495 10.3862C82.989 10.4898 83.035 10.5933 83.0876 10.6903C83.2649 11.007 83.4942 11.2845 83.782 11.5032C83.8278 11.5353 83.867 11.5675 83.9128 11.5931C84.2396 11.8115 84.6249 11.9451 85.0163 11.9813C85.0685 11.9874 85.1207 11.9936 85.1729 11.9932C85.5511 12.01 85.9356 11.9425 86.2872 11.8037C86.6192 11.6716 86.9184 11.4748 87.1849 11.2393L88.588 11.5216C88.4323 11.7304 88.2505 11.9263 88.0555 12.1029C87.2304 12.868 86.0385 13.2462 84.9097 13.0594Z" fill="#FF5E0E"/>
<path d="M99.6408 16.9619C99.3407 16.964 99.0339 16.9336 98.7401 16.8836C98.3222 16.815 97.9172 16.6942 97.525 16.5278C97.2702 16.4255 97.0217 16.2972 96.7862 16.1557C96.4396 15.9435 96.1123 15.6856 95.8306 15.3949C95.6734 15.2333 95.5357 15.0652 95.4045 14.8905C95.2143 14.6316 95.0435 14.3466 94.9119 14.0548C94.8198 13.8604 94.7407 13.6593 94.6811 13.4515C94.615 13.2244 94.5684 12.984 94.5414 12.75L96.0238 13.0519C96.2746 13.7852 96.7265 14.2243 96.9099 14.3987C97.0998 14.5795 97.6105 15.0247 98.414 15.2598C99.5376 15.5837 100.77 15.3279 101.713 14.6514C101.785 14.5988 101.85 14.5529 101.922 14.4938C102 14.4282 102.078 14.3626 102.156 14.2906C102.819 13.655 103.252 12.7739 103.438 11.888C103.502 11.5818 103.534 11.2759 103.539 10.9637C103.544 10.5083 103.477 10.0535 103.345 9.61861C102.968 8.38539 102.169 7.68849 101.874 7.44337C100.964 6.66918 99.7557 6.26133 98.5616 6.24363C98.0852 6.24045 97.6026 6.29585 97.1398 6.41615C96.0316 6.71007 94.9903 7.39379 94.276 8.28336C94.1007 8.50574 93.945 8.74748 93.809 8.9956L91.543 8.53007C91.6335 8.32129 91.7306 8.11248 91.8407 7.91007C92.0415 7.53792 92.2751 7.18506 92.5413 6.85798C92.7491 6.59636 92.9831 6.36057 93.2236 6.13124C93.5357 5.84287 93.8674 5.58038 94.2123 5.34382C94.3815 5.22556 94.5573 5.11376 94.7396 5.00842C94.9674 4.87674 95.2084 4.75798 95.4494 4.64573C95.7165 4.52679 95.9836 4.42085 96.2573 4.33439C96.5375 4.24788 96.8178 4.17438 97.1047 4.12034C97.5351 4.04579 97.9786 4.00368 98.4158 4.00713C98.8334 4.01073 99.2512 4.04684 99.6626 4.12203C99.8846 4.15951 100.113 4.20995 100.329 4.27349C100.583 4.34326 100.832 4.42609 101.08 4.52843C101.459 4.68189 101.825 4.86146 102.172 5.07369C102.486 5.26664 102.787 5.47919 103.068 5.71789C103.337 5.94367 103.586 6.1891 103.815 6.45418C104.09 6.77749 104.34 7.12048 104.55 7.48326C104.754 7.83308 104.918 8.19618 105.057 8.57247C105.182 8.91633 105.281 9.26688 105.341 9.63071C105.415 10.0595 105.443 10.4951 105.431 10.9375C105.425 11.0676 105.419 11.2042 105.407 11.3344C105.4 11.406 105.394 11.4841 105.381 11.5557C105.331 11.9529 105.254 12.3437 105.131 12.7218C105.003 13.1259 104.841 13.5173 104.627 13.8896C104.556 14.0071 104.484 14.1247 104.407 14.2423C104.348 14.3338 104.283 14.4188 104.218 14.5103C104.173 14.5692 104.134 14.628 104.089 14.6804C104.004 14.785 103.92 14.8897 103.829 14.9944C103.588 15.2627 103.328 15.5052 103.055 15.7348C102.88 15.8791 102.704 16.0104 102.509 16.1353C102.287 16.2735 102.059 16.3987 101.818 16.5044C101.46 16.663 101.082 16.7827 100.698 16.8635C100.671 16.8701 100.645 16.8768 100.619 16.877C100.306 16.9312 99.9736 16.9596 99.6408 16.9619Z" fill="#FF5E0E"/>
<path d="M102.15 10.6689L101.126 10.4619C101.086 10.3583 101.033 10.2419 100.968 10.1255C100.646 9.55665 100.188 9.2678 100.019 9.17163C99.3062 8.77423 98.6218 8.85038 98.4263 8.87121C97.755 8.96025 97.3063 9.28137 97.0982 9.43208C97.0202 9.49103 96.9552 9.5434 96.8837 9.6023L95.461 9.31368C95.7075 8.98747 96.0063 8.69985 96.338 8.45742C96.3444 8.45088 96.3575 8.4443 96.364 8.43777C96.7021 8.20178 97.0796 8.01744 97.4834 7.89782C97.7049 7.83138 97.9395 7.78432 98.1676 7.76326C98.2393 7.75627 98.3045 7.74933 98.3762 7.74883C98.7153 7.73349 99.061 7.75704 99.3938 7.83909C99.6614 7.90213 99.9292 7.99761 100.177 8.11919C100.426 8.24076 100.668 8.39483 100.883 8.56856C101.132 8.76801 101.368 9 101.558 9.25827C101.794 9.57462 101.965 9.93037 102.071 10.3125C102.104 10.4356 102.13 10.5522 102.15 10.6689Z" fill="#FF5E0E"/>
<path d="M5.82955 27.7075C5.77841 27.2757 5.57102 26.9404 5.20739 26.7018C4.84375 26.4632 4.39773 26.3438 3.86932 26.3438C3.48295 26.3438 3.14489 26.4063 2.85511 26.5313C2.56818 26.6563 2.34375 26.8282 2.18182 27.047C2.02273 27.2657 1.94318 27.5143 1.94318 27.7927C1.94318 28.0257 1.99858 28.2259 2.10938 28.3936C2.22301 28.5583 2.3679 28.6961 2.54403 28.8069C2.72017 28.9149 2.90483 29.0043 3.09801 29.0754C3.29119 29.1436 3.46875 29.199 3.63068 29.2416L4.51705 29.4802C4.74432 29.5399 4.99716 29.6222 5.27557 29.7274C5.55682 29.8325 5.82528 29.9759 6.08097 30.1578C6.33949 30.3367 6.55256 30.5668 6.72017 30.8481C6.88778 31.1294 6.97159 31.4745 6.97159 31.8836C6.97159 32.3552 6.84801 32.7813 6.60085 33.162C6.35653 33.5427 5.99858 33.8453 5.52699 34.0697C5.05824 34.2941 4.48864 34.4063 3.81818 34.4063C3.19318 34.4063 2.65199 34.3055 2.1946 34.1038C1.74006 33.9021 1.3821 33.6208 1.12074 33.26C0.862216 32.8992 0.715909 32.4802 0.681818 32.0029H1.77273C1.80114 32.3325 1.91193 32.6052 2.10511 32.8211C2.30114 33.0342 2.5483 33.1933 2.84659 33.2984C3.14773 33.4007 3.47159 33.4518 3.81818 33.4518C4.22159 33.4518 4.58381 33.3865 4.90483 33.2558C5.22585 33.1222 5.48011 32.9376 5.66761 32.7018C5.85511 32.4632 5.94886 32.1847 5.94886 31.8666C5.94886 31.5768 5.8679 31.341 5.70597 31.1592C5.54403 30.9774 5.33097 30.8296 5.06676 30.716C4.80256 30.6024 4.51705 30.5029 4.21023 30.4177L3.13636 30.1109C2.45455 29.9149 1.91477 29.635 1.51705 29.2714C1.11932 28.9078 0.920455 28.4319 0.920455 27.8438C0.920455 27.3552 1.05256 26.9291 1.31676 26.5654C1.58381 26.199 1.94176 25.9149 2.39062 25.7132C2.84233 25.5086 3.34659 25.4063 3.90341 25.4063C4.46591 25.4063 4.96591 25.5072 5.40341 25.7089C5.84091 25.9078 6.1875 26.1805 6.44318 26.5271C6.7017 26.8737 6.83807 27.2671 6.85227 27.7075H5.82955ZM8.5728 34.2529V27.7075H9.54439V28.7302H9.62962C9.76598 28.3808 9.98615 28.1095 10.2901 27.9163C10.5941 27.7203 10.9592 27.6222 11.3853 27.6222C11.8171 27.6222 12.1765 27.7203 12.4634 27.9163C12.7532 28.1095 12.979 28.3808 13.141 28.7302H13.2092C13.3768 28.3921 13.6282 28.1237 13.9634 27.9248C14.2987 27.7231 14.7006 27.6222 15.1694 27.6222C15.7546 27.6222 16.2333 27.8055 16.6055 28.172C16.9776 28.5356 17.1637 29.1024 17.1637 29.8722V34.2529H16.158V29.8722C16.158 29.3893 16.0259 29.0441 15.7617 28.8367C15.4975 28.6293 15.1864 28.5257 14.8285 28.5257C14.3683 28.5257 14.0117 28.6649 13.7589 28.9433C13.506 29.2188 13.3796 29.5683 13.3796 29.9916V34.2529H12.3569V29.77C12.3569 29.3978 12.2362 29.0981 11.9947 28.8708C11.7532 28.6407 11.4421 28.5257 11.0614 28.5257C10.8001 28.5257 10.5558 28.5953 10.3285 28.7345C10.104 28.8737 9.92223 29.0669 9.78303 29.314C9.64666 29.5583 9.57848 29.841 9.57848 30.162V34.2529H8.5728ZM20.9286 34.4063C20.5138 34.4063 20.1374 34.3282 19.7994 34.172C19.4613 34.0129 19.1928 33.7842 18.994 33.4859C18.7951 33.1847 18.6957 32.8211 18.6957 32.395C18.6957 32.02 18.7695 31.716 18.9173 31.483C19.065 31.2472 19.2624 31.0626 19.5096 30.9291C19.7567 30.7955 20.0295 30.6961 20.3278 30.6308C20.6289 30.5626 20.9315 30.5086 21.2354 30.4688C21.6332 30.4177 21.9556 30.3793 22.2028 30.3538C22.4528 30.3254 22.6346 30.2785 22.7482 30.2132C22.8647 30.1478 22.9229 30.0342 22.9229 29.8722V29.8382C22.9229 29.4177 22.8079 29.091 22.5778 28.858C22.3505 28.6251 22.0053 28.5086 21.5423 28.5086C21.0621 28.5086 20.6857 28.6137 20.413 28.824C20.1403 29.0342 19.9485 29.2586 19.8377 29.4972L18.8832 29.1563C19.0536 28.7586 19.2809 28.449 19.565 28.2274C19.8519 28.0029 20.1644 27.8467 20.5025 27.7586C20.8434 27.6677 21.1786 27.6222 21.5082 27.6222C21.7184 27.6222 21.9599 27.6478 22.2326 27.699C22.5082 27.7472 22.7738 27.8481 23.0295 28.0015C23.288 28.1549 23.5025 28.3865 23.6729 28.6961C23.8434 29.0058 23.9286 29.4205 23.9286 29.9404V34.2529H22.9229V33.3666H22.8718C22.8036 33.5086 22.69 33.6606 22.5309 33.8225C22.3718 33.9845 22.1602 34.1222 21.896 34.2359C21.6317 34.3495 21.3093 34.4063 20.9286 34.4063ZM21.082 33.5029C21.4798 33.5029 21.815 33.4248 22.0877 33.2686C22.3633 33.1123 22.5707 32.9106 22.7099 32.6634C22.8519 32.4163 22.9229 32.1563 22.9229 31.8836V30.9632C22.8803 31.0143 22.7866 31.0612 22.6417 31.1038C22.4996 31.1436 22.3349 31.1791 22.1474 31.2103C21.9627 31.2387 21.7823 31.2643 21.6062 31.287C21.4329 31.3069 21.2923 31.324 21.1843 31.3382C20.9229 31.3722 20.6786 31.4276 20.4513 31.5044C20.2269 31.5782 20.0451 31.6904 19.9059 31.841C19.7695 31.9887 19.7013 32.1904 19.7013 32.4461C19.7013 32.7955 19.8306 33.0597 20.0891 33.2387C20.3505 33.4149 20.6815 33.5029 21.082 33.5029ZM25.7642 34.2529V27.7075H26.7358V28.6961H26.804C26.9233 28.3722 27.1392 28.1095 27.4517 27.9078C27.7642 27.7061 28.1165 27.6052 28.5085 27.6052C28.5824 27.6052 28.6747 27.6066 28.7855 27.6095C28.8963 27.6123 28.9801 27.6166 29.0369 27.6222V28.645C29.0028 28.6365 28.9247 28.6237 28.8026 28.6066C28.6832 28.5867 28.5568 28.5768 28.4233 28.5768C28.1051 28.5768 27.821 28.6436 27.571 28.7771C27.3239 28.9078 27.1278 29.0896 26.983 29.3225C26.8409 29.5526 26.7699 29.8154 26.7699 30.1109V34.2529H25.7642ZM33.4858 27.7075V28.5597H30.0938V27.7075H33.4858ZM31.0824 26.1393H32.0881V32.3779C32.0881 32.662 32.1293 32.8751 32.2116 33.0171C32.2969 33.1563 32.4048 33.2501 32.5355 33.2984C32.669 33.3438 32.8097 33.3666 32.9574 33.3666C33.0682 33.3666 33.1591 33.3609 33.2301 33.3495C33.3011 33.3353 33.358 33.324 33.4006 33.3154L33.6051 34.2188C33.5369 34.2444 33.4418 34.27 33.3196 34.2955C33.1974 34.324 33.0426 34.3382 32.8551 34.3382C32.571 34.3382 32.2926 34.2771 32.0199 34.1549C31.75 34.0328 31.5256 33.8467 31.3466 33.5967C31.1705 33.3467 31.0824 33.0313 31.0824 32.6507V26.1393ZM38.5142 30.0427V30.9802H34.696V30.0427H38.5142ZM42.2099 34.4063C41.7951 34.4063 41.4187 34.3282 41.0806 34.172C40.7425 34.0129 40.4741 33.7842 40.2752 33.4859C40.0763 33.1847 39.9769 32.8211 39.9769 32.395C39.9769 32.02 40.0508 31.716 40.1985 31.483C40.3462 31.2472 40.5437 31.0626 40.7908 30.9291C41.038 30.7955 41.3107 30.6961 41.609 30.6308C41.9102 30.5626 42.2127 30.5086 42.5167 30.4688C42.9144 30.4177 43.2369 30.3793 43.484 30.3538C43.734 30.3254 43.9158 30.2785 44.0295 30.2132C44.146 30.1478 44.2042 30.0342 44.2042 29.8722V29.8382C44.2042 29.4177 44.0891 29.091 43.859 28.858C43.6317 28.6251 43.2866 28.5086 42.8235 28.5086C42.3434 28.5086 41.967 28.6137 41.6942 28.824C41.4215 29.0342 41.2298 29.2586 41.119 29.4972L40.1644 29.1563C40.3349 28.7586 40.5621 28.449 40.8462 28.2274C41.1332 28.0029 41.4457 27.8467 41.7837 27.7586C42.1246 27.6677 42.4599 27.6222 42.7894 27.6222C42.9996 27.6222 43.2411 27.6478 43.5138 27.699C43.7894 27.7472 44.055 27.8481 44.3107 28.0015C44.5692 28.1549 44.7837 28.3865 44.9542 28.6961C45.1246 29.0058 45.2099 29.4205 45.2099 29.9404V34.2529H44.2042V33.3666H44.1531C44.0849 33.5086 43.9712 33.6606 43.8121 33.8225C43.6531 33.9845 43.4414 34.1222 43.1772 34.2359C42.913 34.3495 42.5906 34.4063 42.2099 34.4063ZM42.3633 33.5029C42.761 33.5029 43.0962 33.4248 43.369 33.2686C43.6445 33.1123 43.8519 32.9106 43.9911 32.6634C44.1332 32.4163 44.2042 32.1563 44.2042 31.8836V30.9632C44.1616 31.0143 44.0678 31.0612 43.9229 31.1038C43.7809 31.1436 43.6161 31.1791 43.4286 31.2103C43.244 31.2387 43.0636 31.2643 42.8874 31.287C42.7141 31.3069 42.5735 31.324 42.4656 31.3382C42.2042 31.3722 41.9599 31.4276 41.7326 31.5044C41.5082 31.5782 41.3263 31.6904 41.1871 31.841C41.0508 31.9887 40.9826 32.1904 40.9826 32.4461C40.9826 32.7955 41.1119 33.0597 41.3704 33.2387C41.6317 33.4149 41.9627 33.5029 42.3633 33.5029ZM49.517 34.3893C48.9716 34.3893 48.4901 34.2515 48.0724 33.9759C47.6548 33.6975 47.3281 33.3055 47.0923 32.7998C46.8565 32.2913 46.7386 31.6904 46.7386 30.9972C46.7386 30.3097 46.8565 29.7132 47.0923 29.2075C47.3281 28.7018 47.6563 28.3112 48.0767 28.0356C48.4972 27.76 48.983 27.6222 49.5341 27.6222C49.9602 27.6222 50.2969 27.6933 50.544 27.8353C50.794 27.9745 50.9844 28.1336 51.1151 28.3126C51.2486 28.4887 51.3523 28.6336 51.4261 28.7472H51.5114V25.5257H52.517V34.2529H51.5455V33.2472H51.4261C51.3523 33.3666 51.2472 33.5171 51.1108 33.699C50.9744 33.8779 50.7798 34.0384 50.527 34.1805C50.2741 34.3197 49.9375 34.3893 49.517 34.3893ZM49.6534 33.4859C50.0568 33.4859 50.3977 33.3808 50.6761 33.1705C50.9545 32.9575 51.1662 32.6634 51.3111 32.2884C51.456 31.9106 51.5284 31.4745 51.5284 30.9802C51.5284 30.4916 51.4574 30.064 51.3153 29.6975C51.1733 29.3282 50.9631 29.0413 50.6847 28.8367C50.4063 28.6293 50.0625 28.5257 49.6534 28.5257C49.2273 28.5257 48.8722 28.635 48.5881 28.8538C48.3068 29.0697 48.0952 29.3637 47.9531 29.7359C47.8139 30.1052 47.7443 30.52 47.7443 30.9802C47.7443 31.4461 47.8153 31.8694 47.9574 32.2501C48.1023 32.6279 48.3153 32.9291 48.5966 33.1535C48.8807 33.3751 49.233 33.4859 49.6534 33.4859ZM54.4986 34.2529V27.7075H55.4702V28.7302H55.5554C55.6918 28.3808 55.9119 28.1095 56.2159 27.9163C56.5199 27.7203 56.8849 27.6222 57.3111 27.6222C57.7429 27.6222 58.1023 27.7203 58.3892 27.9163C58.679 28.1095 58.9048 28.3808 59.0668 28.7302H59.1349C59.3026 28.3921 59.554 28.1237 59.8892 27.9248C60.2244 27.7231 60.6264 27.6222 61.0952 27.6222C61.6804 27.6222 62.1591 27.8055 62.5312 28.172C62.9034 28.5356 63.0895 29.1024 63.0895 29.8722V34.2529H62.0838V29.8722C62.0838 29.3893 61.9517 29.0441 61.6875 28.8367C61.4233 28.6293 61.1122 28.5257 60.7543 28.5257C60.294 28.5257 59.9375 28.6649 59.6847 28.9433C59.4318 29.2188 59.3054 29.5683 59.3054 29.9916V34.2529H58.2827V29.77C58.2827 29.3978 58.1619 29.0981 57.9205 28.8708C57.679 28.6407 57.3679 28.5257 56.9872 28.5257C56.7259 28.5257 56.4815 28.5953 56.2543 28.7345C56.0298 28.8737 55.848 29.0669 55.7088 29.314C55.5724 29.5583 55.5043 29.841 55.5043 30.162V34.2529H54.4986ZM64.9283 34.2529V27.7075H65.9339V34.2529H64.9283ZM65.4396 26.6166C65.2436 26.6166 65.0746 26.5498 64.9325 26.4163C64.7933 26.2828 64.7237 26.1222 64.7237 25.9347C64.7237 25.7472 64.7933 25.5867 64.9325 25.4532C65.0746 25.3197 65.2436 25.2529 65.4396 25.2529C65.6357 25.2529 65.8033 25.3197 65.9425 25.4532C66.0845 25.5867 66.1555 25.7472 66.1555 25.9347C66.1555 26.1222 66.0845 26.2828 65.9425 26.4163C65.8033 26.5498 65.6357 26.6166 65.4396 26.6166ZM68.7816 30.3154V34.2529H67.7759V27.7075H68.7475V28.7302H68.8327C68.9862 28.3978 69.2191 28.1308 69.5316 27.9291C69.8441 27.7245 70.2475 27.6222 70.7418 27.6222C71.185 27.6222 71.5728 27.7132 71.9052 27.895C72.2376 28.074 72.4961 28.3467 72.6808 28.7132C72.8654 29.0768 72.9577 29.537 72.9577 30.0938V34.2529H71.9521V30.162C71.9521 29.6478 71.8185 29.2472 71.5515 28.9603C71.2844 28.6705 70.918 28.5257 70.4521 28.5257C70.131 28.5257 69.8441 28.5953 69.5913 28.7345C69.3413 28.8737 69.1438 29.0768 68.9989 29.3438C68.854 29.6109 68.7816 29.9347 68.7816 30.3154Z" fill="#7B7E8C"/>
</svg>
