<svg width="299" height="62" viewBox="0 0 299 62" fill="none" xmlns="http://www.w3.org/2000/svg">
<path d="M99.0869 32.1748C99.0869 36.6058 97.8406 39.9941 97.1284 41.558C95.8821 44.2513 94.2798 46.5971 92.2323 48.5084C89.0276 51.5493 85.4669 53.5475 81.728 54.2426C80.3927 54.5032 79.0574 54.677 77.6331 54.677C76.1198 54.677 74.5175 54.5032 73.0041 54.1557C72.292 53.9819 71.6688 53.8082 71.0457 53.6344C67.1288 52.4181 63.657 49.8985 61.3425 46.6839C59.4731 43.9906 58.4049 40.776 58.3159 37.3877V37.3008L58.761 37.3877L63.6571 38.0827L64.1912 38.1696C64.3692 39.386 64.8143 40.4285 65.3484 41.4711C65.5265 41.9055 65.7935 42.253 66.0606 42.6874C66.8617 43.8169 67.841 44.7726 68.9982 45.6414C69.7104 46.1627 70.4225 46.5102 71.1347 46.8577C71.7578 47.1183 72.47 47.379 73.1821 47.5527C74.2504 47.8134 75.4076 47.9872 76.5649 47.9872C76.921 47.9872 77.277 47.9872 77.6331 47.9872C79.1465 47.9003 80.5708 47.5527 81.9951 46.9446C82.3512 46.7708 82.7072 46.5971 83.0633 46.4233C84.3096 45.7283 85.4668 44.9463 86.4461 43.9906C87.1582 43.2956 87.7814 42.5137 88.3155 41.6449C89.0276 40.5154 89.6508 39.2991 90.0959 37.909C90.2739 37.3877 90.3629 36.9533 90.541 36.432C90.8971 34.955 91.0751 33.3912 90.9861 31.9142C90.9861 31.5667 90.9861 31.2192 90.897 30.7848C90.808 29.5684 90.541 28.439 90.0959 27.3095C89.6508 26.0932 89.1167 24.9637 88.4045 23.9212C87.6033 22.7917 86.7131 21.7492 85.7339 20.8803C85.1108 20.3591 84.4876 19.8378 83.9535 19.4902C83.1523 18.969 82.3512 18.5346 81.461 18.1002C80.3037 17.5789 79.0574 17.1445 77.7221 16.7969C77.6331 16.7969 77.5441 16.7101 77.3661 16.7101H77.2771C75.9418 16.4494 74.5174 16.2757 73.0931 16.2757C73.0041 16.2757 72.9151 16.2757 72.8261 16.2757C71.4018 16.2757 69.8884 16.4494 68.4641 16.7969C68.3751 16.7969 68.1971 16.8838 68.108 16.8838C66.8618 17.2313 65.5265 17.7526 64.3692 18.3608C63.2119 18.969 62.0547 19.7509 60.9865 20.6197C59.9182 21.4885 58.85 22.5311 57.9598 23.7474C57.4257 24.4425 56.9806 25.1375 56.5355 25.8325C56.3574 26.1801 56.0904 26.6145 55.9123 27.0489L55.3782 26.962L47.0994 25.7457L46.6543 25.6588V25.5719C48.7017 20.3591 51.2833 16.7969 55.5563 13.4086C60.2743 9.67272 65.1704 8.28263 67.6629 7.84822C69.2653 7.58758 70.9566 7.41382 72.648 7.41382V7.84822V7.41382C76.0308 7.41382 79.4135 8.02198 82.5292 9.23832C87.7814 11.2366 91.1641 14.4512 92.6774 16.1019C94.5469 18.187 96.0602 20.5328 97.1284 23.0524C98.0186 25.2244 98.5528 27.4833 98.8198 29.7422C98.9979 30.6979 99.0869 31.4798 99.0869 32.1748Z" fill="#FF5E0E"/>
<path d="M52.5622 36.3844C52.5622 36.4719 52.5623 36.5594 52.4745 36.5594V36.647C52.0357 37.9598 51.5091 39.1852 50.8947 40.323C50.1926 41.7234 49.3149 43.0362 48.3495 44.174C47.6474 45.1368 46.7697 46.0121 45.8921 46.8873C44.8389 47.8501 43.6979 48.8128 42.2937 49.7756C41.6793 50.2132 40.9772 50.6509 40.3628 51.0009C39.5729 51.4386 38.6953 51.9637 37.8176 52.3138C36.7644 52.7514 35.799 53.1891 34.8336 53.4516C33.7804 53.8017 32.7272 54.0643 31.7618 54.2394C30.182 54.5019 28.6022 54.677 26.9346 54.677H26.8469C25.3548 54.677 23.8628 54.5895 22.3708 54.3269C21.5809 54.1518 20.7033 53.9768 19.9134 53.8017C18.9479 53.5392 18.0703 53.2766 17.1926 52.9265C15.7884 52.4013 14.4719 51.7011 13.1554 51.0009C12.0144 50.3008 10.8735 49.513 9.82029 48.6378C8.7671 47.7626 7.88943 46.8873 7.01177 46.0121C5.95858 44.8742 5.08092 43.5614 4.29103 42.2485C3.5889 41.0232 2.88679 39.7103 2.36019 38.3099C1.8336 36.9971 1.48252 35.6842 1.21922 34.4588C0.955925 33.0585 0.868164 31.5705 0.868164 30.0826C0.868164 29.9076 0.868164 29.8201 0.868164 29.645C0.868164 28.8573 0.955941 28.1571 1.04371 27.3694C1.21924 25.8815 1.48254 24.4811 1.92136 23.0807C2.36019 21.5928 2.97456 20.1049 3.76445 18.792C4.02775 18.3544 4.29104 17.9167 4.55434 17.4791C4.72987 17.129 4.99316 16.8665 5.25646 16.5164C5.69529 15.9037 6.22189 15.291 6.66072 14.7659C7.45061 13.8031 8.41604 12.9279 9.46923 12.0526C10.0836 11.5275 10.7857 11.0023 11.4878 10.5647C12.2777 10.0395 13.1554 9.60193 14.033 9.16431C15.3495 8.55164 16.7538 8.11401 18.158 7.85144C18.2458 7.85144 18.3336 7.85144 18.4213 7.76392H18.5091C19.7378 7.50134 20.9666 7.41382 22.1075 7.41382H22.283C23.3362 7.41382 24.3894 7.50134 25.4426 7.67639C26.9346 7.93897 28.4266 8.37659 29.9187 8.90173C30.8841 9.25183 31.8495 9.77698 32.6394 10.2146C33.9559 11.0023 35.1846 11.9651 36.2378 13.0154C36.8522 13.628 37.3788 14.2407 37.8176 14.8534C38.5197 15.8162 39.1341 16.8664 39.6607 17.9167C40.0117 18.7045 40.275 19.4047 40.5383 20.1924C40.9772 21.5928 41.1527 23.0807 41.2405 24.7436V24.8312L40.8016 24.7436L35.8867 24.0434L35.3602 23.9559C35.2724 23.5183 35.1846 23.1682 35.0968 22.7306C34.2192 19.7548 32.3761 18.0043 31.7618 17.3916C30.9719 16.6039 29.1288 15.2035 26.4958 14.5033C25.4426 14.2407 24.3016 14.0657 23.1607 14.0657C20.2644 14.0657 17.4559 15.0284 15.0862 16.7789C14.8229 16.954 14.5596 17.129 14.3841 17.3041C11.8389 19.4047 9.90805 22.7306 9.20592 26.4941C8.67932 29.1199 8.85486 31.9206 9.64475 34.4588C11.049 38.8351 13.9453 41.1982 14.9107 41.9859C17.9825 44.6117 22.283 46.0996 26.5836 46.0996H26.6713C28.3389 46.0996 30.0064 45.837 31.5862 45.4869C35.4479 44.4366 39.0463 41.9859 41.5038 38.8351C42.2937 37.7848 42.9958 36.647 43.6101 35.2466L44.1367 35.3341L52.299 36.5594L52.5622 36.3844Z" fill="#FF5E0E"/>
<path d="M38.5309 34.2631L38.4427 34.4389C38.2663 34.7906 38.0016 35.0543 37.7369 35.406C36.7666 36.6368 35.708 37.7797 34.473 38.6588L34.3848 38.7467C33.1498 39.6259 31.7383 40.3292 30.2387 40.7688C29.4447 41.0325 28.5626 41.2084 27.6804 41.2963C27.4158 41.2963 27.1511 41.3842 26.8865 41.3842C26.6218 41.3842 26.3572 41.3842 26.0043 41.3842C25.034 41.3842 23.9754 41.2963 23.005 41.0325C22.0347 40.7688 20.9761 40.4171 20.0939 39.9775C19.1235 39.538 18.2414 38.9226 17.4475 38.3072C16.4771 37.5159 15.5949 36.6368 14.8892 35.7576C14.0071 34.5268 13.3013 33.2081 12.9485 31.8014C12.8603 31.3619 12.6838 30.9223 12.6838 30.4827V30.3069L13.2131 30.3948L16.83 30.9223L17.3592 31.0102C17.5357 31.3619 17.7121 31.8014 17.8885 32.1531C18.9471 33.9993 20.3586 34.9664 21.1525 35.406C22.7404 36.2851 24.3282 36.4609 25.2986 36.4609C25.9161 36.4609 26.3572 36.373 26.6218 36.373C29.0036 36.0214 30.5033 34.8785 31.209 34.351C31.6501 33.9993 32.003 33.6477 32.444 33.296L32.9733 33.3839L38.0898 34.1752L38.5309 34.2631Z" fill="#FF5E0E"/>
<path d="M87.2711 31.7839L86.74 31.6953L83.0223 31.1636L82.4912 31.075C82.4027 30.7205 82.2256 30.4546 82.0486 30.1002C81.429 28.9481 80.5438 27.9733 79.6586 27.2644C79.4816 27.1758 79.3931 27.0871 79.216 26.9099C78.0653 26.2009 76.7376 25.7579 75.4098 25.5806C75.2328 25.5806 75.0557 25.5806 74.8787 25.5806C74.7902 25.5806 74.7017 25.5806 74.6131 25.5806C73.3739 25.5806 72.2232 25.8465 71.0724 26.2896C69.8332 26.8213 68.6825 27.6188 67.6203 28.6823L67.5318 28.7709L67.0007 28.6823L61.9552 27.8847L61.4241 27.7961L61.5126 27.6188C62.2207 26.4668 63.1059 25.4034 64.0796 24.5172C65.4073 23.2765 67.0007 22.3017 68.594 21.6814C70.2758 21.0611 72.0461 20.7066 73.8165 20.7066C74.5246 20.7066 75.1443 20.7952 75.8524 20.8838C80.0127 21.5042 83.8189 24.0741 85.8548 27.6188C86.563 28.8595 87.0941 30.2774 87.2711 31.6953V31.7839Z" fill="#FF5E0E"/>
<path d="M126.197 15.952C126.106 15.0353 125.716 14.3232 125.027 13.8156C124.337 13.3081 123.402 13.0543 122.22 13.0543C121.417 13.0543 120.739 13.1679 120.186 13.3952C119.633 13.6149 119.208 13.9217 118.913 14.3156C118.625 14.7096 118.481 15.1566 118.481 15.6566C118.466 16.0732 118.553 16.4369 118.742 16.7475C118.939 17.0581 119.208 17.327 119.549 17.5543C119.89 17.774 120.284 17.9672 120.731 18.1338C121.178 18.2929 121.655 18.4293 122.163 18.5429L124.254 19.0429C125.269 19.2702 126.201 19.5732 127.049 19.952C127.898 20.3308 128.633 20.7967 129.254 21.3497C129.875 21.9028 130.356 22.5543 130.697 23.3043C131.046 24.0543 131.224 24.9141 131.231 25.8838C131.224 27.3081 130.86 28.5429 130.14 29.5884C129.428 30.6263 128.398 31.4331 127.049 32.0088C125.708 32.577 124.091 32.8611 122.197 32.8611C120.318 32.8611 118.682 32.5732 117.288 31.9975C115.902 31.4217 114.818 30.5694 114.038 29.4406C113.265 28.3043 112.86 26.899 112.822 25.2247H117.583C117.636 26.005 117.86 26.6566 118.254 27.1793C118.655 27.6944 119.189 28.0846 119.856 28.3497C120.53 28.6073 121.292 28.7361 122.14 28.7361C122.974 28.7361 123.697 28.6149 124.311 28.3725C124.932 28.13 125.413 27.7929 125.754 27.3611C126.095 26.9293 126.265 26.4331 126.265 25.8725C126.265 25.3497 126.11 24.9103 125.799 24.5543C125.496 24.1982 125.049 23.8952 124.458 23.6452C123.875 23.3952 123.159 23.1679 122.311 22.9634L119.777 22.327C117.814 21.8497 116.265 21.1035 115.129 20.0884C113.992 19.0732 113.428 17.7058 113.436 15.9861C113.428 14.577 113.803 13.3459 114.561 12.2929C115.326 11.2399 116.375 10.4179 117.708 9.82701C119.042 9.2361 120.557 8.94065 122.254 8.94065C123.981 8.94065 125.489 9.2361 126.777 9.82701C128.072 10.4179 129.08 11.2399 129.799 12.2929C130.519 13.3459 130.89 14.5656 130.913 15.952H126.197ZM134.45 32.5316V15.077H139.064V18.1566H139.268C139.632 17.1338 140.238 16.327 141.086 15.7361C141.935 15.1452 142.95 14.8497 144.132 14.8497C145.329 14.8497 146.348 15.149 147.189 15.7475C148.029 16.3384 148.59 17.1414 148.87 18.1566H149.052C149.408 17.1566 150.052 16.3573 150.984 15.7588C151.923 15.1528 153.033 14.8497 154.314 14.8497C155.942 14.8497 157.264 15.3687 158.279 16.4066C159.302 17.4369 159.814 18.899 159.814 20.7929V32.5316H154.984V21.7475C154.984 20.7778 154.726 20.0505 154.211 19.5656C153.696 19.0808 153.052 18.8384 152.279 18.8384C151.401 18.8384 150.715 19.1187 150.223 19.6793C149.73 20.2323 149.484 20.9634 149.484 21.8725V32.5316H144.791V21.6452C144.791 20.7891 144.545 20.1073 144.052 19.5997C143.567 19.0922 142.927 18.8384 142.132 18.8384C141.594 18.8384 141.109 18.9747 140.677 19.2475C140.253 19.5126 139.916 19.8876 139.666 20.3725C139.416 20.8497 139.291 21.4103 139.291 22.0543V32.5316H134.45ZM168.615 32.8611C167.501 32.8611 166.509 32.6679 165.637 32.2816C164.766 31.8876 164.077 31.3081 163.569 30.5429C163.069 29.7702 162.819 28.8081 162.819 27.6566C162.819 26.6869 162.997 25.8725 163.353 25.2134C163.709 24.5543 164.194 24.024 164.808 23.6225C165.421 23.2209 166.118 22.9179 166.899 22.7134C167.687 22.5088 168.512 22.3649 169.376 22.2816C170.391 22.1755 171.209 22.077 171.831 21.9861C172.452 21.8876 172.903 21.7437 173.183 21.5543C173.463 21.3649 173.603 21.0846 173.603 20.7134V20.6452C173.603 19.9255 173.376 19.3687 172.921 18.9747C172.475 18.5808 171.838 18.3838 171.012 18.3838C170.141 18.3838 169.448 18.577 168.933 18.9634C168.418 19.3422 168.077 19.8194 167.91 20.3952L163.433 20.0316C163.66 18.9709 164.107 18.0543 164.774 17.2816C165.44 16.5013 166.3 15.9028 167.353 15.4861C168.414 15.0619 169.641 14.8497 171.035 14.8497C172.005 14.8497 172.933 14.9634 173.819 15.1906C174.713 15.4179 175.505 15.7702 176.194 16.2475C176.891 16.7247 177.44 17.3384 177.842 18.0884C178.243 18.8308 178.444 19.7209 178.444 20.7588V32.5316H173.853V30.1111H173.717C173.437 30.6566 173.062 31.1376 172.592 31.5543C172.122 31.9634 171.558 32.2853 170.899 32.5202C170.24 32.7475 169.478 32.8611 168.615 32.8611ZM170.001 29.5202C170.713 29.5202 171.342 29.38 171.887 29.0997C172.433 28.8119 172.861 28.4255 173.171 27.9406C173.482 27.4558 173.637 26.9066 173.637 26.2929V24.4406C173.486 24.5391 173.278 24.63 173.012 24.7134C172.755 24.7891 172.463 24.8611 172.137 24.9293C171.812 24.9899 171.486 25.0467 171.16 25.0997C170.834 25.1452 170.539 25.1869 170.274 25.2247C169.706 25.3081 169.209 25.4406 168.785 25.6225C168.361 25.8043 168.031 26.0505 167.796 26.3611C167.562 26.6641 167.444 27.0429 167.444 27.4975C167.444 28.1566 167.683 28.6603 168.16 29.0088C168.645 29.3497 169.259 29.5202 170.001 29.5202ZM182.2 32.5316V15.077H186.893V18.1225H187.075C187.393 17.0391 187.927 16.2209 188.677 15.6679C189.427 15.1073 190.291 14.827 191.268 14.827C191.51 14.827 191.772 14.8422 192.052 14.8725C192.332 14.9028 192.579 14.9444 192.791 14.9975V19.2929C192.564 19.2247 192.249 19.1641 191.848 19.1111C191.446 19.0581 191.079 19.0316 190.745 19.0316C190.033 19.0316 189.397 19.1869 188.836 19.4975C188.283 19.8005 187.844 20.2247 187.518 20.7702C187.2 21.3156 187.041 21.9444 187.041 22.6566V32.5316H182.2ZM205.453 15.077V18.7134H194.941V15.077H205.453ZM197.328 10.8952H202.169V27.1679C202.169 27.6149 202.237 27.9634 202.373 28.2134C202.51 28.4558 202.699 28.6263 202.941 28.7247C203.191 28.8232 203.479 28.8725 203.805 28.8725C204.032 28.8725 204.26 28.8535 204.487 28.8156C204.714 28.7702 204.888 28.7361 205.01 28.7134L205.771 32.3156C205.528 32.3914 205.188 32.4785 204.748 32.577C204.309 32.6831 203.775 32.7475 203.146 32.7702C201.979 32.8156 200.957 32.6603 200.078 32.3043C199.207 31.9482 198.528 31.3952 198.044 30.6452C197.559 29.8952 197.32 28.9482 197.328 27.8043V10.8952ZM216.305 32.8725C214.517 32.8725 212.979 32.4937 211.691 31.7361C210.411 30.9709 209.426 29.9103 208.737 28.5543C208.055 27.1982 207.714 25.6376 207.714 23.8725C207.714 22.0846 208.059 20.5164 208.748 19.1679C209.445 17.8119 210.434 16.755 211.714 15.9975C212.994 15.2323 214.517 14.8497 216.282 14.8497C217.805 14.8497 219.138 15.1263 220.282 15.6793C221.426 16.2323 222.332 17.0088 222.998 18.0088C223.665 19.0088 224.032 20.1831 224.1 21.5316H219.532C219.403 20.6603 219.063 19.9596 218.51 19.4293C217.964 18.8914 217.248 18.6225 216.362 18.6225C215.612 18.6225 214.957 18.827 214.396 19.2361C213.843 19.6376 213.411 20.2247 213.1 20.9975C212.79 21.7702 212.635 22.7058 212.635 23.8043C212.635 24.9179 212.786 25.8649 213.089 26.6452C213.4 27.4255 213.835 28.0202 214.396 28.4293C214.957 28.8384 215.612 29.0429 216.362 29.0429C216.915 29.0429 217.411 28.9293 217.85 28.702C218.297 28.4747 218.665 28.1452 218.953 27.7134C219.248 27.274 219.441 26.7475 219.532 26.1338H224.1C224.025 27.4672 223.661 28.6414 223.01 29.6566C222.366 30.6641 221.475 31.452 220.339 32.0202C219.203 32.5884 217.858 32.8725 216.305 32.8725ZM235.086 32.8725C233.321 32.8725 231.795 32.4975 230.507 31.7475C229.226 30.9899 228.238 29.9369 227.541 28.5884C226.844 27.2323 226.495 25.6603 226.495 23.8725C226.495 22.0694 226.844 20.4937 227.541 19.1452C228.238 17.7891 229.226 16.7361 230.507 15.9861C231.795 15.2285 233.321 14.8497 235.086 14.8497C236.851 14.8497 238.374 15.2285 239.654 15.9861C240.942 16.7361 241.935 17.7891 242.632 19.1452C243.329 20.4937 243.677 22.0694 243.677 23.8725C243.677 25.6603 243.329 27.2323 242.632 28.5884C241.935 29.9369 240.942 30.9899 239.654 31.7475C238.374 32.4975 236.851 32.8725 235.086 32.8725ZM235.109 29.1225C235.912 29.1225 236.582 28.8952 237.12 28.4406C237.658 27.9785 238.064 27.3497 238.336 26.5543C238.617 25.7588 238.757 24.8535 238.757 23.8384C238.757 22.8232 238.617 21.9179 238.336 21.1225C238.064 20.327 237.658 19.6982 237.12 19.2361C236.582 18.774 235.912 18.5429 235.109 18.5429C234.298 18.5429 233.617 18.774 233.064 19.2361C232.518 19.6982 232.105 20.327 231.825 21.1225C231.552 21.9179 231.416 22.8232 231.416 23.8384C231.416 24.8535 231.552 25.7588 231.825 26.5543C232.105 27.3497 232.518 27.9785 233.064 28.4406C233.617 28.8952 234.298 29.1225 235.109 29.1225ZM254.711 32.8725C252.946 32.8725 251.42 32.4975 250.132 31.7475C248.851 30.9899 247.863 29.9369 247.166 28.5884C246.469 27.2323 246.12 25.6603 246.12 23.8725C246.12 22.0694 246.469 20.4937 247.166 19.1452C247.863 17.7891 248.851 16.7361 250.132 15.9861C251.42 15.2285 252.946 14.8497 254.711 14.8497C256.476 14.8497 257.999 15.2285 259.279 15.9861C260.567 16.7361 261.56 17.7891 262.257 19.1452C262.954 20.4937 263.302 22.0694 263.302 23.8725C263.302 25.6603 262.954 27.2323 262.257 28.5884C261.56 29.9369 260.567 30.9899 259.279 31.7475C257.999 32.4975 256.476 32.8725 254.711 32.8725ZM254.734 29.1225C255.537 29.1225 256.207 28.8952 256.745 28.4406C257.283 27.9785 257.689 27.3497 257.961 26.5543C258.242 25.7588 258.382 24.8535 258.382 23.8384C258.382 22.8232 258.242 21.9179 257.961 21.1225C257.689 20.327 257.283 19.6982 256.745 19.2361C256.207 18.774 255.537 18.5429 254.734 18.5429C253.923 18.5429 253.242 18.774 252.689 19.2361C252.143 19.6982 251.73 20.327 251.45 21.1225C251.177 21.9179 251.041 22.8232 251.041 23.8384C251.041 24.8535 251.177 25.7588 251.45 26.5543C251.73 27.3497 252.143 27.9785 252.689 28.4406C253.242 28.8952 253.923 29.1225 254.734 29.1225ZM266.45 32.5316V15.077H271.143V18.1225H271.325C271.643 17.0391 272.177 16.2209 272.927 15.6679C273.677 15.1073 274.541 14.827 275.518 14.827C275.76 14.827 276.022 14.8422 276.302 14.8725C276.582 14.9028 276.829 14.9444 277.041 14.9975V19.2929C276.814 19.2247 276.499 19.1641 276.098 19.1111C275.696 19.0581 275.329 19.0316 274.995 19.0316C274.283 19.0316 273.647 19.1869 273.086 19.4975C272.533 19.8005 272.094 20.2247 271.768 20.7702C271.45 21.3156 271.291 21.9444 271.291 22.6566V32.5316H266.45ZM279.544 39.077V15.077H284.316V18.0088H284.532C284.744 17.5391 285.051 17.0619 285.453 16.577C285.862 16.0846 286.392 15.6755 287.044 15.3497C287.703 15.0164 288.521 14.8497 289.498 14.8497C290.771 14.8497 291.945 15.1831 293.021 15.8497C294.097 16.5088 294.957 17.505 295.6 18.8384C296.244 20.1641 296.566 21.827 296.566 23.827C296.566 25.774 296.252 27.4179 295.623 28.7588C295.002 30.0922 294.153 31.1035 293.078 31.7929C292.01 32.4747 290.813 32.8156 289.487 32.8156C288.547 32.8156 287.748 32.6603 287.089 32.3497C286.438 32.0391 285.903 31.649 285.487 31.1793C285.07 30.702 284.752 30.2209 284.532 29.7361H284.385V39.077H279.544ZM284.282 23.8043C284.282 24.8422 284.426 25.7475 284.714 26.5202C285.002 27.2929 285.419 27.8952 285.964 28.327C286.51 28.7513 287.172 28.9634 287.953 28.9634C288.741 28.9634 289.407 28.7475 289.953 28.3156C290.498 27.8763 290.911 27.2702 291.191 26.4975C291.479 25.7172 291.623 24.8194 291.623 23.8043C291.623 22.7967 291.483 21.9103 291.203 21.1452C290.922 20.38 290.51 19.7816 289.964 19.3497C289.419 18.9179 288.748 18.702 287.953 18.702C287.165 18.702 286.498 18.9103 285.953 19.327C285.415 19.7437 285.002 20.3346 284.714 21.0997C284.426 21.8649 284.282 22.7664 284.282 23.8043Z" fill="#1F2028"/>
<path d="M120.085 44.3982C120.008 43.7505 119.697 43.2477 119.152 42.8897C118.606 42.5318 117.937 42.3528 117.145 42.3528C116.565 42.3528 116.058 42.4465 115.623 42.634C115.193 42.8215 114.856 43.0794 114.613 43.4075C114.375 43.7356 114.255 44.1085 114.255 44.5261C114.255 44.8755 114.338 45.1759 114.505 45.4274C114.675 45.6745 114.892 45.8812 115.157 46.0474C115.421 46.2093 115.698 46.3436 115.988 46.4501C116.277 46.5524 116.544 46.6355 116.787 46.6994L118.116 47.0573C118.457 47.1468 118.836 47.2704 119.254 47.4281C119.676 47.5857 120.079 47.8009 120.462 48.0737C120.85 48.3421 121.169 48.6873 121.421 49.1092C121.672 49.5311 121.798 50.0488 121.798 50.6625C121.798 51.3698 121.613 52.009 121.242 52.5801C120.875 53.1511 120.338 53.6049 119.631 53.9416C118.928 54.2782 118.074 54.4465 117.068 54.4465C116.13 54.4465 115.319 54.2953 114.632 53.9927C113.951 53.6902 113.414 53.2683 113.022 52.7271C112.634 52.1859 112.414 51.5573 112.363 50.8414H114C114.042 51.3357 114.208 51.7448 114.498 52.0687C114.792 52.3883 115.163 52.6269 115.61 52.7846C116.062 52.938 116.548 53.0147 117.068 53.0147C117.673 53.0147 118.216 52.9167 118.698 52.7207C119.179 52.5204 119.561 52.2434 119.842 51.8897C120.123 51.5318 120.264 51.1142 120.264 50.6369C120.264 50.2022 120.142 49.8485 119.9 49.5758C119.657 49.3031 119.337 49.0815 118.941 48.911C118.544 48.7406 118.116 48.5914 117.656 48.4636L116.045 48.0034C115.022 47.7093 114.213 47.2896 113.616 46.7441C113.02 46.1987 112.721 45.4849 112.721 44.6028C112.721 43.8698 112.919 43.2306 113.316 42.6852C113.716 42.1355 114.253 41.7093 114.927 41.4068C115.604 41.1 116.36 40.9465 117.196 40.9465C118.039 40.9465 118.789 41.0978 119.446 41.4004C120.102 41.6987 120.622 42.1078 121.005 42.6277C121.393 43.1475 121.598 43.7377 121.619 44.3982H120.085ZM124.2 54.2164V44.3982H125.657V45.9323H125.785C125.99 45.4082 126.32 45.0012 126.776 44.7115C127.232 44.4174 127.779 44.2704 128.419 44.2704C129.066 44.2704 129.605 44.4174 130.036 44.7115C130.47 45.0012 130.809 45.4082 131.052 45.9323H131.154C131.406 45.4252 131.783 45.0225 132.286 44.7242C132.789 44.4217 133.392 44.2704 134.095 44.2704C134.973 44.2704 135.691 44.5453 136.249 45.095C136.807 45.6404 137.086 46.4906 137.086 47.6454V54.2164H135.578V47.6454C135.578 46.921 135.379 46.4032 134.983 46.0921C134.587 45.7811 134.12 45.6255 133.583 45.6255C132.893 45.6255 132.358 45.8343 131.979 46.2519C131.6 46.6653 131.41 47.1894 131.41 47.8244V54.2164H129.876V47.492C129.876 46.9338 129.695 46.4842 129.333 46.1433C128.97 45.7981 128.504 45.6255 127.933 45.6255C127.541 45.6255 127.174 45.7299 126.833 45.9387C126.497 46.1475 126.224 46.4373 126.015 46.808C125.811 47.1745 125.708 47.5985 125.708 48.0801V54.2164H124.2ZM142.734 54.4465C142.111 54.4465 141.547 54.3294 141.04 54.095C140.533 53.8563 140.13 53.5133 139.832 53.0659C139.533 52.6142 139.384 52.0687 139.384 51.4295C139.384 50.867 139.495 50.411 139.716 50.0616C139.938 49.7079 140.234 49.4309 140.605 49.2306C140.976 49.0304 141.385 48.8812 141.832 48.7832C142.284 48.6809 142.738 48.6 143.194 48.5403C143.79 48.4636 144.274 48.4061 144.645 48.3677C145.02 48.3251 145.292 48.2548 145.463 48.1568C145.638 48.0588 145.725 47.8883 145.725 47.6454V47.5943C145.725 46.9636 145.552 46.4735 145.207 46.1241C144.866 45.7747 144.349 45.6 143.654 45.6C142.934 45.6 142.369 45.7576 141.96 46.073C141.551 46.3883 141.263 46.725 141.097 47.0829L139.665 46.5715C139.921 45.975 140.262 45.5105 140.688 45.1781C141.118 44.8414 141.587 44.6071 142.094 44.475C142.606 44.3386 143.109 44.2704 143.603 44.2704C143.918 44.2704 144.28 44.3088 144.689 44.3855C145.103 44.4579 145.501 44.6092 145.885 44.8393C146.273 45.0694 146.594 45.4167 146.85 45.8812C147.106 46.3457 147.234 46.9679 147.234 47.7477V54.2164H145.725V52.8869H145.648C145.546 53.1 145.376 53.3279 145.137 53.5708C144.898 53.8137 144.581 54.0204 144.185 54.1909C143.788 54.3613 143.305 54.4465 142.734 54.4465ZM142.964 53.0914C143.56 53.0914 144.063 52.9742 144.472 52.7399C144.885 52.5055 145.197 52.2029 145.405 51.8322C145.618 51.4615 145.725 51.0715 145.725 50.6625V49.2818C145.661 49.3585 145.52 49.4288 145.303 49.4927C145.09 49.5524 144.843 49.6056 144.562 49.6525C144.285 49.6951 144.014 49.7335 143.75 49.7676C143.49 49.7974 143.279 49.823 143.117 49.8443C142.725 49.8954 142.359 49.9785 142.018 50.0936C141.681 50.2044 141.408 50.3727 141.199 50.5985C140.995 50.8201 140.893 51.1227 140.893 51.5062C140.893 52.0304 141.086 52.4267 141.474 52.6951C141.866 52.9593 142.363 53.0914 142.964 53.0914ZM149.987 54.2164V44.3982H151.444V45.8812H151.547C151.726 45.3954 152.049 45.0012 152.518 44.6987C152.987 44.3961 153.515 44.2448 154.103 44.2448C154.214 44.2448 154.353 44.247 154.519 44.2512C154.685 44.2555 154.811 44.2619 154.896 44.2704V45.8045C154.845 45.7917 154.728 45.7725 154.544 45.747C154.365 45.7171 154.176 45.7022 153.976 45.7022C153.498 45.7022 153.072 45.8024 152.697 46.0027C152.326 46.1987 152.032 46.4714 151.815 46.8208C151.602 47.166 151.495 47.5602 151.495 48.0034V54.2164H149.987ZM161.569 44.3982V45.6767H156.481V44.3982H161.569ZM157.964 42.046H159.473V51.4039C159.473 51.8301 159.534 52.1497 159.658 52.3627C159.786 52.5715 159.948 52.7122 160.144 52.7846C160.344 52.8528 160.555 52.8869 160.777 52.8869C160.943 52.8869 161.079 52.8784 161.186 52.8613C161.292 52.84 161.378 52.823 161.441 52.8102L161.748 54.1653C161.646 54.2036 161.503 54.242 161.32 54.2804C161.137 54.323 160.904 54.3443 160.623 54.3443C160.197 54.3443 159.779 54.2527 159.37 54.0694C158.966 53.8862 158.629 53.6071 158.36 53.2321C158.096 52.8571 157.964 52.384 157.964 51.813V42.046ZM169.112 47.9011V49.3073H163.385V47.9011H169.112ZM174.655 54.4465C174.033 54.4465 173.469 54.3294 172.961 54.095C172.454 53.8563 172.052 53.5133 171.753 53.0659C171.455 52.6142 171.306 52.0687 171.306 51.4295C171.306 50.867 171.417 50.411 171.638 50.0616C171.86 49.7079 172.156 49.4309 172.527 49.2306C172.898 49.0304 173.307 48.8812 173.754 48.7832C174.206 48.6809 174.66 48.6 175.116 48.5403C175.712 48.4636 176.196 48.4061 176.567 48.3677C176.942 48.3251 177.214 48.2548 177.385 48.1568C177.56 48.0588 177.647 47.8883 177.647 47.6454V47.5943C177.647 46.9636 177.474 46.4735 177.129 46.1241C176.788 45.7747 176.27 45.6 175.576 45.6C174.856 45.6 174.291 45.7576 173.882 46.073C173.473 46.3883 173.185 46.725 173.019 47.0829L171.587 46.5715C171.843 45.975 172.184 45.5105 172.61 45.1781C173.04 44.8414 173.509 44.6071 174.016 44.475C174.528 44.3386 175.03 44.2704 175.525 44.2704C175.84 44.2704 176.202 44.3088 176.611 44.3855C177.025 44.4579 177.423 44.6092 177.807 44.8393C178.194 45.0694 178.516 45.4167 178.772 45.8812C179.028 46.3457 179.155 46.9679 179.155 47.7477V54.2164H177.647V52.8869H177.57C177.468 53.1 177.297 53.3279 177.059 53.5708C176.82 53.8137 176.503 54.0204 176.106 54.1909C175.71 54.3613 175.226 54.4465 174.655 54.4465ZM174.885 53.0914C175.482 53.0914 175.985 52.9742 176.394 52.7399C176.807 52.5055 177.118 52.2029 177.327 51.8322C177.54 51.4615 177.647 51.0715 177.647 50.6625V49.2818C177.583 49.3585 177.442 49.4288 177.225 49.4927C177.012 49.5524 176.765 49.6056 176.484 49.6525C176.207 49.6951 175.936 49.7335 175.672 49.7676C175.412 49.7974 175.201 49.823 175.039 49.8443C174.647 49.8954 174.28 49.9785 173.939 50.0936C173.603 50.2044 173.33 50.3727 173.121 50.5985C172.917 50.8201 172.814 51.1227 172.814 51.5062C172.814 52.0304 173.008 52.4267 173.396 52.6951C173.788 52.9593 174.285 53.0914 174.885 53.0914ZM185.616 54.421C184.798 54.421 184.076 54.2143 183.449 53.8009C182.823 53.3833 182.333 52.7953 181.979 52.0367C181.625 51.274 181.449 50.3727 181.449 49.3329C181.449 48.3017 181.625 47.4068 181.979 46.6482C182.333 45.8897 182.825 45.3038 183.456 44.8904C184.086 44.4771 184.815 44.2704 185.642 44.2704C186.281 44.2704 186.786 44.3769 187.157 44.59C187.532 44.7988 187.817 45.0375 188.013 45.3059C188.213 45.5701 188.369 45.7875 188.48 45.9579H188.608V41.1255H190.116V54.2164H188.659V52.7079H188.48C188.369 52.8869 188.211 53.1127 188.007 53.3855C187.802 53.6539 187.51 53.8947 187.131 54.1078C186.752 54.3166 186.247 54.421 185.616 54.421ZM185.821 53.0659C186.426 53.0659 186.937 52.9082 187.355 52.5929C187.772 52.2732 188.09 51.8322 188.307 51.2697C188.525 50.7029 188.633 50.0488 188.633 49.3073C188.633 48.5744 188.527 47.933 188.314 47.3833C188.101 46.8294 187.785 46.399 187.368 46.0921C186.95 45.7811 186.434 45.6255 185.821 45.6255C185.181 45.6255 184.649 45.7896 184.223 46.1177C183.801 46.4416 183.483 46.8826 183.27 47.4409C183.061 47.9948 182.957 48.617 182.957 49.3073C182.957 50.0062 183.064 50.6411 183.277 51.2122C183.494 51.7789 183.814 52.2306 184.235 52.5673C184.662 52.8997 185.19 53.0659 185.821 53.0659ZM193.088 54.2164V44.3982H194.546V45.9323H194.674C194.878 45.4082 195.208 45.0012 195.664 44.7115C196.12 44.4174 196.668 44.2704 197.307 44.2704C197.955 44.2704 198.494 44.4174 198.924 44.7115C199.359 45.0012 199.698 45.4082 199.941 45.9323H200.043C200.294 45.4252 200.672 45.0225 201.174 44.7242C201.677 44.4217 202.28 44.2704 202.983 44.2704C203.861 44.2704 204.579 44.5453 205.137 45.095C205.696 45.6404 205.975 46.4906 205.975 47.6454V54.2164H204.466V47.6454C204.466 46.921 204.268 46.4032 203.872 46.0921C203.476 45.7811 203.009 45.6255 202.472 45.6255C201.782 45.6255 201.247 45.8343 200.868 46.2519C200.488 46.6653 200.299 47.1894 200.299 47.8244V54.2164H198.765V47.492C198.765 46.9338 198.583 46.4842 198.221 46.1433C197.859 45.7981 197.392 45.6255 196.821 45.6255C196.429 45.6255 196.063 45.7299 195.722 45.9387C195.385 46.1475 195.113 46.4373 194.904 46.808C194.699 47.1745 194.597 47.5985 194.597 48.0801V54.2164H193.088ZM208.733 54.2164V44.3982H210.241V54.2164H208.733ZM209.5 42.7619C209.206 42.7619 208.952 42.6617 208.739 42.4615C208.531 42.2612 208.426 42.0204 208.426 41.7392C208.426 41.4579 208.531 41.2171 208.739 41.0169C208.952 40.8166 209.206 40.7164 209.5 40.7164C209.794 40.7164 210.045 40.8166 210.254 41.0169C210.467 41.2171 210.574 41.4579 210.574 41.7392C210.574 42.0204 210.467 42.2612 210.254 42.4615C210.045 42.6617 209.794 42.7619 209.5 42.7619ZM214.513 48.3102V54.2164H213.004V44.3982H214.462V45.9323H214.59C214.82 45.4338 215.169 45.0332 215.638 44.7306C216.107 44.4238 216.712 44.2704 217.453 44.2704C218.118 44.2704 218.7 44.4068 219.198 44.6795C219.697 44.948 220.085 45.3571 220.362 45.9068C220.639 46.4522 220.777 47.1426 220.777 47.9778V54.2164H219.269V48.0801C219.269 47.3088 219.068 46.7079 218.668 46.2775C218.267 45.8429 217.718 45.6255 217.019 45.6255C216.537 45.6255 216.107 45.7299 215.727 45.9387C215.352 46.1475 215.056 46.4522 214.839 46.8528C214.622 47.2534 214.513 47.7392 214.513 48.3102Z" fill="#7B7E8C"/>
</svg>
